<!-- Generated by IcoMoon.io -->
<svg version="1.1" xmlns="http://www.w3.org/2000/svg" width="33" height="32" viewBox="0 0 33 32">
<title>abonement</title>
<path d="M4.28 2.973c-1.429 0.153-2.592 0.926-3.197 2.127-0.507 1.007-0.474 0.272-0.474 10.9 0 10.63-0.033 9.891 0.476 10.903 0.361 0.714 0.971 1.325 1.685 1.685 1.024 0.515-0.096 0.476 13.896 0.476s12.872 0.039 13.896-0.476c0.728-0.378 1.307-0.957 1.675-1.664l0.010-0.021c0.509-1.012 0.476-0.272 0.476-10.903s0.033-9.891-0.476-10.903c-0.378-0.728-0.957-1.307-1.664-1.675l-0.021-0.010c-1.013-0.509 0.102-0.47-13.585-0.482-6.705-0.006-12.419 0.014-12.697 0.043zM28.95 5.215c0.693 0.109 1.26 0.581 1.449 1.2 0.117 0.385 0.117 18.784 0 19.169-0.189 0.62-0.756 1.091-1.449 1.2-0.56 0.090-24.009 0.090-24.568 0-0.693-0.109-1.26-0.581-1.449-1.2-0.117-0.385-0.117-18.784 0-19.169 0.18-0.594 0.757-1.093 1.386-1.196 0.498-0.081 24.118-0.087 24.631-0.004zM9.84 7.459c-1.844 0.311-3.364 1.469-4.168 3.052l-0.015 0.032c-0.433 0.883-0.545 1.393-0.545 2.463s0.112 1.58 0.545 2.463c0.738 1.444 2.026 2.519 3.58 2.959l0.041 0.010c0.714 0.193 2.091 0.193 2.806 0 1.594-0.451 2.881-1.525 3.604-2.937l0.015-0.033c0.433-0.883 0.545-1.393 0.545-2.463s-0.112-1.58-0.545-2.463c-0.735-1.444-2.024-2.518-3.578-2.954l-0.040-0.010c-0.578-0.148-1.688-0.208-2.243-0.121zM11.379 9.708c0.593 0.123 1.211 0.465 1.673 0.926 1.33 1.332 1.33 3.412 0 4.744-1.332 1.33-3.412 1.33-4.744 0-0.616-0.603-0.997-1.443-0.997-2.372 0-0.928 0.38-1.766 0.994-2.369l0.001-0.001c0.609-0.617 1.455-1 2.39-1 0.242 0 0.479 0.026 0.706 0.074l-0.022-0.004zM19.182 16.442c-0.287 0.085-0.566 0.433-0.617 0.772-0.1 0.671 0.165 1.211 0.662 1.344 0.159 0.043 1.393 0.060 3.575 0.048 3.255-0.018 3.337-0.021 3.505-0.147 0.355-0.265 0.43-0.433 0.43-0.962s-0.075-0.697-0.43-0.962c-0.168-0.126-0.244-0.129-3.55-0.141-1.934-0.006-3.463 0.015-3.575 0.048zM19.182 20.931c-0.287 0.085-0.566 0.433-0.617 0.772-0.1 0.671 0.165 1.211 0.662 1.344 0.159 0.043 1.393 0.060 3.575 0.048 3.255-0.018 3.337-0.021 3.505-0.147 0.355-0.265 0.43-0.433 0.43-0.962s-0.075-0.697-0.43-0.962c-0.168-0.126-0.244-0.129-3.55-0.141-1.934-0.006-3.463 0.015-3.575 0.048z"></path>
</svg>
