<!-- Generated by IcoMoon.io -->
<svg version="1.1" xmlns="http://www.w3.org/2000/svg" width="32" height="32" viewBox="0 0 32 32">
<title>academic-cap</title>
<path fill="none" stroke-linejoin="miter" stroke-linecap="round" stroke-miterlimit="4" stroke-width="2" stroke="#000" d="M6.008 14.573v8.11c0 1.142 0.681 2.174 1.73 2.624l7.137 3.059c0.718 0.308 1.531 0.308 2.249 0l7.137-3.059c1.050-0.45 1.73-1.482 1.73-2.624v-8.11M30.274 11.718v7.137M1.575 10.366l13.148-6.574c0.804-0.402 1.75-0.402 2.554 0l13.148 6.574c0.526 0.263 0.526 1.014 0 1.277l-13.148 6.574c-0.804 0.402-1.75 0.402-2.554 0l-13.148-6.574c-0.526-0.263-0.526-1.014 0-1.277z"></path>
</svg>
