<!-- Generated by IcoMoon.io -->
<svg version="1.1" xmlns="http://www.w3.org/2000/svg" width="32" height="32" viewBox="0 0 32 32">
<title>ambitious</title>
<path fill="none" stroke-linejoin="round" stroke-linecap="round" stroke-miterlimit="4" stroke-width="2" stroke="#000" d="M16 31c8.284 0 15-6.716 15-15s-6.716-15-15-15c-8.284 0-15 6.716-15 15s6.716 15 15 15z"></path>
<path fill="none" stroke-linejoin="round" stroke-linecap="round" stroke-miterlimit="4" stroke-width="2" stroke="#000" d="M9.333 17.667c0 1.768 0.702 3.464 1.953 4.714s2.946 1.953 4.714 1.953 3.464-0.702 4.714-1.953c1.25-1.25 1.953-2.946 1.953-4.714M22.667 17.667h-13.333z"></path>
<path stroke-linejoin="round" stroke-linecap="round" stroke-miterlimit="4" stroke-width="2" stroke="#000" fill="#000" d="M10.167 11.833l-1.667 0.833 0.278-1.944-1.111-1.111 1.667-0.278 0.833-1.667 0.833 1.667 1.667 0.278-1.111 1.111 0.278 1.944-1.667-0.833z"></path>
<path stroke-linejoin="round" stroke-linecap="round" stroke-miterlimit="4" stroke-width="2" stroke="#000" fill="#000" d="M21.833 11.833l-1.667 0.833 0.278-1.944-1.111-1.111 1.667-0.278 0.833-1.667 0.833 1.667 1.667 0.278-1.111 1.111 0.278 1.944-1.667-0.833z"></path>
</svg>
