<!-- Generated by IcoMoon.io -->
<svg version="1.1" xmlns="http://www.w3.org/2000/svg" width="32" height="32" viewBox="0 0 32 32">
<title>archive</title>
<path fill="none" stroke-linejoin="miter" stroke-linecap="round" stroke-miterlimit="4" stroke-width="2" stroke="#000" d="M14.659 1.25v13.131c0 0.597 0.722 0.897 1.145 0.474l2.323-2.323c1.047-1.047 2.745-1.047 3.793 0l2.323 2.323c0.422 0.422 1.144 0.123 1.144-0.474v-11.79M11.977 30.75h8.045c3.755 0 5.632 0 7.066-0.731 1.262-0.643 2.287-1.669 2.93-2.93 0.731-1.434 0.731-3.312 0.731-7.066v-8.045c0-3.755 0-5.632-0.731-7.066-0.643-1.262-1.669-2.287-2.93-2.93-1.434-0.731-3.312-0.731-7.066-0.731h-8.045c-3.755 0-5.632 0-7.066 0.731-1.262 0.643-2.287 1.668-2.93 2.93-0.731 1.434-0.731 3.312-0.731 7.066v8.045c0 3.755 0 5.632 0.731 7.066 0.643 1.262 1.668 2.287 2.93 2.93 1.434 0.731 3.312 0.731 7.066 0.731z"></path>
</svg>
