<!-- Generated by IcoMoon.io -->
<svg version="1.1" xmlns="http://www.w3.org/2000/svg" width="32" height="32" viewBox="0 0 32 32">
<title>awards</title>
<path d="M16 24.558c0.616 0 1.116-0.5 1.116-1.116s-0.5-1.116-1.116-1.116v2.233zM28.279 11.535c0 0.617 0.5 1.116 1.116 1.116s1.116-0.5 1.116-1.116h-2.233zM1.441 21.817v0zM2.742 23.117v0zM27.77 4.418v0zM29.071 5.718v0zM2.742 4.418v0zM1.441 5.718v0zM23.070 21.953c0-0.616-0.5-1.116-1.116-1.116s-1.116 0.5-1.116 1.116h2.233zM23.030 28.857v0zM24.597 28.073v0zM25.263 28.073v0zM26.83 28.857v0zM29.023 21.953c0-0.616-0.5-1.116-1.116-1.116s-1.116 0.5-1.116 1.116h2.233zM7.070 10.419c-0.617 0-1.116 0.5-1.116 1.116s0.5 1.116 1.116 1.116v-2.233zM14.512 12.651c0.617 0 1.116-0.5 1.116-1.116s-0.5-1.116-1.116-1.116v2.233zM7.070 14.884c-0.617 0-1.116 0.5-1.116 1.116s0.5 1.116 1.116 1.116v-2.233zM10.046 17.116c0.617 0 1.116-0.5 1.116-1.116s-0.5-1.116-1.116-1.116v2.233zM5.879 5.209h18.753v-2.233h-18.753v2.233zM2.233 18.679v-9.823h-2.233v9.823h2.233zM16 22.326h-10.121v2.233h10.121v-2.233zM28.279 8.856v2.679h2.233v-2.679h-2.233zM0 18.679c0 0.815-0.001 1.494 0.044 2.046 0.046 0.565 0.146 1.096 0.402 1.598l1.989-1.014c-0.069-0.135-0.131-0.339-0.166-0.767-0.036-0.44-0.037-1.012-0.037-1.864h-2.233zM5.879 22.326c-0.852 0-1.424-0.001-1.864-0.037-0.427-0.035-0.632-0.097-0.766-0.166l-1.014 1.989c0.502 0.256 1.033 0.356 1.598 0.402 0.552 0.045 1.231 0.044 2.046 0.044v-2.233zM0.446 22.323c0.392 0.77 1.019 1.396 1.789 1.789l1.014-1.989c-0.35-0.178-0.635-0.463-0.813-0.813l-1.989 1.014zM24.633 5.209c0.852 0 1.424 0.001 1.864 0.037 0.427 0.035 0.632 0.097 0.767 0.166l1.014-1.989c-0.502-0.256-1.033-0.356-1.598-0.402-0.552-0.045-1.231-0.044-2.046-0.044v2.233zM30.512 8.856c0-0.815 0.001-1.494-0.044-2.046-0.046-0.565-0.146-1.096-0.402-1.598l-1.989 1.014c0.069 0.135 0.131 0.339 0.166 0.766 0.036 0.44 0.037 1.012 0.037 1.864h2.233zM27.263 5.412c0.35 0.178 0.635 0.463 0.813 0.813l1.989-1.014c-0.392-0.77-1.019-1.396-1.789-1.789l-1.014 1.989zM5.879 2.977c-0.815 0-1.494-0.001-2.046 0.044-0.565 0.046-1.096 0.146-1.598 0.402l1.014 1.989c0.135-0.069 0.339-0.131 0.766-0.166 0.44-0.036 1.012-0.037 1.864-0.037v-2.233zM2.233 8.856c0-0.852 0.001-1.424 0.037-1.864 0.035-0.427 0.097-0.632 0.166-0.766l-1.989-1.014c-0.256 0.502-0.356 1.033-0.402 1.598-0.045 0.552-0.044 1.231-0.044 2.046h2.233zM2.235 3.423c-0.77 0.392-1.396 1.019-1.789 1.789l1.989 1.014c0.178-0.35 0.463-0.635 0.813-0.813l-1.014-1.989zM29.767 16c0 2.671-2.166 4.837-4.837 4.837v2.233c3.905 0 7.070-3.165 7.070-7.070h-2.233zM24.93 20.837c-2.671 0-4.837-2.166-4.837-4.837h-2.233c0 3.905 3.165 7.070 7.070 7.070v-2.233zM20.093 16c0-2.671 2.166-4.837 4.837-4.837v-2.233c-3.905 0-7.070 3.165-7.070 7.070h2.233zM24.93 11.163c2.671 0 4.837 2.166 4.837 4.837h2.233c0-3.905-3.165-7.070-7.070-7.070v2.233zM20.837 21.953v6.238h2.233v-6.238h-2.233zM23.53 29.855l1.567-0.784-0.998-1.997-1.567 0.784 0.998 1.997zM24.764 29.072l1.567 0.784 0.998-1.997-1.567-0.784-0.998 1.997zM29.023 28.191v-6.238h-2.233v6.238h2.233zM26.331 29.855c1.237 0.619 2.692-0.281 2.692-1.664h-2.233c0-0.277 0.291-0.456 0.538-0.333l-0.998 1.997zM25.097 29.072c-0.105 0.052-0.228 0.052-0.333 0l0.998-1.997c-0.524-0.262-1.14-0.262-1.664 0l0.998 1.997zM20.837 28.191c0 1.383 1.456 2.283 2.692 1.664l-0.998-1.997c0.247-0.124 0.538 0.056 0.538 0.333h-2.233zM7.070 12.651h7.442v-2.233h-7.442v2.233zM7.070 17.116h2.977v-2.233h-2.977v2.233z"></path>
</svg>
