<!-- Generated by IcoMoon.io -->
<svg version="1.1" xmlns="http://www.w3.org/2000/svg" width="32" height="32" viewBox="0 0 32 32">
<title>beans</title>
<path fill="none" stroke-linejoin="miter" stroke-linecap="round" stroke-miterlimit="4" stroke-width="2" stroke="#000" d="M9.769 9.674l-0.005-0.002M9.764 9.673c-3.492-1.157-7.262 0.734-8.422 4.225-1.161 3.494 0.73 7.267 4.223 8.428l0.014 0.004 0.021 0.007 0.064 0.021c0.052 0.017 0.122 0.040 0.21 0.067 0.175 0.055 0.419 0.131 0.718 0.221 0.596 0.178 1.427 0.415 2.383 0.654 1.759 0.439 4.505 1.032 7.026 1.032s5.267-0.593 7.026-1.032c0.956-0.239 1.787-0.476 2.383-0.654 0.299-0.090 0.543-0.166 0.718-0.221 0.087-0.028 0.158-0.050 0.21-0.067l0.064-0.021 0.021-0.007 0.011-0.003M9.764 9.673l0.022 0.007c0.023 0.008 0.064 0.021 0.12 0.038 0.112 0.036 0.286 0.090 0.509 0.156 0.448 0.134 1.077 0.314 1.79 0.491M26.435 22.326c3.494-1.161 5.384-4.934 4.223-8.428s-4.934-5.384-8.427-4.224l-0.017 0.006c-0.023 0.008-0.064 0.021-0.12 0.038-0.113 0.036-0.286 0.090-0.509 0.156-0.448 0.134-1.077 0.314-1.79 0.491M19.796 10.366c-1.578 0.394-2.998 0.635-3.796 0.635s-2.218-0.241-3.796-0.635M19.796 10.366c0 0-0.464 2.301-3.796 2.301s-3.796-2.301-3.796-2.301"></path>
</svg>
