<!-- Generated by IcoMoon.io -->
<svg version="1.1" xmlns="http://www.w3.org/2000/svg" width="32" height="32" viewBox="0 0 32 32">
<title>bel</title>
<path d="M15.438 0.593c-4.695 0.218-8.707 3.265-10.099 7.67-0.446 1.414-0.453 1.476-0.504 5.63-0.038 3.103-0.066 3.883-0.152 4.261-0.056 0.254-0.401 1.384-0.765 2.51-0.143 0.372-0.383 1.134-0.607 1.902l-0.095 0.383c-0.091 0.499 0.223 1.1 0.727 1.392l0.264 0.154h23.518l0.264-0.154c0.504-0.292 0.818-0.893 0.728-1.392-0.316-1.148-0.556-1.91-0.811-2.665l0.111 0.377c-0.36-1.126-0.7-2.256-0.753-2.51-0.078-0.365-0.099-1.064-0.102-3.368-0.003-3.237-0.056-4.301-0.261-5.32-0.751-3.711-3.463-6.885-7.001-8.188-1.194-0.439-2.573-0.692-4.011-0.692-0.159 0-0.317 0.003-0.474 0.009l0.023-0.001zM17.784 3.224c2.122 0.467 3.911 1.651 5.144 3.281l0.016 0.022c0.728 0.968 1.253 2.122 1.549 3.402 0.097 0.423 0.121 1.052 0.163 4.294 0.058 4.359 0.038 4.182 0.71 6.276l0.439 1.371 0.046 0.149h-9.888c-9.389 0-9.885-0.007-9.843-0.116 0.21-0.543 0.922-2.941 1.007-3.386 0.088-0.457 0.116-1.26 0.154-4.327 0.050-4.111 0.048-4.094 0.472-5.351 0.626-1.79 1.776-3.264 3.264-4.28l0.029-0.019c1.154-0.768 2.109-1.128 3.83-1.442 0.382-0.069 2.426 0.020 2.907 0.126zM11.21 27.028c-0.456 0.211-0.892 0.816-0.892 1.234 0 0.438 0.459 0.956 1.387 1.567 1.328 0.874 2.633 1.255 4.294 1.255 1.625 0 2.94-0.375 4.228-1.207 0.928-0.601 1.453-1.184 1.453-1.615 0-0.446-0.484-1.077-0.965-1.262-0.406-0.155-0.659-0.068-1.389 0.479-1.034 0.775-1.835 1.070-3.064 1.126-1.296 0.061-2.352-0.235-3.305-0.927-1.097-0.794-1.29-0.865-1.749-0.651z"></path>
</svg>
