<!-- Generated by IcoMoon.io -->
<svg version="1.1" xmlns="http://www.w3.org/2000/svg" width="32" height="32" viewBox="0 0 32 32">
<title>bonus</title>
<path d="M29.659 12.878c0-0.647-0.524-1.171-1.171-1.171s-1.171 0.524-1.171 1.171h2.341zM4.683 12.878c0-0.647-0.524-1.171-1.171-1.171s-1.171 0.524-1.171 1.171h2.341zM5.217 29.708v0zM3.853 28.344v0zM28.148 28.344v0zM26.783 29.708v0zM5.073 14.049c0.647 0 1.171-0.524 1.171-1.171s-0.524-1.171-1.171-1.171v2.341zM26.927 11.707c-0.647 0-1.171 0.524-1.171 1.171s0.524 1.171 1.171 1.171v-2.341zM2.121 12.026v0zM2.804 12.708v0zM29.879 12.026v0zM29.196 12.708v0zM29.196 6.804v0zM29.879 7.486v0zM2.804 6.804v0zM2.121 7.486v0zM21.595 5.66c-0.538 0.359-0.683 1.086-0.325 1.623s1.085 0.683 1.623 0.325l-1.299-1.948zM9.107 7.608c0.538 0.359 1.265 0.213 1.623-0.325s0.213-1.265-0.325-1.623l-1.299 1.948zM21.073 16c0 0.647 0.524 1.171 1.171 1.171s1.171-0.524 1.171-1.171h-2.341zM8.585 16c0 0.647 0.524 1.171 1.171 1.171s1.171-0.524 1.171-1.171h-2.341zM14.829 30.049c0 0.647 0.524 1.171 1.171 1.171s1.171-0.524 1.171-1.171h-2.341zM17.171 12.878c0-0.647-0.524-1.171-1.171-1.171s-1.171 0.524-1.171 1.171h2.341zM27.317 12.878v12.176h2.341v-12.176h-2.341zM23.493 28.878h-14.985v2.341h14.985v-2.341zM4.683 25.054v-12.176h-2.341v12.176h2.341zM8.507 28.878c-0.894 0-1.493-0.001-1.955-0.039-0.448-0.037-0.662-0.102-0.804-0.174l-1.063 2.086c0.526 0.268 1.083 0.373 1.676 0.421 0.579 0.047 1.291 0.046 2.146 0.046v-2.341zM2.341 25.054c0 0.855-0.001 1.566 0.046 2.146 0.048 0.593 0.153 1.15 0.421 1.676l2.086-1.063c-0.072-0.141-0.137-0.356-0.174-0.804-0.038-0.462-0.039-1.062-0.039-1.955h-2.341zM5.748 28.665c-0.367-0.187-0.666-0.486-0.853-0.853l-2.086 1.063c0.412 0.808 1.068 1.464 1.876 1.876l1.063-2.086zM27.317 25.054c0 0.893-0.001 1.493-0.039 1.955-0.037 0.448-0.102 0.663-0.174 0.804l2.086 1.063c0.268-0.526 0.373-1.083 0.421-1.676 0.047-0.579 0.046-1.291 0.046-2.146h-2.341zM23.493 31.22c0.855 0 1.566 0.001 2.146-0.046 0.593-0.049 1.15-0.153 1.676-0.421l-1.063-2.086c-0.141 0.072-0.356 0.137-0.804 0.174-0.462 0.038-1.062 0.039-1.955 0.039v2.341zM27.104 27.813c-0.187 0.367-0.486 0.666-0.853 0.853l1.063 2.086c0.808-0.412 1.464-1.068 1.876-1.876l-2.086-1.063zM4.449 7.805h23.102v-2.341h-23.102v2.341zM28.878 9.132v1.249h2.341v-1.249h-2.341zM3.122 10.38v-1.249h-2.341v1.249h2.341zM5.073 11.707h-0.624v2.341h0.624v-2.341zM27.551 11.707h-0.624v2.341h0.624v-2.341zM0.78 10.38c0 0.418-0.001 0.802 0.025 1.121 0.027 0.333 0.089 0.697 0.273 1.056l2.086-1.063c0.013 0.026-0.010 0.004-0.025-0.184-0.016-0.202-0.017-0.473-0.017-0.93h-2.341zM4.449 11.707c-0.456 0-0.728-0.001-0.93-0.017-0.188-0.015-0.209-0.038-0.184-0.025l-1.063 2.086c0.36 0.183 0.723 0.245 1.056 0.273 0.319 0.026 0.703 0.025 1.121 0.025v-2.341zM1.078 12.557c0.262 0.514 0.68 0.932 1.194 1.194l1.063-2.086c-0.073-0.037-0.133-0.097-0.171-0.171l-2.086 1.063zM28.878 10.38c0 0.456-0.001 0.728-0.017 0.93-0.015 0.188-0.038 0.209-0.025 0.184l2.086 1.063c0.183-0.36 0.245-0.723 0.273-1.056 0.026-0.319 0.025-0.703 0.025-1.121h-2.341zM27.551 14.049c0.418 0 0.802 0.001 1.121-0.025 0.333-0.027 0.697-0.089 1.056-0.273l-1.063-2.086c0.026-0.013 0.004 0.010-0.184 0.025-0.201 0.016-0.473 0.017-0.93 0.017v2.341zM28.836 11.494c-0.037 0.073-0.097 0.133-0.171 0.171l1.063 2.086c0.514-0.262 0.932-0.68 1.194-1.194l-2.086-1.063zM27.551 7.805c0.456 0 0.728 0.001 0.93 0.017 0.188 0.015 0.209 0.038 0.184 0.025l1.063-2.086c-0.36-0.183-0.724-0.245-1.056-0.273-0.319-0.026-0.703-0.025-1.121-0.025v2.341zM31.22 9.132c0-0.418 0.001-0.802-0.025-1.121-0.027-0.333-0.089-0.697-0.273-1.056l-2.086 1.063c-0.013-0.026 0.010-0.004 0.025 0.184 0.016 0.202 0.017 0.473 0.017 0.93h2.341zM28.665 7.847c0.073 0.037 0.133 0.097 0.171 0.171l2.086-1.063c-0.262-0.514-0.68-0.932-1.194-1.194l-1.063 2.086zM4.449 5.463c-0.418 0-0.802-0.001-1.121 0.025-0.333 0.027-0.697 0.089-1.056 0.273l1.063 2.086c-0.026 0.013-0.004-0.010 0.184-0.025 0.202-0.016 0.474-0.017 0.93-0.017v-2.341zM3.122 9.132c0-0.456 0.001-0.728 0.017-0.93 0.015-0.188 0.038-0.209 0.025-0.184l-2.086-1.063c-0.183 0.359-0.245 0.723-0.273 1.056-0.026 0.319-0.025 0.703-0.025 1.121h2.341zM2.272 5.761c-0.514 0.262-0.932 0.68-1.194 1.194l2.086 1.063c0.037-0.073 0.097-0.133 0.171-0.171l-1.063-2.086zM17.096 7.045c0.356-0.949 1.078-2.389 2.051-3.568 1.002-1.214 2.068-1.916 3.097-1.916v-2.341c-2.093 0-3.758 1.38-4.903 2.767-1.173 1.422-2.012 3.104-2.437 4.236l2.192 0.822zM22.244 1.561c1.239 0 1.707 0.582 1.772 0.973 0.078 0.466-0.194 1.641-2.421 3.126l1.299 1.948c2.456-1.637 3.745-3.584 3.432-5.459-0.325-1.951-2.199-2.929-4.082-2.929v2.341zM17.096 6.223c-0.425-1.133-1.264-2.814-2.437-4.236-1.145-1.388-2.81-2.767-4.903-2.767v2.341c1.029 0 2.095 0.702 3.097 1.916 0.973 1.179 1.695 2.62 2.051 3.568l2.192-0.822zM9.756-0.78c-1.883 0-3.756 0.979-4.082 2.929-0.313 1.875 0.976 3.822 3.432 5.459l1.299-1.948c-2.227-1.485-2.499-2.66-2.421-3.126 0.065-0.391 0.533-0.973 1.772-0.973v-2.341zM15.515 7.7c1.42 0.646 2.77 1.339 3.792 2.527 0.99 1.151 1.765 2.881 1.765 5.773h2.341c0-3.352-0.916-5.654-2.332-7.3-1.384-1.609-3.157-2.476-4.598-3.131l-0.969 2.132zM15.515 5.568c-1.441 0.655-3.214 1.523-4.598 3.131-1.416 1.646-2.332 3.948-2.332 7.3h2.341c0-2.892 0.775-4.622 1.765-5.773 1.022-1.188 2.372-1.881 3.792-2.527l-0.969-2.132zM17.171 30.049v-17.171h-2.341v17.171h2.341z"></path>
</svg>
