<!-- Generated by IcoMoon.io -->
<svg version="1.1" xmlns="http://www.w3.org/2000/svg" width="32" height="32" viewBox="0 0 32 32">
<title>bottle</title>
<path fill="none" stroke-linejoin="round" stroke-linecap="round" stroke-miterlimit="4" stroke-width="2" stroke="#000" d="M14.361 24.195h8.194M14.361 12.722h8.194M22.555 12.722h1.639v-4.097M22.555 12.722v11.472M22.555 24.195h1.639v3.278M12.722 4.528h-0.819c-2.263 0-4.097 1.834-4.097 4.097v0M12.722 4.528h6.556M12.722 4.528v-3.278h6.556v3.278M12.722 4.528c-2.263 0-4.917 1.834-4.917 4.097M19.278 4.528h0.82c2.263 0 4.097 1.834 4.097 4.097v0M19.278 4.528c2.263 0 4.917 1.834 4.917 4.097M20.917 30.75h-9.833M20.917 30.75c1.81 0 3.278-1.467 3.278-3.278M20.917 30.75v0c1.81 0 3.278-1.467 3.278-3.278v0M11.083 30.75c-1.81 0-3.278-1.467-3.278-3.278M11.083 30.75v0c-1.81 0-3.278-1.467-3.278-3.278v0M7.806 27.472v-3.278h1.639v-11.472h-1.639v-4.097"></path>
</svg>
