<!-- Generated by IcoMoon.io -->
<svg version="1.1" xmlns="http://www.w3.org/2000/svg" width="32" height="32" viewBox="0 0 32 32">
<title>bycicle</title>
<path fill="none" stroke-linejoin="round" stroke-linecap="round" stroke-miterlimit="4" stroke-width="2" stroke="#000" d="M6.667 20.667h9.333M16 20.667l-4-9.333M16 20.667l5.939-9.333M12 11.333h9.939M12 11.333l-2.667 4.667M25.333 20.667l-3.394-9.333M21.939 11.333l-1.939-5.333h5.333v1.333M9.333 8.667h4M12 20.667c0 2.945-2.388 5.333-5.333 5.333s-5.333-2.388-5.333-5.333c0-2.945 2.388-5.333 5.333-5.333s5.333 2.388 5.333 5.333zM30.667 20.667c0 2.945-2.388 5.333-5.333 5.333s-5.333-2.388-5.333-5.333c0-2.945 2.388-5.333 5.333-5.333s5.333 2.388 5.333 5.333z"></path>
</svg>
