<!-- Generated by IcoMoon.io -->
<svg version="1.1" xmlns="http://www.w3.org/2000/svg" width="32" height="32" viewBox="0 0 32 32">
<title>calendar</title>
<path d="M9.125-1.596c-0.334 0.109-0.607 0.325-0.786 0.608l-0.004 0.006c-0.095 0.174-0.118 0.418-0.136 1.398l-0.021 1.188-1.193 0.046c-0.656 0.025-1.4 0.077-1.653 0.115-0.925 0.141-1.732 0.569-2.345 1.189l-0 0c-0.784 0.771-1.177 1.654-1.295 2.908-0.094 0.978-0.094 19.296 0 20.274 0.117 1.242 0.507 2.125 1.275 2.895 0.77 0.768 1.653 1.159 2.895 1.275 0.978 0.094 19.296 0.094 20.274 0 1.252-0.118 2.105-0.497 2.89-1.28 0.783-0.784 1.162-1.638 1.28-2.89 0.094-0.978 0.094-19.296 0-20.274-0.118-1.254-0.51-2.137-1.295-2.908-0.613-0.621-1.42-1.049-2.322-1.187l-0.023-0.003c-0.468-0.054-1.041-0.096-1.619-0.114l-0.034-0.001-1.193-0.046-0.021-1.188c-0.025-1.352-0.066-1.488-0.565-1.838-0.23-0.162-0.336-0.192-0.671-0.192s-0.441 0.030-0.671 0.192c-0.499 0.35-0.54 0.484-0.565 1.848l-0.021 1.198h-10.615l-0.021-1.198c-0.020-1.065-0.036-1.223-0.156-1.426-0.238-0.376-0.652-0.623-1.123-0.623-0.094 0-0.187 0.010-0.275 0.029l0.009-0.002zM26.24 4.187c0.821 0.13 1.441 0.752 1.572 1.572 0.038 0.235 0.069 0.878 0.069 1.428v1.001h-23.763v-1.001c0.002-1.295 0.075-1.764 0.348-2.168 0.284-0.423 0.771-0.752 1.228-0.827 0.524-0.085 20.008-0.090 20.546-0.005zM27.881 18.248c0 4.892-0.025 7.716-0.069 7.992-0.122 0.765-0.688 1.371-1.421 1.55l-0.013 0.003c-0.542 0.128-20.215 0.128-20.756 0-0.747-0.176-1.313-0.788-1.434-1.552-0.044-0.276-0.069-3.1-0.069-7.992v-7.565h23.763v7.565z"></path>
</svg>
