<!-- Generated by IcoMoon.io -->
<svg version="1.1" xmlns="http://www.w3.org/2000/svg" width="32" height="32" viewBox="0 0 32 32">
<title>change</title>
<path d="M29.538 16c0 0.68 0.551 1.231 1.231 1.231s1.231-0.551 1.231-1.231h-2.462zM5.744 1.231c0-0.68-0.551-1.231-1.231-1.231s-1.231 0.551-1.231 1.231h2.462zM11.077 9.026c0.68 0 1.231-0.551 1.231-1.231s-0.551-1.231-1.231-1.231v2.462zM2.462 16c0-0.68-0.551-1.231-1.231-1.231s-1.231 0.551-1.231 1.231h2.462zM26.256 30.769c0 0.68 0.551 1.231 1.231 1.231s1.231-0.551 1.231-1.231h-2.462zM20.923 22.974c-0.68 0-1.231 0.551-1.231 1.231s0.551 1.231 1.231 1.231v-2.462zM32 16c0-8.837-7.163-16-16-16v2.462c7.477 0 13.538 6.061 13.538 13.538h2.462zM16 0c-4.097 0-7.837 1.542-10.667 4.074l1.642 1.834c2.396-2.144 5.557-3.447 9.025-3.447v-2.462zM3.282 1.231v4.923h2.462v-4.923h-2.462zM6.154 9.026h4.923v-2.462h-4.923v2.462zM0 16c0 8.837 7.163 16 16 16v-2.462c-7.477 0-13.538-6.061-13.538-13.538h-2.462zM16 32c4.097 0 7.837-1.542 10.667-4.074l-1.642-1.834c-2.396 2.145-5.557 3.447-9.025 3.447v2.462zM28.718 30.769v-4.923h-2.462v4.923h2.462zM25.846 22.974h-4.923v2.462h4.923v-2.462zM5.534 7.411c2.485-3.024 6.25-4.95 10.466-4.95v-2.462c-4.983 0-9.435 2.28-12.368 5.849l1.902 1.563zM3.282 6.154c0 0.288 0.043 0.568 0.123 0.833l2.356-0.713c-0.011-0.036-0.017-0.076-0.017-0.12h-2.462zM3.405 6.987c0.357 1.179 1.451 2.039 2.749 2.039v-2.462c-0.183 0-0.342-0.121-0.393-0.291l-2.356 0.713zM26.466 24.588c-2.485 3.024-6.25 4.95-10.466 4.95v2.462c4.983 0 9.436-2.28 12.368-5.849l-1.902-1.563zM28.718 25.846c0-0.288-0.043-0.568-0.123-0.833l-2.356 0.713c0.011 0.036 0.017 0.076 0.017 0.12h2.462zM28.595 25.013c-0.357-1.179-1.451-2.039-2.749-2.039v2.462c0.183 0 0.342 0.121 0.393 0.291l2.356-0.713z"></path>
</svg>
