<!-- Generated by IcoMoon.io -->
<svg version="1.1" xmlns="http://www.w3.org/2000/svg" width="32" height="32" viewBox="0 0 32 32">
<title>chat</title>
<path d="M12.589 0.529c-4.465 0.314-8.585 3.056-10.651 7.088-0.974 1.902-1.418 3.752-1.423 5.932-0.005 2.177 0.286 3.495 1.296 5.857 0.248 0.581 0.272 0.684 0.274 1.178 0 0.532-0.010 0.57-0.625 2.195-0.616 1.628-0.625 1.66-0.597 2.101 0.048 0.739 0.498 1.404 1.149 1.697l0.333 0.151h6.208c5.676 0 6.27-0.010 6.933-0.115 4.651-0.737 8.399-3.639 10.225-7.911 1.356-3.177 1.356-7.003 0-10.18-1.415-3.294-4.037-5.844-7.295-7.131l-0.089-0.031c-1.713-0.668-3.775-0.968-5.736-0.831zM15.123 2.982c3.968 0.597 7.198 3.217 8.577 6.962 0.407 1.092 0.642 2.353 0.642 3.669s-0.235 2.577-0.666 3.744l0.024-0.075c-1.241 3.319-3.973 5.822-7.359 6.721l-0.075 0.017c-1.222 0.312-1.432 0.322-7.326 0.322h-5.533l0.468-1.229c0.544-1.434 0.632-1.85 0.584-2.777-0.040-0.762-0.148-1.16-0.611-2.241-0.667-1.555-0.891-2.539-0.942-4.13-0.027-0.858-0.011-1.278 0.070-1.824 0.268-1.834 0.955-3.47 1.961-4.859l-0.022 0.032c0.46-0.653 1.744-1.937 2.397-2.397 1.328-0.958 2.92-1.637 4.646-1.917l0.064-0.009c0.789-0.123 2.305-0.126 3.102-0.006zM29.996 16.441c-0.525 0.105-0.789 0.441-0.845 1.081-0.137 1.584-0.559 2.631-1.881 4.686-0.896 1.39-1.092 1.943-1.101 3.12-0.006 0.815 0.073 1.178 0.525 2.354 0.167 0.436 0.29 0.809 0.271 0.828-0.019 0.017-2.246 0.033-4.948 0.033h-4.913l-0.213 0.143c-0.333 0.224-0.462 0.501-0.462 0.995 0 0.527 0.14 0.845 0.455 1.041l0.232 0.145h5.507c5.178 0 5.521-0.006 5.752-0.115 0.4-0.188 0.834-0.641 1.028-1.074 0.279-0.621 0.224-0.998-0.374-2.577-0.438-1.157-0.485-1.327-0.485-1.733 0-0.559 0.162-1.020 0.579-1.639 1.453-2.16 2.174-3.871 2.345-5.564 0.092-0.92-0.035-1.348-0.479-1.6-0.226-0.127-0.678-0.183-0.992-0.123z"></path>
</svg>
