<!-- Generated by IcoMoon.io -->
<svg version="1.1" xmlns="http://www.w3.org/2000/svg" width="32" height="32" viewBox="0 0 32 32">
<title>check</title>
<path d="M29.676 4.866c-0.203 0.087-3.483 3.304-9.361 9.178l-9.046 9.044-4.359-4.348c-4.792-4.781-4.69-4.698-5.485-4.46-0.487 0.145-1.191 0.849-1.336 1.336-0.241 0.807-0.4 0.617 5.264 6.283 4.482 4.48 5.203 5.168 5.534 5.264 0.845 0.246 0.172 0.856 10.954-9.911 5.561-5.554 9.888-9.944 9.987-10.132 0.092-0.177 0.153-0.383 0.172-0.602l0-0.006c0-0.576-0.617-1.376-1.271-1.649-0.152-0.080-0.333-0.127-0.524-0.127-0.193 0-0.375 0.048-0.535 0.132l0.006-0.003z"></path>
</svg>
