<!-- Generated by IcoMoon.io -->
<svg version="1.1" xmlns="http://www.w3.org/2000/svg" width="32" height="32" viewBox="0 0 32 32">
<title>chefs-hat</title>
<path d="M15.184 0.293c-2.105 0.16-4.198 1.135-5.745 2.68-1.324 1.321-2.273 3.139-2.578 4.94l-0.081 0.478-0.734 0.181c-1.472 0.382-2.732 1.148-3.706 2.185l-0.004 0.004c-0.546 0.555-0.996 1.205-1.324 1.924l-0.017 0.042c-0.886 1.854-0.972 4.148-0.226 6.042 0.959 2.383 2.997 4.154 5.492 4.724l0.052 0.010 0.367 0.079 0.021 2.497 0.021 2.496 0.17 0.356c0.213 0.453 0.574 0.813 1.026 1.026l0.356 0.17h15.453l0.356-0.17c0.453-0.213 0.813-0.574 1.026-1.026l0.17-0.356 0.021-2.496 0.021-2.497 0.367-0.079c2.86-0.649 5.088-2.812 5.82-5.582l0.012-0.054c0.42-1.637 0.225-3.595-0.514-5.14-0.345-0.76-0.796-1.411-1.343-1.966l0.001 0.001c-0.978-1.042-2.238-1.808-3.658-2.178l-0.053-0.012-0.737-0.181-0.079-0.477c-0.16-0.908-0.436-1.72-0.815-2.47l0.023 0.050c-0.903-1.873-2.373-3.352-4.185-4.244l-0.053-0.024c-1.568-0.774-3.123-1.069-4.922-0.933zM17.692 2.863c1.204 0.322 2.292 0.954 3.188 1.854 1.096 1.099 1.671 2.276 1.945 3.976 0.118 0.732 0.268 1.070 0.648 1.45 0.377 0.375 0.703 0.524 1.506 0.685 1.193 0.239 2.061 0.697 2.83 1.494 1.031 1.067 1.51 2.232 1.51 3.677 0 1.505-0.457 2.591-1.552 3.685-1.211 1.211-2.13 1.549-4.225 1.555-0.047-0.001-0.103-0.001-0.158-0.001-0.434 0-0.863 0.021-1.286 0.062l0.054-0.004c-0.587 0.113-0.87 0.493-0.87 1.169 0 0.766 0.335 1.123 1.123 1.201l0.448 0.044v3.993h-13.707v-3.993l0.448-0.044c0.789-0.078 1.123-0.435 1.123-1.201 0-0.676-0.283-1.056-0.87-1.169-0.369-0.037-0.798-0.058-1.232-0.058-0.056 0-0.111 0-0.167 0.001l0.008-0c-2.095-0.006-3.015-0.344-4.225-1.555-1.102-1.102-1.552-2.179-1.552-3.719 0-1.416 0.482-2.58 1.51-3.643 0.769-0.797 1.637-1.254 2.83-1.494 0.803-0.162 1.13-0.31 1.506-0.685 0.38-0.38 0.53-0.718 0.648-1.45 0.27-1.681 0.844-2.864 1.911-3.946 1.025-1.038 2.268-1.717 3.614-1.97 0.714-0.136 2.334-0.089 2.992 0.086z"></path>
</svg>
