<!-- Generated by IcoMoon.io -->
<svg version="1.1" xmlns="http://www.w3.org/2000/svg" width="32" height="32" viewBox="0 0 32 32">
<title>chevron-up</title>
<path d="M15.117 7.18c-0.212 0.127-3.62 3.468-7.573 7.421-7.907 7.912-7.739 7.717-7.443 8.696 0.146 0.494 0.872 1.346 1.349 1.595 0.403 0.21 1.126 0.199 1.562-0.022 0.193-0.097 3.195-3.013 6.671-6.481l6.318-6.301 6.318 6.301c3.476 3.468 6.478 6.384 6.671 6.481 0.436 0.221 1.159 0.232 1.561 0.022 0.477-0.248 1.203-1.101 1.349-1.595 0.295-0.979 0.463-0.784-7.443-8.696-3.953-3.953-7.361-7.294-7.573-7.421-0.255-0.142-0.559-0.226-0.883-0.226s-0.628 0.084-0.892 0.231l0.009-0.005z"></path>
</svg>
