<!-- Generated by IcoMoon.io -->
<svg version="1.1" xmlns="http://www.w3.org/2000/svg" width="32" height="32" viewBox="0 0 32 32">
<title>chevron-down</title>
<path d="M1.379 7.155c-0.519 0.317-1.134 1.062-1.28 1.55-0.292 0.977-0.455 0.783 7.446 8.693 3.953 3.953 7.36 7.294 7.573 7.421 0.255 0.142 0.559 0.226 0.883 0.226s0.628-0.084 0.892-0.231l-0.009 0.005c0.212-0.127 3.619-3.468 7.573-7.421 7.907-7.912 7.738-7.716 7.443-8.696-0.146-0.494-0.872-1.346-1.349-1.595-0.403-0.21-1.126-0.199-1.561 0.022-0.193 0.097-3.195 3.013-6.671 6.48l-6.318 6.301-6.318-6.301c-3.476-3.468-6.478-6.384-6.671-6.48-0.472-0.237-1.222-0.226-1.633 0.025z"></path>
</svg>
