<!-- Generated by IcoMoon.io -->
<svg version="1.1" xmlns="http://www.w3.org/2000/svg" width="32" height="32" viewBox="0 0 32 32">
<title>chevron-left</title>
<path d="M22.18 0.227c-0.381 0.171-2.16 1.887-7.634 7.364-3.923 3.926-7.239 7.314-7.364 7.527-0.143 0.255-0.228 0.56-0.228 0.885 0 0.323 0.083 0.626 0.23 0.89l-0.005-0.009c0.127 0.212 3.468 3.62 7.422 7.573 7.913 7.907 7.717 7.739 8.696 7.444 0.494-0.146 1.346-0.872 1.595-1.349 0.21-0.403 0.199-1.126-0.022-1.562-0.097-0.193-3.013-3.198-6.481-6.671l-6.302-6.318 6.302-6.318c3.468-3.476 6.384-6.478 6.481-6.671 0.221-0.436 0.232-1.159 0.022-1.556-0.356-0.679-1.443-1.462-2.020-1.454-0.26 0.046-0.492 0.125-0.707 0.233l0.015-0.007z"></path>
</svg>
