<!-- Generated by IcoMoon.io -->
<svg version="1.1" xmlns="http://www.w3.org/2000/svg" width="32" height="32" viewBox="0 0 32 32">
<title>close</title>
<path d="M1.426 0.057c-1.125 0.395-1.714 1.532-1.26 2.437 0.085 0.173 3.121 3.281 6.742 6.91l6.584 6.596-6.584 6.596c-3.622 3.629-6.66 6.742-6.749 6.92-0.364 0.728-0.024 1.676 0.785 2.189 0.249 0.173 0.558 0.276 0.89 0.276 0.244 0 0.475-0.056 0.682-0.155l-0.009 0.004c0.166-0.083 3.27-3.116 6.898-6.738l6.596-6.584 6.596 6.584c3.629 3.622 6.733 6.655 6.898 6.738 1.338 0.669 3.005-0.998 2.336-2.336-0.083-0.166-3.116-3.27-6.738-6.898l-6.584-6.596 6.584-6.596c3.622-3.629 6.655-6.733 6.738-6.898 0.381-0.761 0.009-1.756-0.842-2.255-0.513-0.3-0.995-0.331-1.468-0.092-0.182 0.090-3.295 3.128-6.924 6.749l-6.596 6.584-6.596-6.584c-3.629-3.622-6.723-6.648-6.879-6.723-0.456-0.222-0.735-0.255-1.099-0.128z"></path>
</svg>
