<!-- Generated by IcoMoon.io -->
<svg version="1.1" xmlns="http://www.w3.org/2000/svg" width="32" height="32" viewBox="0 0 32 32">
<title>copy</title>
<path fill="none" stroke-linejoin="miter" stroke-linecap="butt" stroke-miterlimit="4" stroke-width="2" stroke="#000" d="M23.080 24.85c1.652 0 2.478 0 3.109-0.322 0.555-0.283 1.006-0.734 1.289-1.289 0.322-0.631 0.322-1.457 0.322-3.109v-14.16c0-1.652 0-2.478-0.322-3.109-0.283-0.555-0.734-1.006-1.289-1.289-0.631-0.322-1.457-0.322-3.109-0.322h-8.26c-1.652 0-2.478 0-3.109 0.322-0.555 0.283-1.006 0.734-1.289 1.289-0.322 0.631-0.322 1.457-0.322 3.109M8.92 30.75h8.26c1.652 0 2.478 0 3.109-0.322 0.555-0.283 1.006-0.734 1.289-1.289 0.322-0.631 0.322-1.457 0.322-3.109v-14.16c0-1.652 0-2.478-0.322-3.109-0.283-0.555-0.734-1.006-1.289-1.289-0.631-0.322-1.457-0.322-3.109-0.322h-8.26c-1.652 0-2.478 0-3.109 0.322-0.555 0.283-1.006 0.734-1.289 1.289-0.322 0.631-0.322 1.457-0.322 3.109v14.16c0 1.652 0 2.478 0.322 3.109 0.283 0.555 0.734 1.006 1.289 1.289 0.631 0.322 1.457 0.322 3.109 0.322z"></path>
</svg>
