<!-- Generated by IcoMoon.io -->
<svg version="1.1" xmlns="http://www.w3.org/2000/svg" width="32" height="32" viewBox="0 0 32 32">
<title>court</title>
<path d="M28.45 25.976v0zM28.118 24.648v0zM3.883 24.648v0zM3.551 25.976v0zM5.039 22.767v0zM4.353 23.302v0zM27.648 23.302v0zM26.963 22.767v0zM28.009 29.034v0zM28.735 28.105v0zM3.992 29.034v0zM3.267 28.105v0zM14.813 1.661v0zM5.101 6.517v0zM3.914 10.079v0zM4.203 10.656v0zM27.799 10.656v0zM28.087 10.079v0zM26.9 6.517v0zM17.188 1.661v0zM28.708 8.433v0zM28.384 7.461v0zM3.618 7.461v0zM3.294 8.433v0zM27.494 11v0zM27.649 10.904v0zM4.507 11v0zM4.352 10.904v0zM15.695 1.291v0zM16.307 1.291v0zM6.46 20.978c0 0.687 0.557 1.244 1.244 1.244s1.244-0.557 1.244-1.244h-2.489zM8.949 11.023c0-0.687-0.557-1.244-1.244-1.244s-1.244 0.557-1.244 1.244h2.489zM14.756 20.978c0 0.687 0.557 1.244 1.244 1.244s1.244-0.557 1.244-1.244h-2.489zM17.245 12.682c0-0.687-0.557-1.244-1.244-1.244s-1.244 0.557-1.244 1.244h2.489zM23.053 20.978c0 0.687 0.557 1.244 1.244 1.244s1.244-0.557 1.244-1.244h-2.489zM25.541 12.682c0-0.687-0.557-1.244-1.244-1.244s-1.244 0.557-1.244 1.244h2.489zM6.127 30.519h19.747v-2.489h-19.747v2.489zM29.657 25.674l-0.332-1.327-2.415 0.604 0.332 1.327 2.415-0.604zM25.543 21.393h-19.084v2.489h19.084v-2.489zM2.676 24.346l-0.332 1.327 2.414 0.604 0.332-1.327-2.414-0.604zM6.459 21.393c-0.626 0-1.306-0.024-1.902 0.227l0.964 2.295c-0.019 0.008 0.003-0.008 0.155-0.019 0.169-0.012 0.394-0.013 0.783-0.013v-2.489zM5.091 24.95c0.094-0.377 0.15-0.596 0.202-0.756 0.048-0.146 0.069-0.162 0.057-0.146l-1.992-1.492c-0.388 0.518-0.529 1.183-0.681 1.79l2.414 0.604zM4.557 21.619c-0.476 0.2-0.89 0.523-1.2 0.937l1.992 1.492c0.044-0.059 0.103-0.105 0.171-0.134l-0.964-2.295zM29.326 24.346c-0.152-0.607-0.294-1.273-0.681-1.79l-1.992 1.492c-0.012-0.016 0.009 0 0.057 0.146 0.053 0.161 0.108 0.379 0.202 0.756l2.415-0.604zM25.543 23.881c0.388 0 0.614 0.001 0.783 0.013 0.153 0.011 0.174 0.027 0.155 0.019l0.964-2.295c-0.596-0.25-1.276-0.227-1.902-0.227v2.489zM28.644 22.556c-0.309-0.413-0.724-0.737-1.2-0.937l-0.964 2.295c0.068 0.029 0.127 0.075 0.171 0.134l1.992-1.492zM25.874 30.519c0.557 0 1.056 0.001 1.463-0.035 0.416-0.037 0.881-0.121 1.317-0.385l-1.29-2.129c0.039-0.024 0.016 0.012-0.246 0.035-0.272 0.024-0.641 0.025-1.244 0.025v2.489zM27.243 26.277c0.146 0.584 0.235 0.943 0.277 1.213 0.041 0.26 0.012 0.291 0.026 0.247l2.378 0.735c0.15-0.487 0.12-0.958 0.054-1.371-0.064-0.404-0.186-0.888-0.321-1.428l-2.415 0.604zM28.654 30.098c0.608-0.368 1.060-0.947 1.27-1.626l-2.378-0.735c-0.030 0.097-0.094 0.18-0.181 0.232l1.29 2.129zM6.127 28.030c-0.602 0-0.972-0.001-1.244-0.025-0.262-0.023-0.286-0.059-0.246-0.035l-1.29 2.129c0.436 0.264 0.9 0.349 1.317 0.385 0.407 0.036 0.906 0.035 1.463 0.035v-2.489zM2.344 25.674c-0.135 0.54-0.257 1.024-0.321 1.428-0.065 0.413-0.096 0.884 0.055 1.371l2.378-0.735c0.014 0.044-0.015 0.013 0.026-0.247 0.043-0.27 0.131-0.628 0.277-1.213l-2.414-0.604zM4.637 27.97c-0.087-0.053-0.151-0.135-0.181-0.232l-2.378 0.735c0.21 0.679 0.662 1.258 1.27 1.626l1.29-2.129zM4.796 12.267h22.409v-2.489h-22.409v2.489zM14.257 0.548l-9.712 4.856 1.113 2.226 9.712-4.856-1.113-2.226zM2.801 10.635l0.289 0.577 2.226-1.113-0.289-0.577-2.226 1.113zM28.912 11.212l0.289-0.577-2.226-1.113-0.289 0.577 2.226 1.113zM27.457 5.404l-9.712-4.856-1.113 2.226 9.712 4.856 1.113-2.226zM29.2 10.635c0.199-0.397 0.382-0.762 0.509-1.077 0.132-0.329 0.246-0.705 0.243-1.134l-2.489 0.019c-0-0.031 0.011 0.001-0.063 0.187-0.080 0.199-0.209 0.458-0.426 0.892l2.226 1.113zM26.344 7.63c0.434 0.217 0.692 0.347 0.876 0.459 0.171 0.104 0.181 0.136 0.163 0.111l2.002-1.478c-0.255-0.345-0.571-0.577-0.875-0.761-0.291-0.176-0.656-0.358-1.053-0.557l-1.113 2.226zM29.952 8.424c-0.005-0.613-0.203-1.209-0.568-1.702l-2.002 1.478c0.052 0.070 0.080 0.156 0.081 0.243l2.489-0.019zM4.545 5.404c-0.397 0.199-0.762 0.38-1.053 0.557-0.303 0.184-0.62 0.416-0.875 0.761l2.002 1.478c-0.018 0.025-0.009-0.007 0.163-0.111 0.184-0.112 0.442-0.242 0.876-0.459l-1.113-2.226zM5.027 9.522c-0.217-0.434-0.345-0.693-0.426-0.892-0.075-0.186-0.063-0.217-0.064-0.187l-2.489-0.019c-0.003 0.429 0.111 0.805 0.243 1.134 0.127 0.316 0.31 0.68 0.509 1.077l2.226-1.113zM2.617 6.721c-0.364 0.493-0.563 1.089-0.567 1.702l2.489 0.019c0.001-0.088 0.029-0.173 0.081-0.243l-2.002-1.478zM27.205 12.267c0.059 0 0.385 0.016 0.695-0.091l-0.811-2.353c0.112-0.039 0.198-0.045 0.215-0.046 0.007-0 0.005-0-0.015 0s-0.044 0-0.084 0v2.489zM26.686 10.099c-0.018 0.035-0.029 0.057-0.038 0.075s-0.010 0.019-0.007 0.013c0.009-0.015 0.053-0.089 0.137-0.172l1.741 1.778c0.234-0.229 0.366-0.528 0.392-0.581l-2.226-1.113zM27.9 12.176c0.233-0.080 0.444-0.211 0.62-0.383l-1.741-1.778c0.088-0.086 0.194-0.152 0.31-0.192l0.811 2.353zM4.796 9.778c-0.039 0-0.064 0-0.083-0s-0.022-0.001-0.015-0c0.017 0.001 0.103 0.007 0.215 0.046l-0.811 2.353c0.31 0.107 0.636 0.091 0.695 0.091v-2.489zM3.090 11.212c0.026 0.052 0.158 0.351 0.392 0.581l1.741-1.778c0.084 0.083 0.129 0.157 0.137 0.172 0.003 0.006 0.002 0.004-0.007-0.013s-0.020-0.039-0.038-0.075l-2.226 1.113zM4.913 9.823c0.116 0.040 0.222 0.106 0.31 0.192l-1.741 1.778c0.176 0.172 0.388 0.303 0.62 0.383l0.811-2.353zM15.37 2.774c0.229-0.115 0.358-0.179 0.458-0.222 0.088-0.038 0.106-0.039 0.096-0.037l-0.459-2.446c-0.44 0.083-0.838 0.294-1.208 0.479l1.113 2.226zM17.745 0.548c-0.371-0.185-0.769-0.397-1.208-0.479l-0.459 2.446c-0.010-0.002 0.008-0.001 0.096 0.037 0.1 0.043 0.229 0.108 0.458 0.222l1.113-2.226zM15.924 2.514c0.050-0.010 0.102-0.010 0.153 0l0.459-2.446c-0.354-0.066-0.717-0.066-1.071 0l0.459 2.446zM8.949 20.978v-9.955h-2.489v9.955h2.489zM17.245 20.978v-8.296h-2.489v8.296h2.489zM25.541 20.978v-8.296h-2.489v8.296h2.489z"></path>
</svg>
