<!-- Generated by IcoMoon.io -->
<svg version="1.1" xmlns="http://www.w3.org/2000/svg" width="32" height="32" viewBox="0 0 32 32">
<title>edit</title>
<path d="M2.518 25.577v0zM3.964 21.241v0zM5.455 18.828v0zM19.857 4.425v0zM27.574 12.142v0zM13.171 26.544v0zM10.758 28.035v0zM6.423 29.481v0zM12.38 27.282v0zM11.773 27.658v0zM29.433 6.57v0zM29.433 9.997v0zM22.002 2.566v0zM25.429 2.566v0zM4.341 20.227v0zM4.717 19.619v0zM1.799 29.031v0zM2.968 30.2v0zM18.951 5.331c-0.565-0.565-1.481-0.565-2.046 0s-0.565 1.481 0 2.046l2.046-2.046zM24.622 15.094c0.565 0.565 1.481 0.565 2.046 0s0.565-1.481 0-2.046l-2.046 2.046zM3.891 26.034l1.445-4.336-2.745-0.915-1.445 4.336 2.745 0.915zM6.478 19.851l14.402-14.402-2.046-2.046-14.402 14.403 2.046 2.046zM26.551 11.119l-14.402 14.403 2.046 2.046 14.402-14.402-2.046-2.046zM10.301 26.663l-4.336 1.445 0.915 2.745 4.336-1.445-0.915-2.745zM12.148 25.521c-0.412 0.412-0.524 0.519-0.639 0.606l1.743 2.31c0.313-0.236 0.586-0.513 0.943-0.87l-2.046-2.046zM11.216 29.408c0.479-0.16 0.848-0.279 1.2-0.454l-1.287-2.592c-0.13 0.064-0.276 0.117-0.828 0.301l0.915 2.745zM11.509 26.127c-0.119 0.090-0.246 0.168-0.38 0.235l1.287 2.592c0.294-0.146 0.574-0.319 0.836-0.517l-1.743-2.31zM26.551 5.448c1.134 1.134 1.436 1.464 1.586 1.764l2.593-1.285c-0.413-0.834-1.163-1.557-2.132-2.526l-2.046 2.046zM28.597 13.165c0.969-0.969 1.719-1.692 2.132-2.526l-2.593-1.285c-0.149 0.301-0.451 0.63-1.586 1.764l2.046 2.046zM28.137 7.213c0.334 0.675 0.334 1.467 0 2.141l2.593 1.285c0.735-1.484 0.735-3.227 0-4.711l-2.593 1.285zM20.88 5.448c1.134-1.134 1.463-1.436 1.764-1.586l-1.285-2.593c-0.834 0.413-1.556 1.163-2.526 2.132l2.046 2.046zM28.597 3.402c-0.969-0.969-1.692-1.719-2.526-2.132l-1.285 2.593c0.301 0.149 0.63 0.451 1.764 1.586l2.046-2.046zM22.645 3.863c0.675-0.334 1.467-0.334 2.142 0l1.285-2.593c-1.484-0.736-3.227-0.736-4.711 0l1.285 2.593zM5.336 21.698c0.184-0.552 0.236-0.699 0.301-0.828l-2.592-1.287c-0.175 0.352-0.294 0.721-0.454 1.2l2.745 0.915zM4.432 17.805c-0.357 0.357-0.634 0.629-0.87 0.943l2.31 1.743c0.087-0.116 0.195-0.228 0.606-0.639l-2.046-2.046zM5.637 20.87c0.066-0.134 0.145-0.261 0.235-0.38l-2.31-1.743c-0.198 0.262-0.371 0.542-0.516 0.836l2.592 1.287zM1.146 25.119c-0.305 0.915-0.567 1.696-0.715 2.325-0.143 0.608-0.253 1.347 0.006 2.072l2.726-0.972c0.035 0.098-0.030 0.053 0.086-0.438 0.11-0.47 0.32-1.102 0.643-2.072l-2.745-0.915zM5.965 28.108c-0.97 0.323-1.602 0.533-2.072 0.643-0.491 0.116-0.537 0.051-0.438 0.086l-0.972 2.725c0.725 0.259 1.464 0.148 2.072 0.006 0.629-0.148 1.41-0.41 2.325-0.715l-0.915-2.745zM0.437 29.517c0.34 0.954 1.091 1.706 2.046 2.046l0.972-2.725c-0.136-0.049-0.244-0.156-0.292-0.292l-2.726 0.972zM16.905 7.377l7.716 7.716 2.046-2.046-7.716-7.716-2.046 2.046z"></path>
</svg>
