<!-- Generated by IcoMoon.io -->
<svg version="1.1" xmlns="http://www.w3.org/2000/svg" width="32" height="32" viewBox="0 0 32 32">
<title>filter</title>
<path d="M25.872 0.084c-0.202 0.039-0.681 0.22-1.064 0.406-0.585 0.283-0.798 0.439-1.33 0.969-0.552 0.552-0.681 0.732-1.013 1.422l-0.38 0.789h-10.62c-9.965 0-10.635 0.007-10.872 0.128-0.451 0.229-0.556 0.457-0.556 1.193s0.105 0.963 0.556 1.193c0.237 0.121 0.906 0.128 10.872 0.128h10.62l0.38 0.789c0.332 0.69 0.461 0.87 1.013 1.422 0.532 0.532 0.743 0.684 1.33 0.967 0.789 0.38 1.29 0.492 2.202 0.492s1.413-0.112 2.202-0.492c0.587-0.283 0.796-0.435 1.33-0.967 0.532-0.534 0.684-0.743 0.967-1.33 0.38-0.789 0.492-1.29 0.492-2.202s-0.112-1.413-0.492-2.202c-0.283-0.587-0.435-0.796-0.967-1.33-0.534-0.532-0.743-0.684-1.33-0.967-0.323-0.163-0.7-0.304-1.093-0.404l-0.039-0.008c-0.325-0.043-0.701-0.068-1.082-0.068-0.397 0-0.787 0.027-1.17 0.079l0.045-0.005zM28.013 2.943c1.15 0.549 1.618 1.897 1.057 3.040-0.36 0.771-1.129 1.296-2.021 1.296-0.014 0-0.028-0-0.042-0l0.002 0c-0.908 0-1.653-0.468-2.061-1.295-0.149-0.293-0.236-0.64-0.236-1.006 0-0.859 0.478-1.606 1.182-1.991l0.012-0.006c0.69-0.374 1.371-0.387 2.106-0.037zM3.853 11.094c-0.202 0.039-0.681 0.22-1.064 0.405-0.585 0.283-0.798 0.439-1.33 0.969-0.532 0.534-0.684 0.743-0.967 1.33-0.38 0.789-0.492 1.29-0.492 2.202s0.112 1.413 0.492 2.202c0.283 0.587 0.435 0.796 0.967 1.33 0.534 0.532 0.743 0.684 1.33 0.967 0.789 0.38 1.29 0.492 2.202 0.492s1.413-0.112 2.202-0.492c0.587-0.283 0.798-0.435 1.33-0.967 0.552-0.552 0.681-0.732 1.013-1.422l0.38-0.789h10.62c9.965 0 10.635-0.007 10.872-0.128 0.451-0.229 0.556-0.457 0.556-1.193s-0.105-0.963-0.556-1.193c-0.237-0.121-0.906-0.128-10.872-0.128h-10.62l-0.38-0.789c-0.332-0.69-0.461-0.87-1.013-1.422-0.532-0.532-0.743-0.684-1.33-0.967-0.323-0.163-0.7-0.304-1.093-0.404l-0.039-0.008c-0.325-0.043-0.701-0.068-1.082-0.068-0.397 0-0.787 0.027-1.17 0.079l0.045-0.005zM5.995 13.952c1.15 0.549 1.618 1.897 1.057 3.040-0.688 1.396-2.442 1.736-3.622 0.701-0.196-0.201-0.363-0.432-0.492-0.685l-0.007-0.016c-0.149-0.294-0.236-0.64-0.236-1.006 0-0.859 0.478-1.606 1.182-1.991l0.012-0.006c0.69-0.374 1.371-0.387 2.106-0.037zM25.872 22.103c-0.202 0.039-0.681 0.22-1.064 0.405-0.585 0.283-0.798 0.439-1.33 0.969-0.552 0.552-0.681 0.732-1.013 1.422l-0.38 0.789h-10.62c-9.965 0-10.635 0.007-10.872 0.128-0.451 0.229-0.556 0.457-0.556 1.193s0.105 0.963 0.556 1.193c0.237 0.121 0.906 0.128 10.872 0.128h10.62l0.38 0.789c0.332 0.69 0.461 0.87 1.013 1.422 0.532 0.532 0.743 0.684 1.33 0.967 0.789 0.38 1.29 0.492 2.202 0.492s1.413-0.112 2.202-0.492c0.587-0.283 0.796-0.435 1.33-0.967 0.532-0.534 0.684-0.743 0.967-1.33 0.38-0.789 0.492-1.29 0.492-2.202s-0.112-1.413-0.492-2.202c-0.283-0.587-0.435-0.796-0.967-1.33-0.534-0.532-0.743-0.684-1.33-0.967-0.323-0.163-0.7-0.304-1.093-0.404l-0.039-0.008c-0.325-0.043-0.701-0.068-1.082-0.068-0.397 0-0.787 0.027-1.17 0.079l0.045-0.005zM28.013 24.961c1.15 0.549 1.618 1.897 1.057 3.040-0.688 1.396-2.442 1.736-3.622 0.701-0.196-0.201-0.363-0.432-0.492-0.685l-0.007-0.016c-0.149-0.294-0.236-0.64-0.236-1.006 0-0.859 0.478-1.606 1.182-1.991l0.012-0.006c0.69-0.374 1.371-0.387 2.106-0.037z"></path>
</svg>
