<!-- Generated by IcoMoon.io -->
<svg version="1.1" xmlns="http://www.w3.org/2000/svg" width="32" height="32" viewBox="0 0 32 32">
<title>fish</title>
<path fill="none" stroke-linejoin="miter" stroke-linecap="round" stroke-miterlimit="4" stroke-width="2" stroke="#000" d="M5.98 16c0 1.67 5.607 6.68 12.525 6.68s12.525-5.010 12.525-6.68-5.607-6.68-12.525-6.68c-6.917 0-12.525 5.010-12.525 6.68zM5.98 16c0-2.8-2.348-5.405-4.091-6.337-0.455-0.243-0.919 0.127-0.919 0.643v11.388c0 0.516 0.464 0.887 0.919 0.643 1.743-0.933 4.091-3.537 4.091-6.337zM17.67 22.68c-1.406 3.375-4.885 4.619-7.195 4.927-0.565 0.076-0.968-0.475-0.788-1.016l1.304-3.911M17.67 9.32c-1.406-3.375-4.885-4.619-7.195-4.927-0.565-0.075-0.968 0.476-0.788 1.016l1.304 3.911"></path>
</svg>
