<!-- Generated by IcoMoon.io -->
<svg version="1.1" xmlns="http://www.w3.org/2000/svg" width="5" height="32" viewBox="0 0 5 32">
<title>girl-after-before-1</title>
<path opacity="0.1" fill="#000" d="M2.169 0.488c-0.047 0-0.117-0.023-0.164 0-0.327 0.116-0.584 0.069-0.771-0.277-0.164-0.301-0.678-0.254-0.911-0.023-0.257 0.254-0.257 0.74 0.023 0.971 0.164 0.116 0.164 0.208 0.093 0.37-0.304 0.67-0.093 1.272 0.304 1.85 0.117 0.185 0.257 0.37 0.444 0.486 0.421 0.254 0.467 0.624 0.351 1.040-0.093 0.347-0.234 0.67-0.444 0.948-0.771 1.087-0.935 2.266-0.561 3.537 0.21 0.717 0.491 1.387 0.561 2.15 0.093 1.087 0.117 2.173-0.514 3.144-0.093 0.139-0.14 0.301-0.234 0.439-0.584 1.040-0.397 1.988 0.327 2.89 0.187 0.254 0.234 0.509 0.21 0.809-0.117 1.318-0.070 2.636 0.35 3.907 0.164 0.532 0.093 1.017-0.093 1.456-0.327 0.763-0.327 1.549-0.28 2.335 0.047 0.925 0.351 1.803 0.584 2.682 0.187 0.67 0.093 1.272-0.14 1.896-0.023 0.069-0.047 0.139-0.070 0.208-0.164 0.462 0 0.694 0.491 0.694 0.047 0 0.117 0 0.164-0.023 0.514-0.254 1.052-0.092 1.566-0.023 0.467 0.069 0.935 0.046 1.402 0.023 0.164 0 0.327-0.046 0.351-0.254 0-0.185-0.164-0.277-0.327-0.301-0.374-0.046-0.724-0.162-1.075-0.277-0.631-0.208-0.958-0.624-1.005-1.295-0.093-1.364-0.023-2.705 0.14-4.069 0.023-0.185 0.023-0.37 0.023-0.555 0-0.254 0.047-0.509 0.21-0.74 0.257-0.347 0.28-0.74 0.14-1.133-0.070-0.208-0.047-0.416 0.047-0.624 0.491-1.364 0.795-2.774 0.818-4.231 0-0.347 0-0.717-0.093-1.040-0.21-0.786-0.070-1.572-0.164-2.381-0.047-0.532-0.14-1.040-0.21-1.572-0.070-0.509-0.093-1.017 0.047-1.503 0.117-0.37 0.164-0.74 0.14-1.133-0.023-0.231 0.047-0.347 0.327-0.347 0.514-0.023 0.841-0.277 0.935-0.694 0.047-0.185 0.023-0.347-0.093-0.509-0.491-0.624-0.865-1.295-1.309-1.942-0.187-0.277-0.374-0.532-0.631-0.74-0.514-0.462-0.374-1.040-0.14-1.526 0.070-0.162 0.257-0.208 0.444-0.162s0.397 0.046 0.584 0c0.117-0.023 0.21-0.092 0.187-0.208-0.093-0.347 0.28-0.647 0.14-1.017 0-0.023 0-0.069 0.023-0.069 0.374-0.208 0.117-0.416-0.023-0.601-0.164-0.231-0.304-0.439-0.21-0.74 0.023-0.139 0-0.254-0.047-0.37-0.14-0.37-0.187-0.763-0.467-1.040-0.187-0.231-1.028-0.416-1.449-0.416z"></path>
</svg>
