<!-- Generated by IcoMoon.io -->
<svg version="1.1" xmlns="http://www.w3.org/2000/svg" width="10" height="32" viewBox="0 0 10 32">
<title>girl-after-before-0</title>
<path opacity="0.1" fill="#000" d="M7.138 32c0.258-0.139 0.282-0.231 0.117-0.462-0.070-0.092-0.117-0.162-0.188-0.231-0.352-0.393-0.423-0.832-0.352-1.318 0.164-1.248 0.399-2.474 0.634-3.723 0.188-0.971 0.164-1.942-0.070-2.913-0.164-0.671-0.047-1.318 0.070-1.988 0.164-1.064 0.493-2.081 0.704-3.145 0.282-1.341 0.094-2.636-0.587-3.861-0.305-0.555-0.657-1.133-0.657-1.78 0-1.040 0.023-2.081 0.563-3.052 0.023 0.277 0.070 0.532 0.094 0.809s0.094 0.555 0.070 0.832c-0.094 1.225 0.329 2.358 0.728 3.468 0.141 0.393 0.282 0.763 0.352 1.156 0.094 0.439 0.047 0.855-0.188 1.249-0.164 0.254-0.188 0.509-0.117 0.809 0.047 0.208 0.094 0.416 0.141 0.624 0.023 0.092 0.047 0.208 0.188 0.208 0.117-0.023 0.141-0.139 0.141-0.231 0-0.162-0.070-0.324-0.023-0.486 0.211 0.347 0.164 0.647-0.117 0.994-0.070 0.093-0.282 0.208-0.164 0.347 0.117 0.116 0.305 0.069 0.47-0.023 0.258-0.139 0.446-0.37 0.54-0.647 0.117-0.416 0.211-0.855 0.141-1.295-0.164-0.994-0.141-2.012-0.258-3.006-0.094-0.971-0.188-1.919-0.352-2.89-0.188-1.11-0.376-2.197-0.423-3.329 0-0.116 0-0.231 0-0.37 0.070-0.74-0.305-1.272-1.033-1.434-0.493-0.116-0.963-0.277-1.432-0.486-0.305-0.139-0.54-0.509-0.493-0.832 0-0.046 0.023-0.092 0.047-0.116 0.399-0.347 0.47-0.925 0.892-1.272 0.141-0.116 0.117-0.347 0.141-0.532 0.047-0.185 0.023-0.347-0.164-0.462-0.070-0.046-0.047-0.162-0.047-0.231-0.094-0.647-0.235-1.272-0.892-1.642-0.117-0.069-0.117-0.185-0.164-0.277-0.117-0.301-0.305-0.439-0.61-0.462-0.305 0-0.517 0.139-0.61 0.462-0.047 0.162-0.141 0.254-0.282 0.347-0.563 0.347-0.704 0.925-0.775 1.526-0.023 0.139 0 0.277-0.164 0.347-0.070 0.046-0.094 0.139-0.094 0.231 0.070 0.301 0.023 0.624 0.352 0.832 0.070 0.046 0.117 0.162 0.164 0.254 0.117 0.231 0.235 0.439 0.376 0.647 0.352 0.439 0.188 0.948-0.329 1.156-0.47 0.185-0.916 0.37-1.409 0.462-0.657 0.139-1.033 0.578-1.033 1.249 0.023 1.341-0.211 2.682-0.446 4-0.258 1.48-0.352 2.983-0.446 4.486-0.023 0.37 0 0.74-0.141 1.087 0 0.301 0 0.601 0 0.879 0.047 0.162 0.070 0.324 0.117 0.486 0.094 0.37 0.305 0.647 0.657 0.786 0.117 0.046 0.305 0.116 0.399 0s-0.070-0.208-0.141-0.301c-0.047-0.069-0.117-0.139-0.164-0.208-0.141-0.208-0.117-0.601 0.047-0.809 0.023 0.162-0.047 0.324-0.023 0.462 0 0.116 0 0.254 0.141 0.277s0.164-0.116 0.188-0.231c0.047-0.231 0.094-0.462 0.164-0.694 0.047-0.231 0.024-0.439-0.094-0.647-0.305-0.486-0.329-0.994-0.164-1.526 0.164-0.578 0.399-1.156 0.587-1.734 0.235-0.74 0.517-1.457 0.47-2.243-0.047-0.694 0.094-1.387 0.188-2.15 0.094 0.277 0.211 0.462 0.258 0.671 0.376 1.387 0.517 2.751-0.282 4.069-0.822 1.364-0.963 2.867-0.564 4.393 0.258 1.041 0.517 2.058 0.681 3.121 0.094 0.532 0.117 1.064 0 1.619-0.211 0.925-0.235 1.85-0.094 2.774 0.164 1.017 0.399 2.012 0.54 3.029 0.141 0.855 0.305 1.711-0.446 2.405-0.141 0.139-0.117 0.324 0.094 0.439 0.493 0 0.986 0 1.456 0 0.188-0.231 0.117-0.486 0.141-0.74 0.023-0.393-0.117-0.763-0.141-1.156-0.047-0.809 0.024-1.618 0.211-2.428 0.235-1.064 0.352-2.127 0.047-3.214-0.117-0.393-0.141-0.809-0.094-1.225 0.070-0.786 0.282-1.572 0.446-2.335 0.211-0.971 0.329-1.942 0.070-2.913-0.023-0.093-0.094-0.208 0.047-0.277 0.094-0.046 0.211-0.046 0.305 0 0.141 0.069 0.047 0.185 0.023 0.277-0.117 0.462-0.188 0.948-0.141 1.434 0.070 0.832 0.235 1.642 0.446 2.451 0.235 0.971 0.329 1.965 0.047 2.96-0.141 0.532-0.164 1.087-0.094 1.618 0.047 0.439 0.141 0.855 0.235 1.295 0.164 0.925 0.329 1.85 0.141 2.775-0.047 0.277-0.070 0.578-0.070 0.855 0 0.208-0.024 0.439 0.141 0.624 0.423 0.046 0.892 0.046 1.362 0.046z"></path>
</svg>
