<!-- Generated by IcoMoon.io -->
<svg version="1.1" xmlns="http://www.w3.org/2000/svg" width="32" height="32" viewBox="0 0 32 32">
<title>gluten</title>
<path fill="none" stroke-linejoin="miter" stroke-linecap="round" stroke-miterlimit="4" stroke-width="2" stroke="#000" d="M16 13.944c0 0-2.879-3.388-2.879-5.758s2.879-5.758 2.879-5.758c0 0 2.879 3.388 2.879 5.758s-2.879 5.758-2.879 5.758zM16 13.944c0 0 0 4.77 0 7.484M16 21.428c-2.714 0-4.431-0.36-6.107-2.036s-2.036-6.107-2.036-6.107c0 0 4.431 0.36 6.107 2.036s2.036 3.393 2.036 6.107zM16 21.428c0-2.714 0.36-4.431 2.036-6.107s6.107-2.036 6.107-2.036c0 0-0.36 4.431-2.036 6.107s-3.393 2.036-6.107 2.036zM16 21.428c0 3.71 0 5.79 0 9.5M16 30.929c-2.036 0-4.431-0.36-6.107-2.036s-2.036-6.107-2.036-6.107c0 0 4.431 0.36 6.107 2.036s2.036 3.393 2.036 6.107zM16 30.929c0-2.714 0.36-4.431 2.036-6.107s6.107-2.036 6.107-2.036c0 0-0.36 4.431-2.036 6.107s-4.071 2.036-6.107 2.036z"></path>
</svg>
