<!-- Generated by IcoMoon.io -->
<svg version="1.1" xmlns="http://www.w3.org/2000/svg" width="32" height="32" viewBox="0 0 32 32">
<title>healthy</title>
<path d="M14.161 0.040c-0.847 0.066-1.213 0.154-1.806 0.44-0.894 0.429-1.599 1.133-2.018 2l-0.011 0.025c-0.409 0.839-0.44 1.115-0.479 4.375l-0.036 2.93-2.93 0.036c-3.26 0.039-3.536 0.071-4.375 0.479-1.2 0.586-2.077 1.675-2.364 2.985l-0.005 0.029c-0.171 0.773-0.171 4.546 0 5.319 0.292 1.339 1.169 2.428 2.343 3.003l0.026 0.011c0.836 0.407 1.115 0.438 4.375 0.479l2.93 0.038 0.036 2.929c0.039 3.26 0.071 3.536 0.479 4.375 0.58 1.19 1.656 2.061 2.952 2.35l0.029 0.005c0.67 0.138 2.998 0.202 4.276 0.118 0.808-0.054 1.136-0.105 1.543-0.241 1.494-0.502 2.536-1.671 2.891-3.241 0.076-0.337 0.107-1.113 0.135-3.375l0.038-2.938 2.206-0.002c2.889-0.002 3.902-0.067 4.58-0.294 1.234-0.406 2.199-1.326 2.659-2.499l0.010-0.029c0.246-0.625 0.3-1.028 0.346-2.543 0.057-1.85-0.038-3.252-0.266-3.933-0.502-1.494-1.666-2.538-3.218-2.886-0.364-0.082-1.065-0.112-3.398-0.14l-2.938-0.036-0.002-2.208c-0.002-2.889-0.067-3.902-0.294-4.58-0.299-0.924-0.883-1.686-1.647-2.203l-0.015-0.009c-0.996-0.657-1.497-0.765-3.72-0.798-0.905-0.013-1.955 0-2.334 0.028zM18.505 2.647c0.391 0.181 0.818 0.607 0.998 0.998 0.136 0.296 0.143 0.405 0.176 3.654 0.031 2.866 0.051 3.39 0.141 3.631 0.228 0.606 0.643 1.021 1.249 1.249 0.241 0.090 0.765 0.11 3.631 0.141 3.249 0.033 3.359 0.039 3.654 0.176 0.391 0.181 0.818 0.607 0.998 0.998 0.136 0.294 0.141 0.392 0.141 2.505s-0.005 2.211-0.141 2.505c-0.181 0.391-0.607 0.818-0.998 0.998-0.296 0.136-0.405 0.143-3.654 0.176-2.866 0.031-3.39 0.051-3.631 0.141-0.585 0.211-1.038 0.664-1.245 1.235l-0.005 0.014c-0.090 0.241-0.11 0.765-0.141 3.631-0.033 3.249-0.039 3.359-0.176 3.654-0.181 0.391-0.607 0.818-0.998 0.998-0.294 0.136-0.392 0.141-2.505 0.141s-2.211-0.005-2.505-0.141c-0.431-0.224-0.775-0.567-0.992-0.985l-0.006-0.013c-0.136-0.296-0.143-0.405-0.176-3.654-0.031-2.866-0.051-3.39-0.141-3.631-0.211-0.585-0.664-1.038-1.235-1.245l-0.014-0.005c-0.241-0.090-0.765-0.11-3.631-0.141-3.249-0.033-3.359-0.039-3.654-0.176-0.431-0.224-0.775-0.567-0.992-0.985l-0.006-0.013c-0.136-0.294-0.141-0.392-0.141-2.505s0.005-2.211 0.141-2.505c0.181-0.391 0.607-0.818 0.998-0.998 0.296-0.136 0.405-0.143 3.654-0.176 2.866-0.031 3.39-0.051 3.631-0.141 0.606-0.228 1.021-0.643 1.249-1.249 0.090-0.241 0.11-0.765 0.141-3.631 0.031-2.96 0.048-3.377 0.146-3.595 0.258-0.57 0.729-0.987 1.287-1.141 0.228-0.064 0.845-0.082 2.377-0.072 1.962 0.015 2.085 0.021 2.374 0.156z"></path>
</svg>
