<!-- Generated by IcoMoon.io -->
<svg version="1.1" xmlns="http://www.w3.org/2000/svg" width="32" height="32" viewBox="0 0 32 32">
<title>heart</title>
<path d="M7.105 3.424c-2.761 0.45-4.879 2.005-6.101 4.479-0.68 1.379-0.941 2.51-0.993 4.342-0.043 1.448 0.041 2.235 0.372 3.518 1.115 4.307 4.772 8.863 10.609 13.215 0.941 0.702 3.197 2.207 3.998 2.668 0.613 0.352 0.909 0.438 1.245 0.362 0.677-0.152 4.172-2.497 6.386-4.283 1.794-1.446 3.844-3.415 5.014-4.81 2.451-2.922 3.854-5.755 4.281-8.636 0.145-0.987 0.097-3.008-0.096-3.953-0.721-3.545-3.031-6.020-6.333-6.791-0.721-0.168-2.467-0.236-3.225-0.125-2.313 0.339-4.411 1.558-6.017 3.497l-0.245 0.296-0.245-0.296c-1.555-1.876-3.55-3.070-5.775-3.456-0.642-0.112-2.263-0.127-2.874-0.028zM9.747 5.89c0.578 0.119 1.425 0.432 1.93 0.715 1.328 0.743 2.281 1.771 3.039 3.275 0.201 0.399 0.44 0.773 0.557 0.871 0.17 0.142 0.392 0.229 0.634 0.229 0.112 0 0.22-0.019 0.321-0.053l-0.007 0.002c0.534-0.156 0.67-0.292 1.054-1.043 0.962-1.876 2.25-3.069 4.001-3.708 0.643-0.258 1.388-0.407 2.168-0.407 0.024 0 0.047 0 0.071 0l-0.004-0c2.204-0.015 4.031 1.005 5.121 2.861 0.893 1.519 1.196 3.846 0.774 5.935-0.884 4.372-5.185 9.395-11.845 13.841-1.542 1.029-1.514 1.015-1.741 0.896-0.323-0.17-2.538-1.667-3.345-2.265-4.246-3.138-7.331-6.488-8.863-9.623-1.143-2.339-1.473-4.518-1.016-6.729 0.461-2.232 1.911-3.963 3.851-4.599 0.601-0.211 1.293-0.333 2.014-0.333 0.456 0 0.9 0.049 1.328 0.141l-0.041-0.007z"></path>
</svg>
