<!-- Generated by IcoMoon.io -->
<svg version="1.1" xmlns="http://www.w3.org/2000/svg" width="32" height="32" viewBox="0 0 32 32">
<title>hryvnia</title>
<path d="M14.456 0.059c-3.784 0.519-6.869 2.937-7.688 6.029-0.095 0.39-0.156 0.841-0.169 1.304l-0 0.009c-0.035 0.88 0.033 1.114 0.395 1.379 0.262 0.193 1.102 0.227 1.423 0.058 0.389-0.204 0.469-0.384 0.573-1.268 0.064-0.562 0.153-0.959 0.292-1.318 0.57-1.481 2.069-2.779 3.929-3.403 0.832-0.279 1.791-0.44 2.787-0.44 1.002 0 1.965 0.163 2.866 0.463l-0.064-0.018c2.288 0.768 3.944 2.512 4.171 4.395 0.163 1.334-0.28 2.547-1.333 3.664-0.469 0.476-1.001 0.888-1.583 1.223l-0.036 0.019c-0.221 0.119-0.517 0.125-6.49 0.156-7.027 0.036-6.551 0-6.82 0.525-0.181 0.356-0.181 1.031 0 1.387 0.269 0.525-0.211 0.489 6.853 0.525 3.461 0.018 7.39 0.018 8.731 0 2.288-0.031 2.451-0.041 2.659-0.165 0.318-0.191 0.471-0.532 0.471-1.054 0-0.829-0.323-1.155-1.193-1.206l-0.507-0.030 0.376-0.507c0.466-0.628 0.866-1.431 1.102-2.211 0.168-0.55 0.181-0.679 0.181-1.779 0.002-1.023-0.018-1.259-0.143-1.708-0.815-2.935-3.43-5.141-6.998-5.904-0.557-0.119-0.949-0.152-2.010-0.168-0.725-0.010-1.524 0.008-1.774 0.043zM9.674 17.252c-2.707 0.038-2.716 0.040-2.965 0.526-0.181 0.356-0.181 1.031 0 1.387 0.176 0.344 0.448 0.474 1.064 0.512l0.504 0.030-0.376 0.507c-0.465 0.633-0.84 1.367-1.088 2.158l-0.014 0.053c-0.168 0.55-0.181 0.679-0.181 1.779-0.002 1.023 0.018 1.259 0.143 1.708 0.759 2.733 3.166 4.917 6.329 5.742 0.873 0.228 1.876 0.36 2.909 0.36s2.036-0.131 2.992-0.378l-0.083 0.018c3.164-0.825 5.607-3.046 6.322-5.742 0.087-0.331 0.15-0.812 0.17-1.313 0.035-0.88-0.033-1.114-0.395-1.379-0.262-0.193-1.102-0.227-1.423-0.058-0.389 0.204-0.469 0.384-0.572 1.262-0.145 1.24-0.504 2.038-1.305 2.894-2.833 3.033-8.579 3.033-11.412 0-1.443-1.544-1.702-3.537-0.684-5.263 0.471-0.799 1.453-1.713 2.37-2.209 0.221-0.119 0.517-0.125 6.49-0.156 6.111-0.033 6.265-0.036 6.48-0.165 0.318-0.191 0.471-0.532 0.471-1.054s-0.153-0.863-0.471-1.054c-0.212-0.127-0.354-0.132-3.812-0.148l-6.326-0.033c-1.504-0.010-3.817-0.002-5.14 0.017z"></path>
</svg>
