<!-- Generated by IcoMoon.io -->
<svg version="1.1" xmlns="http://www.w3.org/2000/svg" width="32" height="32" viewBox="0 0 32 32">
<title>Icon-6</title>
<path fill="none" stroke-linejoin="miter" stroke-linecap="round" stroke-miterlimit="4" stroke-width="2.4" stroke="#000" d="M17.607 29.836h10.088c0.562 0 0.951-0.563 0.751-1.089l-0.8-2.111c-0.42-1.109-0.19-2.356 0.487-3.329 1.018-1.462 2.332-3.731 2.332-5.7M25.644 13.589c0 6.658-5.398 12.056-12.056 12.056h-10.892c-0.562 0-0.951-0.563-0.752-1.089l1.030-2.72c0.369-0.972 0.217-2.051-0.237-2.986-0.772-1.59-1.206-3.375-1.206-5.261 0-6.658 5.397-12.056 12.056-12.056s12.056 5.397 12.056 12.056z"></path>
</svg>
