<!-- Generated by IcoMoon.io -->
<svg version="1.1" xmlns="http://www.w3.org/2000/svg" width="32" height="32" viewBox="0 0 32 32">
<title>icon-3</title>
<path fill="none" stroke-linejoin="round" stroke-linecap="round" stroke-miterlimit="4" stroke-width="2" stroke="#000" d="M25.867 23.4h2.467c1.362 0 2.467 1.104 2.467 2.467v0c0 1.362-1.104 2.467-2.467 2.467h-24.667c-1.362 0-2.467-1.104-2.467-2.467v0c0-1.362 1.104-2.467 2.467-2.467h18.911M25.867 23.4v-16.444c0-1.816-1.472-3.289-3.289-3.289h-0.926c-0.976 0-1.902 0.434-2.526 1.183l-2.139 2.567c-0.625 0.75-1.55 1.183-2.527 1.183h-9.971M25.867 23.4h-3.289M22.578 23.4l-1.186-7.119c-0.264-1.586-1.636-2.748-3.244-2.748h-0.567c-0.999 0-1.944 0.454-2.568 1.234l-1.314 1.642c-0.624 0.78-1.569 1.234-2.568 1.234h-9.93"></path>
</svg>
