<!-- Generated by IcoMoon.io -->
<svg version="1.1" xmlns="http://www.w3.org/2000/svg" width="32" height="32" viewBox="0 0 32 32">
<title>indeterminateCheck</title>
<path d="M3.030 13.817c-0.566 0.128-1.023 0.509-1.251 1.017l-0.005 0.011c-0.146 0.307-0.158 0.398-0.158 1.156s0.012 0.848 0.158 1.156c0.198 0.426 0.48 0.709 0.906 0.906l0.335 0.158h25.97l0.334-0.158c0.407-0.181 0.725-0.499 0.902-0.895l0.004-0.011c0.146-0.307 0.158-0.398 0.158-1.156s-0.012-0.848-0.158-1.156c-0.181-0.407-0.499-0.725-0.895-0.902l-0.011-0.004-0.334-0.158-12.863-0.009c-7.374-0.006-12.961 0.012-13.091 0.046z"></path>
</svg>
