<!-- Generated by IcoMoon.io -->
<svg version="1.1" xmlns="http://www.w3.org/2000/svg" width="32" height="32" viewBox="0 0 32 32">
<title>language</title>
<path d="M15.318 0.004c-5.198 0.229-9.726 2.902-12.49 6.891l-0.035 0.053c-1.504 2.188-2.395 4.61-2.72 7.389-0.082 0.702-0.082 2.624 0 3.326 0.443 3.801 1.989 7.037 4.61 9.652 2.688 2.713 6.351 4.456 10.42 4.659l0.037 0.002c3.982 0.215 7.783-1.013 10.947-3.538 0.857-0.725 1.625-1.494 2.327-2.322l0.024-0.029c2.165-2.713 3.353-5.811 3.538-9.229 0.215-3.982-1.013-7.783-3.538-10.947-0.725-0.857-1.494-1.625-2.322-2.327l-0.029-0.024c-2.485-1.982-5.322-3.159-8.397-3.479-0.575-0.053-1.244-0.084-1.919-0.084-0.159 0-0.318 0.002-0.476 0.005l0.024-0zM16.534 2.183c0.544 0.27 1.249 1.13 1.75 2.133 0.62 1.243 1.247 3.255 1.555 4.991l0.037 0.204h-3.874c-2.131 0-3.874-0.014-3.874-0.031 0-0.109 0.307-1.479 0.463-2.068 0.583-2.2 1.36-3.837 2.253-4.749 0.596-0.609 1.127-0.761 1.689-0.48zM12.079 3.036c-0.842 1.569-1.591 3.923-1.993 6.271l-0.035 0.204h-6.437l0.176-0.314c0.672-1.169 1.447-2.177 2.338-3.070l-0 0c1.487-1.5 3.315-2.66 5.358-3.353l0.097-0.029c0.345-0.117 0.658-0.213 0.697-0.213 0.042-0.001-0.037 0.198-0.2 0.503zM20.285 2.699c2.192 0.723 4.066 1.9 5.587 3.428l0 0c0.909 0.911 1.742 2.004 2.338 3.070l0.176 0.314h-6.437l-0.035-0.204c-0.405-2.356-1.224-4.918-2.024-6.328-0.26-0.457-0.256-0.447-0.187-0.447 0.033 0 0.294 0.075 0.582 0.168zM9.759 11.706c-0.142 0.669-0.254 3.93-0.192 5.603 0.026 0.705 0.049 1.386 0.050 1.513l0.003 0.232h-7.248l-0.053-0.204c-0.047-0.194-0.1-0.476-0.144-0.761l-0.009-0.071c-0.14-0.902-0.138-3.145 0.004-4.062 0.098-0.626 0.397-1.906 0.518-2.222l0.059-0.15h7.040l-0.027 0.123zM20.199 11.651c0 0.038 0.042 0.461 0.093 0.941 0.072 0.684 0.093 1.419 0.095 3.408 0.001 1.395-0.018 2.651-0.041 2.795l-0.045 0.259h-8.602l-0.045-0.259c-0.023-0.143-0.042-1.4-0.041-2.795 0.003-1.989 0.023-2.724 0.095-3.408 0.050-0.48 0.093-0.902 0.093-0.941 0-0.055 0.877-0.068 4.199-0.068s4.199 0.014 4.199 0.068zM29.312 11.733c0.121 0.316 0.42 1.596 0.518 2.222 0.142 0.917 0.145 3.16 0.004 4.062-0.055 0.345-0.123 0.72-0.153 0.832l-0.053 0.204h-7.251l0.030-1.186c0.016-0.652 0.042-1.29 0.055-1.418 0.055-0.511-0.109-4.035-0.218-4.717l-0.025-0.15h7.034l0.059 0.15zM9.857 21.221c0.015 0.052 0.044 0.23 0.063 0.395 0.057 0.477 0.293 1.765 0.465 2.536 0.41 1.84 1.005 3.527 1.694 4.812 0.149 0.277 0.245 0.504 0.215 0.504-0.12 0-1.133-0.348-1.682-0.578-1.745-0.74-3.235-1.759-4.484-3.017l-0.001-0.001c-0.667-0.655-1.263-1.379-1.776-2.162l-0.030-0.049c-0.384-0.578-1.175-2.079-1.272-2.413l-0.034-0.123h3.408c3.198 0 3.409 0.005 3.434 0.095zM20.090 21.175c0 0.314-0.472 2.658-0.714 3.55-0.842 3.103-2.217 5.235-3.375 5.235-1.185 0-2.555-2.159-3.408-5.371-0.255-0.958-0.682-3.101-0.682-3.422 0-0.022 1.84-0.041 4.090-0.041 2.399 0 4.090 0.020 4.090 0.049zM28.95 21.248c-0.097 0.334-0.887 1.835-1.272 2.413-0.544 0.831-1.14 1.555-1.806 2.208l-0.002 0.002c-1.281 1.291-2.813 2.33-4.517 3.038l-0.092 0.034c-0.672 0.273-1.543 0.555-1.585 0.513-0.015-0.015 0.059-0.172 0.165-0.348 0.447-0.742 1.063-2.298 1.453-3.674 0.285-1.006 0.679-2.919 0.785-3.817 0.019-0.165 0.048-0.344 0.063-0.395 0.025-0.090 0.236-0.095 3.434-0.095h3.408l-0.034 0.123z"></path>
</svg>
