<!-- Generated by IcoMoon.io -->
<svg version="1.1" xmlns="http://www.w3.org/2000/svg" width="32" height="32" viewBox="0 0 32 32">
<title>lemon</title>
<path d="M22.898 25.826v0zM2.838 23.496c-0.531-0.531-1.391-0.531-1.921 0s-0.531 1.391 0 1.921l1.921-1.921zM25.825 22.899v0zM24.864 24.865c0.312-0.312 0.633-0.239 0.42-0.247-0.135-0.005-0.332-0.037-0.653-0.098-0.269-0.051-0.661-0.13-1.018-0.156-0.274-0.020-0.969-0.058-1.545 0.385l1.659 2.152c-0.305 0.235-0.561 0.154-0.313 0.173 0.165 0.012 0.378 0.052 0.711 0.116 0.281 0.053 0.683 0.13 1.059 0.144 0.298 0.011 1.041 0.012 1.601-0.548l-1.921-1.921zM22.068 24.75c-5.727 4.414-13.981 3.995-19.231-1.254l-1.921 1.921c6.228 6.228 16.016 6.722 22.81 1.485l-1.659-2.152zM23.495 2.838c5.25 5.25 5.668 13.503 1.254 19.231l2.152 1.659c5.237-6.795 4.743-16.583-1.485-22.811l-1.921 1.921zM24.749 22.069c-0.444 0.575-0.405 1.271-0.385 1.545 0.026 0.357 0.105 0.749 0.156 1.018 0.061 0.321 0.093 0.518 0.098 0.653 0.008 0.213-0.066-0.108 0.246-0.42l1.921 1.921c0.56-0.56 0.559-1.303 0.548-1.601-0.014-0.376-0.091-0.779-0.144-1.059-0.063-0.333-0.103-0.546-0.116-0.711-0.018-0.248 0.062 0.008-0.173 0.313l-2.152-1.659zM16.681 16.682c-3.033 3.033-6.198 5.273-8.824 6.467-1.318 0.599-2.431 0.903-3.284 0.954-0.855 0.051-1.282-0.154-1.493-0.365l-1.921 1.921c0.958 0.958 2.277 1.234 3.577 1.156 1.303-0.078 2.754-0.515 4.246-1.193 2.992-1.36 6.419-3.817 9.621-7.019l-1.921-1.921zM3.080 23.738c-0.211-0.211-0.417-0.638-0.365-1.493 0.051-0.853 0.355-1.967 0.954-3.284 1.194-2.626 3.434-5.791 6.467-8.824l-1.921-1.921c-3.202 3.202-5.659 6.629-7.019 9.621-0.678 1.491-1.115 2.943-1.193 4.246-0.078 1.301 0.198 2.619 1.156 3.577l1.921-1.921zM10.135 10.136c3.033-3.033 6.198-5.273 8.824-6.467 1.318-0.599 2.432-0.903 3.284-0.954 0.855-0.051 1.282 0.154 1.493 0.365l1.921-1.921c-0.958-0.958-2.276-1.234-3.577-1.156-1.303 0.078-2.755 0.515-4.246 1.193-2.992 1.36-6.419 3.817-9.621 7.019l1.921 1.921zM23.737 3.081c0.211 0.211 0.417 0.638 0.365 1.493-0.051 0.853-0.355 1.966-0.954 3.284-1.194 2.626-3.434 5.791-6.467 8.824l1.921 1.921c3.202-3.202 5.659-6.629 7.019-9.621 0.678-1.491 1.115-2.943 1.193-4.246 0.078-1.301-0.198-2.619-1.156-3.577l-1.921 1.921z"></path>
</svg>
