<!-- Generated by IcoMoon.io -->
<svg version="1.1" xmlns="http://www.w3.org/2000/svg" width="32" height="32" viewBox="0 0 32 32">
<title>logo</title>
<path d="M20.521 14.818c0 0-0.264 1.901-0.483 3.284s-0.586 3.353-0.586 3.353h3.426l0.646-4.058 6.975-0.013 0.419-2.605-10.398 0.040z"></path>
<path d="M3.415 21.388h-3.415c0 0 0.771-3.78 1.082-5.712s0.72-5.131 0.72-5.131h3.415c0 0-0.612 2.741-0.998 5.117-0.382 2.356-0.804 5.726-0.804 5.726z"></path>
<path d="M14.556 14.682h-4.113c-0.225-0.050-1.052 0.033-1.052-0.728 0-0.803 0.773-0.738 1.046-0.738l21.133-0.010 0.43-2.619h-22.134c-1.853 0-3.37 1.452-3.37 3.368s1.517 3.261 3.37 3.261h4.113c0.225 0.050 1.052 0.012 1.052 0.728 0 0.624-0.774 0.738-1.046 0.738l-7.492 0.019-0.439 2.741 8.502-0.014c0.893-0.003 1.749-0.37 2.38-1.023s0.987-1.538 0.99-2.461c0-1.921-1.514-3.261-3.37-3.261z"></path>
</svg>
