<!-- Generated by IcoMoon.io -->
<svg version="1.1" xmlns="http://www.w3.org/2000/svg" width="32" height="32" viewBox="0 0 32 32">
<title>mail</title>
<path fill="none" stroke-linejoin="miter" stroke-linecap="butt" stroke-miterlimit="4" stroke-width="2" stroke="#000" d="M2.444 5.456l11.707 9.105c1.088 0.846 2.611 0.846 3.699 0l11.707-9.105M5.758 28.050h20.485c1.687 0 2.531 0 3.175-0.328 0.567-0.289 1.028-0.75 1.316-1.316 0.328-0.644 0.328-1.488 0.328-3.175v-14.46c0-1.687 0-2.531-0.328-3.175-0.289-0.567-0.75-1.028-1.316-1.316-0.644-0.328-1.488-0.328-3.175-0.328h-20.485c-1.687 0-2.531 0-3.175 0.328-0.567 0.289-1.028 0.75-1.317 1.316-0.328 0.644-0.328 1.488-0.328 3.175v14.46c0 1.687 0 2.531 0.328 3.175 0.289 0.567 0.75 1.028 1.317 1.316 0.644 0.328 1.488 0.328 3.175 0.328z"></path>
</svg>
