<!-- Generated by IcoMoon.io -->
<svg version="1.1" xmlns="http://www.w3.org/2000/svg" width="5" height="32" viewBox="0 0 5 32">
<title>man-after-before-1</title>
<path opacity="0.1" fill="#000" d="M1.558 32c-0.415-0.206-0.484-0.343-0.369-0.755 0.231-0.824 0.138-1.625-0.069-2.426-0.231-0.938-0.484-1.854-0.461-2.838 0.023-0.618 0.092-1.213 0.323-1.808 0.046-0.114 0.069-0.206 0.069-0.32 0-0.137-0.023-0.275 0.023-0.389 0.3-0.71 0.023-1.396-0.092-2.106s-0.115-1.419 0.115-2.106c0.184-0.572 0.115-1.099-0.161-1.648-0.484-0.916-0.553-1.854 0.023-2.747 0.392-0.595 0.346-1.213 0.3-1.854-0.069-1.122-0.392-2.197-0.83-3.227-0.346-0.847-0.53-1.717-0.369-2.632 0.046-0.298 0.138-0.595 0.323-0.847 0.207-0.298 0.392-0.618 0.622-0.916 0.277-0.366 0.323-0.801 0.277-1.236-0.023-0.206-0.092-0.366-0.254-0.526-0.669-0.778-0.807-2.289-0.184-2.93 0.346-0.366 0.761-0.572 1.222-0.687 0.277 0 0.553 0 0.83 0 0.3 0.114 0.622 0.183 0.853 0.412 0.184 0.183 0.369 0.366 0.323 0.664-0.023 0.092 0.069 0.16 0.092 0.252 0.184 0.412 0.369 0.824 0.184 1.282-0.069 0.16 0.023 0.298 0.092 0.435 0.069 0.114 0.138 0.206 0.207 0.32 0.046 0.092 0.046 0.206-0.069 0.229-0.231 0.069-0.207 0.206-0.161 0.389 0.023 0.092-0.023 0.206-0.046 0.298-0.069 0.114-0.069 0.229-0.069 0.366 0.023 0.298-0.115 0.435-0.415 0.412-0.184-0.023-0.346-0.069-0.507-0.092-0.069-0.023-0.161-0.046-0.184 0.023-0.069 0.206-0.092 0.412-0.138 0.618-0.023 0.114 0.115 0.183 0.184 0.252 0.761 0.664 1.406 1.396 1.844 2.312 0.184 0.366 0.3 0.732 0.115 1.167-0.092 0.206 0.023 0.435 0.046 0.641 0.069 0.778-0.115 1.534-0.231 2.289-0.069 0.504-0.115 0.984-0.069 1.511 0.046 0.641-0.023 1.305-0.231 1.923-0.115 0.343-0.092 0.687-0.092 1.030 0 0.71 0.069 1.419-0.092 2.129-0.277 1.259-0.553 2.495-1.060 3.685-0.046 0.137-0.046 0.252 0 0.366 0.138 0.412 0.092 0.801-0.115 1.167-0.138 0.229-0.161 0.435-0.138 0.71 0.069 0.87-0.161 1.717-0.3 2.587-0.092 0.595-0.184 1.167-0.208 1.763-0.023 1.007 0.646 1.74 1.475 2.083 0.254 0.115 0.53 0.206 0.83 0.206 0.161 0 0.369-0.046 0.438 0.183 0.046 0.229-0.161 0.275-0.3 0.366-1.199 0.023-2.398 0.023-3.596 0.023z"></path>
</svg>
