<!-- Generated by IcoMoon.io -->
<svg version="1.1" xmlns="http://www.w3.org/2000/svg" width="10" height="32" viewBox="0 0 10 32">
<title>man-after-before-0</title>
<path opacity="0.1" fill="#000" d="M10.409 13.891c0-0.184 0-0.367 0-0.55-0.023-0.229-0.069-0.481-0.092-0.711-0.092-0.55-0.231-1.077-0.139-1.628 0.069-0.458 0.069-0.917 0-1.375-0.116-0.802-0.347-1.582-0.508-2.361-0.116-0.527-0.439-0.94-0.97-1.146-0.508-0.206-1.039-0.39-1.548-0.573-0.416-0.138-0.716-0.344-0.901-0.734-0.069-0.16-0.092-0.298 0.046-0.436s0.231-0.321 0.254-0.504c0.023-0.183 0.115-0.321 0.254-0.436 0.208-0.16 0.3-0.802 0.162-0.94-0.139-0.115-0.115-0.252-0.115-0.39 0-0.573 0.115-1.169-0.346-1.65-0.139-0.138-0.254-0.275-0.439-0.344-0.139-0.046-0.254-0.092-0.393-0.115-0.254 0-0.508 0-0.785 0-0.162 0.046-0.346 0.069-0.508 0.138-0.416 0.183-0.739 0.504-0.785 0.963-0.046 0.39-0.115 0.779-0.023 1.169 0.023 0.069 0 0.115-0.046 0.183-0.185 0.229-0.162 0.802 0.069 0.986 0.162 0.138 0.231 0.275 0.277 0.458 0.023 0.16 0.092 0.321 0.185 0.413 0.231 0.229 0.162 0.436 0.023 0.665-0.139 0.252-0.346 0.436-0.624 0.504-0.508 0.138-0.97 0.367-1.455 0.527-0.762 0.229-1.201 0.756-1.34 1.513-0.069 0.39-0.116 0.802-0.231 1.192-0.231 0.734-0.323 1.513-0.208 2.269 0.069 0.39 0.023 0.756-0.046 1.123-0.139 0.756-0.231 1.49-0.139 2.269 0.115 0.917 0.185 1.811 0.023 2.728-0.092 0.55 0.023 1.123 0.254 1.627 0.162 0.367 0.601 0.459 0.97 0.596 0.023 0 0.023 0.023 0.046 0.023 0.069 0.023 0.162 0.092 0.231 0 0.069-0.069 0.046-0.16 0.023-0.252-0.069-0.16-0.185-0.252-0.3-0.344-0.277-0.275-0.347-0.711-0.162-0.963 0.046 0.183 0.092 0.367 0.162 0.55 0.069 0.16 0.208 0.252 0.393 0.183 0.162-0.069 0.115-0.229 0.069-0.367-0.069-0.183-0.139-0.39-0.139-0.573 0-0.252-0.092-0.481-0.254-0.688-0.139-0.16-0.162-0.367-0.139-0.573 0.069-0.458 0.162-0.894 0.3-1.352 0.162-0.596 0.231-1.192 0.162-1.788-0.069-0.573 0-1.1 0.162-1.651s0.254-1.123 0.393-1.696c0.069 0.092 0.092 0.16 0.115 0.252 0.346 1.146 0.185 2.315 0.231 3.461 0 0.092 0 0.183-0.046 0.275-0.323 0.802-0.416 1.65-0.462 2.499-0.115 1.742-0.092 3.484 0.323 5.203 0.208 0.825 0.277 1.65 0.139 2.499-0.139 0.871-0.139 1.719 0.092 2.59 0.254 0.894 0.485 1.811 0.647 2.728 0.139 0.734 0.231 1.444-0.416 2.040-0.277 0.275-0.185 0.458 0.185 0.573 0.508 0 0.993 0 1.501 0 0.092-0.069 0.162-0.138 0.185-0.275 0.069-0.527 0.069-1.077 0-1.605-0.069-0.825-0.092-1.628-0.023-2.43 0.069-0.642 0.231-1.261 0.115-1.903-0.069-0.413-0.162-0.825-0.254-1.238-0.115-0.481-0.115-0.963 0.092-1.421 0.092-0.229 0.162-0.458 0.162-0.688 0.069-1.169 0.069-2.361 0.208-3.53 0.046-0.321 0.046-0.665 0.069-0.986 0-0.092 0.023-0.206 0.139-0.183 0.115 0 0.139 0.092 0.162 0.183 0 0.046 0 0.115 0 0.16 0 0.55 0.046 1.1 0.092 1.65 0.046 0.481 0.139 0.94 0.092 1.421-0.069 0.688 0 1.352 0.231 2.017 0.162 0.436 0.185 0.871 0.092 1.33-0.254 0.986-0.37 1.971-0.162 2.98 0.139 0.756 0.162 1.559 0.046 2.315-0.092 0.596-0.046 1.192-0.046 1.788 0 0.183 0.046 0.321 0.162 0.458 0.508 0 0.993 0 1.501 0 0.416-0.115 0.462-0.252 0.208-0.619-0.069-0.092-0.139-0.183-0.231-0.275-0.254-0.275-0.3-0.619-0.277-0.986 0.115-1.169 0.462-2.292 0.739-3.438 0.185-0.711 0.231-1.444 0.139-2.178-0.092-0.756-0.208-1.513-0.023-2.269 0.462-1.925 0.624-3.874 0.462-5.845-0.069-0.802-0.116-1.582-0.416-2.338-0.115-0.298-0.162-0.596-0.115-0.917 0.069-0.413 0.046-0.825 0.023-1.238-0.046-0.734 0.185-1.398 0.3-2.178 0.162 0.688 0.254 1.307 0.439 1.903 0.116 0.436 0.185 0.848 0.162 1.307-0.023 0.55-0.069 1.077 0.046 1.605s0.254 1.077 0.37 1.605c0.046 0.229 0.116 0.504-0.046 0.688-0.37 0.435-0.254 1.009-0.462 1.467-0.046 0.092 0 0.183 0.092 0.229s0.185 0.046 0.277-0.023c0.116-0.092 0.139-0.206 0.185-0.321s0-0.229 0.116-0.321c0.139 0.367 0.046 0.711-0.254 0.986-0.116 0.092-0.231 0.183-0.277 0.344-0.023 0.069-0.023 0.16 0.023 0.206 0.069 0.069 0.139 0.023 0.208 0 0.162-0.069 0.323-0.115 0.462-0.183 0.231-0.115 0.531-0.229 0.601-0.481 0.162-0.504 0.323-1.054 0.231-1.582-0.277-1.123-0.139-2.201 0.023-3.255z"></path>
</svg>
