<!-- Generated by IcoMoon.io -->
<svg version="1.1" xmlns="http://www.w3.org/2000/svg" width="23" height="32" viewBox="0 0 23 32">
<title>man</title>
<path fill="#5d5f65" d="M2.497 4.343c0 0 0.56-0.513 1.626 0.415l0.497-0.77c0 0-1.197-0.946-2.123 0.355z"></path>
<path fill="#5d5f65" d="M4.451 2.091c0 0-0.662 0.822 0.291 1.759l-0.644 0.65c0 0-1.475-1.807 0.352-2.408v-0.002z"></path>
<path fill="#f3f4f4" d="M1.734 24.247c1.161-1.796 2.983-2.281 2.983-2.281l4.368-1.619h4.169l4.368 1.619c0 0 1.823 0.486 2.983 2.281h-18.872z"></path>
<path fill="#babbbd" d="M16.866 32.748h6.748c0-1.152-0.075-2.796-0.075-2.796-0.398-6.902-5.425-7.986-5.425-7.986-3.921-0.949-1.784 5.115-1.784 5.115-0.102 1.461 0.115 3.428 0.538 5.664l-0.002 0.002z"></path>
<path fill="#f3f4f4" d="M14.034 16.252h-5.725v5.581h5.725v-5.581z"></path>
<path fill="#babbbd" d="M14.034 18.847v-2.595h-5.725v1.285c1.633 1.36 3.6 1.531 5.725 1.31z"></path>
<path fill="#5d5f65" d="M20.127 32.748c0.111-3.008 0.077-3.835 0.050-4.863-0.059-2.286-0.549-4.219-2.055-5.917-0.002 0-0.007 0-0.007 0l-4.081-1.33c0 0 0.858 1.502-2.893 1.502 0 0-2.471-0.097-2.832-1.502l-4.144 1.33c0 0-3.544 0.872-4.151 4.601l2.082 3.83-0.075 2.351 18.106-0.002z"></path>
<path fill="#5d5f65" d="M18.483 9.275c0.163-1.283-0.111-2.514-0.097-3.778 0.009-0.849-0.156-2.13-1.213-2.238-1.463-0.149-1.915 2.376-2.001 3.471-0.12 1.509 0.255 3.139 0.547 4.616 0.104 0.533 0.095 1.599 0.693 1.857 0.513 0.219 1.039-0.298 1.301-0.684 0.632-0.93 0.635-2.168 0.768-3.243h0.002z"></path>
<path fill="#f3f4f4" d="M17.396 15.475c-0.578 2.263-1.597 2.889-1.597 2.889l-1.366 0.266c-0.786-0.099-2.143-0.42-2.143-0.42-3.121-1.061-4.027-1.348-4.51-2.534-0.020-0.050-2.462-8.521-2.462-8.521-0.4-4.361 4.165-5.267 4.854-5.382 0.682-0.158 5.027-1.364 6.31 2.821 0 0 1.897 4.849 0.915 10.881z"></path>
<path fill="#5d5f65" d="M18.833 0.375c0.246 1.353 0.016 3.227-1.032 4.092-1.138 0.937-2.116 0.682-3.487 0.987-1.425 0.316-2.884 0.443-4.316 0.718-1.003 0.194-2.161 0.305-2.622 1.369-0.61 1.407-0.729 3.241-0.318 4.612 0.341 1.141 0.447 2.252 0.822 3.738-1.294-1.071-2.299-2.633-2.299-2.633-0.431-0.757-0.888-1.794-1.373-3.11-0.427-1.159-0.795-2.175-0.852-3.37-0.070-1.54 0.675-2.211 1.497-3.625 0.772-1.328 1.857-2.249 3.27-2.67 0 0 7.164 0.402 7.031-1.233 0 0 1.721 0.44 1.394 1.583 0 0 1.8-0.33 1.418-1.583 0 0 0.727 0.343 0.872 1.127l-0.005-0.002z"></path>
<path fill="#f3f4f4" d="M7.341 11.859c0 0-0.772-1.68-1.985-0.684 0 0-0.553 0.431 0.129 1.556 0 0 0.987 1.617 2.17 0.72l-0.314-1.592z"></path>
<path fill="#5d5f65" d="M7.222 7.938c0 0 0.005 3.011 0.558 4.607l-0.587 0.117c0 0-0.309-2.064-1.371-2.089l1.4-2.633v-0.002z"></path>
<path fill="#babbbd" d="M5.804 32.748h-6.308c0 0 0.023-1.498 0.025-1.604 0.047-1.472 0.14-2.956 0.406-4.406 0.379-2.073 1.387-3.914 3.605-4.44 1.014-0.242 1.917 0.373 2.466 1.208 0 0 1.003 1.238-0.194 9.244v-0.002z"></path>
</svg>
