<!-- Generated by IcoMoon.io -->
<svg version="1.1" xmlns="http://www.w3.org/2000/svg" width="32" height="32" viewBox="0 0 32 32">
<title>meat</title>
<path fill="none" stroke-linejoin="miter" stroke-linecap="round" stroke-miterlimit="4" stroke-width="2" stroke="#000" d="M23.838 23.838l2.147 2.147M25.984 25.984c1.349 1.349 3.58 1.191 4.725-0.336l0.182-0.243M25.984 25.984c1.349 1.349 1.191 3.58-0.336 4.725l-0.243 0.182M6.657 16.59c-2.794-1.132-4.765-3.871-4.765-7.071 0-4.212 3.414-7.627 7.627-7.627 3.2 0 5.94 1.971 7.071 4.765 0.716 1.768 1.151 3.696 2.26 5.248l4.42 6.188c0.867 1.213 0.729 2.876-0.325 3.93l-0.921 0.921c-1.054 1.054-2.717 1.192-3.93 0.325l-6.188-4.42c-1.552-1.109-3.481-1.544-5.248-2.26z"></path>
</svg>
