<!-- Generated by IcoMoon.io -->
<svg version="1.1" xmlns="http://www.w3.org/2000/svg" width="32" height="32" viewBox="0 0 32 32">
<title>milk</title>
<path d="M7.070 11.535l-0.998-0.499c-0.077 0.155-0.118 0.326-0.118 0.499h1.116zM7.070 30.884h-1.116c0 0.616 0.5 1.116 1.116 1.116v-1.116zM24.93 30.884v1.116c0.616 0 1.116-0.5 1.116-1.116h-1.116zM24.93 11.535h1.116c0-0.173-0.040-0.344-0.118-0.499l-0.998 0.499zM10.046 1.116v-1.116c-0.617 0-1.116 0.5-1.116 1.116h1.116zM21.953 1.116h1.116c0-0.617-0.5-1.116-1.116-1.116v1.116zM5.954 11.535v19.349h2.233v-19.349h-2.233zM7.070 32h17.86v-2.233h-17.86v2.233zM26.047 30.884v-19.349h-2.233v19.349h2.233zM24.93 10.419h-17.86v2.233h17.86v-2.233zM8.068 12.034l2.977-5.954-1.997-0.998-2.977 5.954 1.997 0.998zM10.046 6.698h11.907v-2.233h-11.907v2.233zM20.955 6.081l2.977 5.953 1.997-0.998-2.977-5.954-1.997 0.998zM11.163 5.581v-4.465h-2.233v4.465h2.233zM10.046 2.233h11.907v-2.233h-11.907v2.233zM20.837 1.116v4.465h2.233v-4.465h-2.233zM19.349 21.953c0 1.849-1.499 3.349-3.349 3.349v2.233c3.083 0 5.581-2.499 5.581-5.581h-2.233zM16 25.302c-1.849 0-3.349-1.499-3.349-3.349h-2.233c0 3.083 2.499 5.581 5.581 5.581v-2.233zM12.651 21.953c0-1.849 1.499-3.349 3.349-3.349v-2.233c-3.083 0-5.581 2.499-5.581 5.581h2.233zM16 18.605c1.849 0 3.349 1.499 3.349 3.349h2.233c0-3.083-2.499-5.581-5.581-5.581v2.233z"></path>
</svg>
