<!-- Generated by IcoMoon.io -->
<svg version="1.1" xmlns="http://www.w3.org/2000/svg" width="32" height="32" viewBox="0 0 32 32">
<title>more</title>
<path fill="none" stroke-linejoin="miter" stroke-linecap="round" stroke-miterlimit="4" stroke-width="2" stroke="#000" d="M15.343 15.344h1.313M15.343 16.656h1.313M3.093 15.344h1.313M3.093 16.656h1.313M27.593 15.344h1.313M27.593 16.656h1.313M17.75 16c0 0.967-0.783 1.75-1.75 1.75s-1.75-0.783-1.75-1.75c0-0.967 0.783-1.75 1.75-1.75s1.75 0.783 1.75 1.75zM5.5 16c0 0.967-0.783 1.75-1.75 1.75s-1.75-0.783-1.75-1.75c0-0.967 0.784-1.75 1.75-1.75s1.75 0.783 1.75 1.75zM30 16c0 0.967-0.783 1.75-1.75 1.75s-1.75-0.783-1.75-1.75c0-0.967 0.783-1.75 1.75-1.75s1.75 0.783 1.75 1.75z"></path>
</svg>
