<!-- Generated by IcoMoon.io -->
<svg version="1.1" xmlns="http://www.w3.org/2000/svg" width="32" height="32" viewBox="0 0 32 32">
<title>nutrition</title>
<path d="M8.54 0.321l-0.321 0.319v6.063l0.321 0.319c0.271 0.271 0.406 0.321 0.884 0.321s0.613-0.049 0.884-0.321l0.321-0.319v-6.063l-0.321-0.319c-0.271-0.271-0.406-0.321-0.884-0.321s-0.613 0.049-0.884 0.321zM15.116 0.321l-0.321 0.319v6.063l0.321 0.319c0.271 0.271 0.406 0.321 0.884 0.321s0.613-0.049 0.884-0.321l0.321-0.319v-6.063l-0.321-0.319c-0.271-0.271-0.406-0.321-0.884-0.321s-0.613 0.049-0.884 0.321zM21.691 0.321l-0.321 0.319v6.063l0.321 0.319c0.271 0.271 0.406 0.321 0.884 0.321s0.613-0.049 0.884-0.321l0.321-0.319v-6.063l-0.321-0.319c-0.271-0.271-0.406-0.321-0.884-0.321s-0.613 0.049-0.884 0.321zM3.368 9.98c-1.184 0.283-2.525 1.458-2.878 2.52-0.436 1.312-0.026 3.253 1.208 5.747 0.865 1.744 1.784 2.984 3.245 4.373 2.305 2.193 4.991 3.594 8.044 4.195 1.379 0.273 4.647 0.273 6.027 0 3.247-0.641 5.916-2.084 8.331-4.508 1.992-1.999 3.237-4.065 3.995-6.636 0.454-1.532 0.467-2.466 0.053-3.39-0.363-0.81-1.223-1.655-2.102-2.068l-0.631-0.296-12.439-0.018c-7.011-0.010-12.619 0.026-12.85 0.081zM28.346 12.5c0.51 0.248 0.916 0.791 0.916 1.226 0 0.524-0.559 2.221-1.093 3.322-0.676 1.391-1.562 2.583-2.808 3.776-2.668 2.556-5.678 3.768-9.36 3.768-2.282 0-4.185-0.434-6.082-1.386-1.665-0.835-3.71-2.573-4.932-4.194-0.973-1.29-2.247-4.297-2.246-5.3 0-0.449 0.367-0.944 0.891-1.203l0.478-0.237h11.884c11.795 0 11.887 0.002 12.352 0.227zM11.828 29.911c-0.271 0.271-0.321 0.406-0.321 0.884s0.049 0.613 0.321 0.884l0.319 0.321h7.707l0.319-0.321c0.271-0.271 0.321-0.406 0.321-0.884s-0.049-0.613-0.321-0.884l-0.319-0.321h-7.707l-0.319 0.321z"></path>
</svg>
