<!-- Generated by IcoMoon.io -->
<svg version="1.1" xmlns="http://www.w3.org/2000/svg" width="32" height="32" viewBox="0 0 32 32">
<title>nutritionTraining</title>
<path d="M5.941 1.258c-0.294 0.059-0.479 0.193-0.604 0.437-0.088 0.173-0.098 0.371-0.098 1.926s0.010 1.752 0.098 1.926c0.131 0.254 0.307 0.375 0.642 0.44 0.528 0.099 0.96-0.063 1.186-0.446 0.1-0.172 0.111-0.305 0.129-1.617 0.021-1.664-0.008-2.044-0.175-2.291-0.223-0.33-0.677-0.475-1.179-0.374zM9.705 1.253c-0.266 0.054-0.486 0.219-0.612 0.444l-0.002 0.005c-0.103 0.176-0.11 0.286-0.11 1.92s0.007 1.744 0.11 1.92c0.134 0.24 0.371 0.409 0.649 0.449l0.005 0.001c0.505 0.095 0.941-0.074 1.162-0.45 0.1-0.172 0.111-0.305 0.129-1.617 0.021-1.664-0.008-2.044-0.175-2.291-0.217-0.323-0.674-0.473-1.155-0.38zM13.446 1.254c-0.267 0.053-0.487 0.218-0.613 0.442l-0.002 0.005c-0.103 0.176-0.11 0.286-0.11 1.92s0.007 1.744 0.11 1.92c0.227 0.385 0.658 0.545 1.195 0.443 0.381-0.072 0.622-0.301 0.7-0.668 0.032-0.149 0.058-0.905 0.058-1.694s-0.026-1.546-0.058-1.694c-0.080-0.37-0.318-0.597-0.708-0.67-0.093-0.022-0.205-0.040-0.319-0.049l-0.008-0.001c-0.136 0.023-0.219 0.039-0.301 0.057l0.056-0.010zM2.962 6.761c-0.765 0.099-1.615 0.693-1.957 1.367-0.197 0.389-0.316 0.979-0.271 1.341 0.116 0.93 0.675 2.323 1.326 3.297 1.597 2.4 4.214 4.012 7.218 4.215l0.029 0.002c3.481 0.242 6.707-1.333 8.631-4.217 0.637-0.953 1.22-2.401 1.327-3.297 0.045-0.37-0.083-0.979-0.282-1.352-0.38-0.71-1.177-1.252-1.997-1.359-0.506-0.065-13.516-0.063-14.024 0.003zM16.932 8.875c0.323 0.168 0.338 0.32 0.103 1.059-0.383 1.177-1.034 2.177-1.884 2.966l-0.004 0.004c-1.003 0.964-2.277 1.652-3.697 1.939l-0.048 0.008c-0.517 0.102-2.289 0.102-2.806 0-1.468-0.296-2.742-0.984-3.748-1.95l0.003 0.002c-0.854-0.793-1.505-1.793-1.875-2.921l-0.014-0.049c-0.184-0.58-0.201-0.707-0.114-0.869 0.15-0.279-0.147-0.268 7.14-0.27 5.946-0.003 6.803 0.007 6.944 0.080zM24.571 16.315c-0.23 0.033-0.719 0.355-0.862 0.565-0.106 0.157-0.127 0.245-0.109 0.472 0.019 0.241 0.136 0.479 0.844 1.704 0.451 0.783 0.827 1.45 0.835 1.48 0.007 0.032-1.722 1.058-3.843 2.28-3.040 1.752-3.866 2.206-3.906 2.146-0.026-0.043-0.389-0.668-0.806-1.392-0.415-0.722-0.831-1.395-0.922-1.492-0.309-0.334-0.81-0.348-1.264-0.034-0.454 0.311-0.58 0.723-0.366 1.191 0.144 0.315 4.173 7.281 4.334 7.496 0.199 0.264 0.422 0.36 0.769 0.331 0.543-0.044 1.063-0.51 1.065-0.95 0-0.231-0.154-0.541-0.982-1.97-0.185-0.297-0.425-0.719-0.653-1.149l-0.069-0.143c0-0.043 7.547-4.425 7.671-4.456 0.033-0.007 0.404 0.587 0.827 1.32 0.421 0.734 0.828 1.418 0.902 1.517 0.182 0.242 0.387 0.341 0.707 0.341 0.316-0.001 0.767-0.235 0.952-0.497 0.097-0.144 0.155-0.321 0.155-0.512 0-0.090-0.013-0.178-0.037-0.26l0.002 0.007c-0.070-0.198-4.195-7.369-4.393-7.636-0.166-0.224-0.429-0.368-0.726-0.368-0.044 0-0.087 0.003-0.129 0.009l0.005-0.001zM27.714 16.829c-0.626 0.283-0.853 0.762-0.612 1.289 0.136 0.3 2.133 3.755 2.29 3.964 0.3 0.399 0.843 0.447 1.33 0.118 0.484-0.326 0.597-0.761 0.331-1.282-0.124-0.242-2.003-3.51-2.184-3.798-0.121-0.193-0.497-0.406-0.712-0.404-0.163 0.013-0.313 0.053-0.451 0.116l0.008-0.003zM7.935 17.74l-0.232 0.051c-0.249 0.054-0.499 0.341-0.563 0.646-0.077 0.366 0.005 0.833 0.176 1.018 0.298 0.318 0.261 0.314 2.682 0.314s2.384 0.004 2.682-0.314c0.253-0.272 0.27-1.033 0.027-1.358-0.083-0.1-0.18-0.184-0.289-0.252l-0.005-0.003c-0.177-0.105-0.294-0.11-2.278-0.12-1.15-0.004-2.14 0.003-2.201 0.017zM13.433 25.072c-0.516 0.234-0.787 0.63-0.712 1.041 0.032 0.175 1.626 3.026 2.236 4.001 0.355 0.565 0.762 0.701 1.3 0.433 0.518-0.259 0.748-0.655 0.629-1.085-0.051-0.186-2.096-3.787-2.344-4.129-0.17-0.207-0.419-0.344-0.7-0.364l-0.003-0c-0.149 0.011-0.287 0.048-0.413 0.106l0.007-0.003z"></path>
</svg>
