<!-- Generated by IcoMoon.io -->
<svg version="1.1" xmlns="http://www.w3.org/2000/svg" width="32" height="32" viewBox="0 0 32 32">
<title>open-yes</title>
<path d="M15.346 3.95c-3.503 0.142-6.601 1.247-9.412 3.355-2.069 1.549-3.731 3.525-4.876 5.807l-0.043 0.094c-0.581 1.166-0.689 1.605-0.689 2.794s0.108 1.628 0.689 2.794c2.153 4.319 6.175 7.587 10.747 8.734 1.527 0.383 2.599 0.514 4.238 0.514 2.4 0 4.425-0.396 6.451-1.257 3.762-1.602 6.739-4.389 8.534-7.991 0.581-1.166 0.689-1.605 0.69-2.794 0-1.122-0.097-1.557-0.567-2.555-2.052-4.361-6.197-7.785-10.87-8.974-1.294-0.337-2.78-0.53-4.311-0.53-0.204 0-0.408 0.003-0.611 0.010l0.029-0.001zM17.546 6.342c4.862 0.528 9.215 3.559 11.324 7.881 0.436 0.896 0.531 1.211 0.531 1.776s-0.095 0.88-0.531 1.776c-2.107 4.322-6.463 7.353-11.324 7.881-0.463 0.042-1.002 0.066-1.546 0.066s-1.083-0.024-1.615-0.071l0.069 0.005c-4.86-0.528-9.217-3.559-11.324-7.881-0.436-0.896-0.531-1.211-0.531-1.776s0.095-0.88 0.531-1.776c2.086-4.277 6.442-7.335 11.218-7.874 0.712-0.081 2.485-0.084 3.197-0.008zM15.369 10.207c-1.632 0.185-3.041 1.016-3.985 2.226l-0.010 0.013c-0.371 0.488-0.877 1.508-1.011 2.035-0.112 0.456-0.176 0.98-0.176 1.519s0.064 1.063 0.186 1.565l-0.009-0.045c0.134 0.527 0.64 1.547 1.011 2.035 0.57 0.751 1.273 1.304 2.214 1.744 0.7 0.332 1.52 0.525 2.386 0.525 0.209 0 0.416-0.011 0.62-0.033l-0.025 0.002c0.679-0.052 1.306-0.228 1.873-0.507l-0.030 0.013c1.332-0.622 2.191-1.465 2.825-2.774 0.302-0.567 0.501-1.233 0.554-1.939l0.001-0.017c0.020-0.178 0.031-0.385 0.031-0.595 0-0.866-0.194-1.686-0.54-2.421l0.015 0.035c-0.686-1.468-1.758-2.47-3.283-3.065-0.687-0.27-1.825-0.405-2.646-0.316zM16.894 12.608c0.586 0.151 1.086 0.447 1.568 0.93 0.711 0.711 1.028 1.471 1.028 2.462s-0.318 1.751-1.028 2.462c-0.711 0.711-1.471 1.028-2.462 1.028s-1.751-0.318-2.462-1.028c-0.711-0.711-1.028-1.471-1.028-2.462s0.318-1.751 1.028-2.462c0.715-0.714 1.427-1.016 2.421-1.024 0.316-0.003 0.717 0.037 0.935 0.094z"></path>
</svg>
