<!-- Generated by IcoMoon.io -->
<svg version="1.1" xmlns="http://www.w3.org/2000/svg" width="32" height="32" viewBox="0 0 32 32">
<title>pear</title>
<path d="M18.682 0.152c-0.656 0.134-1.106 0.564-1.358 1.298-0.608 1.765-0.564 3.842 0.113 5.448l0.204 0.485-0.585 0.020c-3.248 0.101-6.918 1.6-10.619 4.339-1.337 0.989-2.071 1.732-2.816 2.847-1.091 1.608-1.741 3.591-1.741 5.726 0 0.915 0.119 1.802 0.344 2.646l-0.016-0.072c0.819 3.117 2.985 5.61 5.822 6.857l0.066 0.026c3.901 1.671 8.417 0.815 11.365-2.152 1.307-1.315 3.104-4.043 4.118-6.253 1.028-2.239 1.522-4.267 1.517-6.238-0.003-1.612-0.338-2.823-1.135-4.125l-0.21-0.344 0.183-0.183c0.138-0.155 0.262-0.327 0.367-0.512l0.008-0.015c0.144-0.258 0.838-0.994 2.73-2.897 2.79-2.804 2.754-2.76 2.607-3.31-0.090-0.332-0.56-0.802-0.892-0.892-0.521-0.14-0.605-0.083-2.242 1.546-0.952 0.946-1.493 1.444-1.511 1.39-0.015-0.047-0.072-0.248-0.128-0.444-0.51-1.836-2.328-3.71-4.741-4.893-0.641-0.314-1.012-0.39-1.45-0.3zM19.982 2.933c0.989 0.612 1.923 1.478 2.334 2.164 0.402 0.669 0.512 1.066 0.515 1.867 0.003 0.807-0.101 1.229-0.362 1.474l-0.15 0.141-0.492-0.245c-1.726-0.857-2.681-2.332-2.694-4.162-0.005-0.548 0.063-1.168 0.167-1.516 0.036-0.122 0.057-0.113 0.683 0.276zM18.962 9.846c1.827 0.578 3.099 1.852 3.692 3.692 0.326 1.013 0.269 2.609-0.15 4.233-0.821 3.186-3.514 7.572-5.553 9.049-0.978 0.714-2.148 1.228-3.418 1.456l-0.051 0.008c-0.69 0.12-2.248 0.086-2.925-0.065-2.828-0.627-5.088-2.619-5.992-5.285-0.288-0.848-0.38-1.37-0.414-2.353-0.039-1.088 0.062-1.819 0.38-2.78 0.567-1.708 1.57-3.015 3.293-4.291 2.922-2.161 5.923-3.508 8.557-3.836 0.116-0.014 0.629-0.018 1.141-0.008 0.812 0.016 0.995 0.039 1.441 0.18z"></path>
</svg>
