<!-- Generated by IcoMoon.io -->
<svg version="1.1" xmlns="http://www.w3.org/2000/svg" width="32" height="32" viewBox="0 0 32 32">
<title>percent-discounts</title>
<path fill="none" stroke-linejoin="miter" stroke-linecap="round" stroke-miterlimit="4" stroke-width="2" stroke="#000" d="M10 22l12-12M10.75 10.75h0.9M10.75 11.65h0.9M20.35 20.35h0.9M20.35 21.25h0.9M28.626 11.825c-0.44-0.588-0.685-1.224-0.783-1.959l-0.391-2.694c-0.196-1.42-1.321-2.547-2.79-2.792l-2.692-0.392c-0.685-0.098-1.37-0.392-1.957-0.784l-2.105-1.567c-0.587-0.441-1.272-0.637-1.957-0.637s-1.37 0.196-1.958 0.637l-2.153 1.616c-0.587 0.441-1.223 0.686-1.958 0.784l-2.643 0.392c-1.419 0.196-2.545 1.322-2.79 2.792l-0.391 2.694c-0.098 0.686-0.391 1.371-0.783 1.959l-1.615 2.155c-0.881 1.176-0.881 2.792 0 3.918l1.615 2.155c0.44 0.588 0.685 1.224 0.783 1.959l0.391 2.694c0.196 1.42 1.321 2.547 2.79 2.792l2.692 0.392c0.685 0.098 1.37 0.392 1.958 0.784l2.153 1.616c1.175 0.882 2.79 0.882 3.915 0l2.153-1.616c0.587-0.441 1.224-0.686 1.958-0.784l2.692-0.392c1.419-0.196 2.545-1.323 2.79-2.792l0.391-2.694c0.098-0.686 0.392-1.372 0.783-1.959l1.615-2.155c0.881-1.176 0.881-2.792 0-3.918l-1.713-2.204zM12.4 11.2c0 0.663-0.537 1.2-1.2 1.2s-1.2-0.537-1.2-1.2c0-0.663 0.537-1.2 1.2-1.2s1.2 0.537 1.2 1.2zM22 20.8c0 0.663-0.537 1.2-1.2 1.2s-1.2-0.537-1.2-1.2c0-0.663 0.537-1.2 1.2-1.2s1.2 0.537 1.2 1.2z"></path>
</svg>
