<!-- Generated by IcoMoon.io -->
<svg version="1.1" xmlns="http://www.w3.org/2000/svg" width="32" height="32" viewBox="0 0 32 32">
<title>phone</title>
<path fill="none" stroke-linejoin="round" stroke-linecap="round" stroke-miterlimit="4" stroke-width="2" stroke="#000" d="M9.76 11.578c1.104 2.298 2.608 4.453 4.513 6.358s4.059 3.41 6.358 4.513c0.198 0.095 0.297 0.142 0.422 0.179 0.445 0.13 0.99 0.036 1.367-0.233 0.106-0.076 0.197-0.166 0.378-0.348 0.554-0.554 0.832-0.831 1.11-1.013 1.051-0.683 2.406-0.683 3.457 0 0.279 0.181 0.556 0.458 1.11 1.013l0.309 0.309c0.843 0.843 1.264 1.264 1.493 1.716 0.455 0.9 0.455 1.963 0 2.862-0.229 0.453-0.65 0.874-1.493 1.716l-0.25 0.25c-0.84 0.84-1.26 1.259-1.831 1.58-0.633 0.356-1.617 0.612-2.344 0.61-0.655-0.002-1.102-0.129-1.997-0.383-4.809-1.365-9.348-3.941-13.134-7.727s-6.362-8.325-7.727-13.134c-0.254-0.895-0.381-1.342-0.383-1.997-0.002-0.727 0.254-1.71 0.609-2.344 0.321-0.571 0.74-0.991 1.58-1.83l0.25-0.25c0.843-0.843 1.264-1.264 1.716-1.493 0.9-0.455 1.963-0.455 2.862 0 0.453 0.229 0.874 0.65 1.716 1.493l0.309 0.309c0.554 0.554 0.831 0.831 1.013 1.11 0.683 1.051 0.683 2.406 0 3.457-0.181 0.279-0.458 0.556-1.013 1.11-0.181 0.181-0.272 0.272-0.348 0.378-0.27 0.376-0.363 0.922-0.233 1.367 0.036 0.125 0.084 0.224 0.179 0.422z"></path>
</svg>
