<!-- Generated by IcoMoon.io -->
<svg version="1.1" xmlns="http://www.w3.org/2000/svg" width="32" height="32" viewBox="0 0 32 32">
<title>photo</title>
<path d="M13.438 0.068c-1.179 0.198-2.507 1.22-3.094 2.379-0.209 0.415-0.351 0.923-0.427 1.523l-0.11 0.902-1.382 0.076c-3.215 0.175-4.58 0.676-6.164 2.259-1.184 1.185-1.836 2.481-2.105 4.186-0.208 1.312-0.208 11.2 0 12.512 0.269 1.705 0.921 3 2.105 4.186 1.185 1.184 2.481 1.836 4.186 2.105 1.339 0.213 17.768 0.213 19.107 0 1.705-0.269 3-0.922 4.186-2.105 1.184-1.185 1.836-2.481 2.105-4.186 0.208-1.312 0.208-11.2 0-12.512-0.269-1.705-0.922-3-2.105-4.186-1.584-1.583-2.949-2.084-6.164-2.259l-1.381-0.076-0.112-0.91c-0.137-1.103-0.496-1.858-1.258-2.639-0.62-0.641-1.432-1.092-2.344-1.259l-0.027-0.004c-0.758-0.124-4.26-0.119-5.015 0.008zM18.72 2.681c0.61 0.435 0.915 0.933 0.984 1.606l0.063 0.613h-7.504v-0.317c0-0.696 0.153-1.057 0.664-1.566 0.284-0.284 0.633-0.541 0.778-0.57 0.143-0.030 1.251-0.046 2.46-0.036 2.11 0.015 2.212 0.026 2.555 0.27zM24.681 7.426c0.514 0.059 1.185 0.186 1.492 0.284 1.19 0.374 2.69 1.873 3.061 3.060 0.321 1.030 0.387 2.181 0.387 6.879s-0.066 5.849-0.387 6.879c-0.371 1.187-1.873 2.687-3.061 3.058-1.093 0.343-2.265 0.387-10.173 0.387-7.913 0-9.080-0.044-10.177-0.387-1.187-0.371-2.687-1.873-3.058-3.061-0.321-1.024-0.387-2.176-0.391-6.823-0.003-6.063 0.091-6.795 1.057-8.155 0.866-1.218 2.112-1.924 3.734-2.112 1.108-0.129 16.406-0.135 17.516-0.008zM14.602 11.659c-1.703 0.371-3.286 1.63-4.087 3.254-2.203 4.468 1.461 9.512 6.391 8.803 2.666-0.417 4.744-2.496 5.157-5.127l0.005-0.035c0.62-4.304-3.193-7.824-7.466-6.896zM17.505 14.236c0.734 0.318 1.682 1.301 1.965 2.039 0.142 0.366 0.211 0.823 0.211 1.373 0 1.098-0.26 1.754-1.014 2.544-0.821 0.862-1.461 1.134-2.667 1.134-0.742 0-1.052-0.053-1.505-0.257-0.735-0.33-1.685-1.319-1.965-2.047-0.285-0.742-0.285-2.006 0-2.747 0.231-0.598 1.123-1.621 1.655-1.898 1.014-0.529 2.301-0.584 3.32-0.142z"></path>
</svg>
