<!-- Generated by IcoMoon.io -->
<svg version="1.1" xmlns="http://www.w3.org/2000/svg" width="32" height="32" viewBox="0 0 32 32">
<title>previous</title>
<path d="M8.384 4.179c-0.186 0.087-1.181 1.049-4.005 3.872-3.618 3.618-3.763 3.773-3.98 4.197-0.308 0.604-0.399 0.999-0.399 1.711s0.091 1.107 0.399 1.711c0.217 0.424 0.362 0.579 3.98 4.197 2.979 2.979 3.81 3.781 4.017 3.875 0.54 0.246 1.096 0.097 1.626-0.43 0.523-0.523 0.66-1.092 0.395-1.642-0.095-0.199-0.848-0.989-3.051-3.2l-2.923-2.939 10.368 0.014c9.747 0.014 10.391 0.021 10.701 0.114 1.481 0.459 2.64 1.563 3.166 2.974l0.011 0.034c0.238 0.691 0.292 1.645 0.132 2.309-0.196 0.66-0.483 1.235-0.853 1.746l0.012-0.017c-0.416 0.518-0.888 0.967-1.413 1.347l-0.021 0.015c-0.414 0.265-1.007 0.534-1.448 0.654-0.317 0.087-0.722 0.101-3.506 0.13l-3.151 0.033-0.269 0.168c-0.192 0.112-0.342 0.278-0.432 0.477l-0.003 0.007c-0.145 0.285-0.161 0.372-0.161 0.838s0.017 0.552 0.161 0.838c0.228 0.443 0.501 0.606 1.156 0.685 0.755 0.093 5.989 0.029 6.539-0.079 2.379-0.472 4.596-2.18 5.765-4.443 0.552-1.074 0.799-2.067 0.801-3.233 0-0.027 0.001-0.060 0.001-0.092 0-1.263-0.318-2.452-0.878-3.49l0.019 0.039c-0.395-0.771-0.892-1.428-1.484-1.987l-0.004-0.003c-1.086-1.063-2.489-1.805-4.055-2.071l-0.045-0.006c-0.422-0.074-1.781-0.085-10.823-0.085h-10.341l2.95-2.966c2.224-2.234 2.983-3.029 3.078-3.227 0.265-0.55 0.128-1.119-0.395-1.642-0.53-0.528-1.103-0.678-1.638-0.428z"></path>
</svg>
