<!-- Generated by IcoMoon.io -->
<svg version="1.1" xmlns="http://www.w3.org/2000/svg" width="32" height="32" viewBox="0 0 32 32">
<title>pulse</title>
<path d="M10.847 1.741c-0.267 0.225-0.523 0.926-2.451 6.708l-2.151 6.458h-5.665l-0.289 0.291c-0.246 0.246-0.291 0.368-0.291 0.802s0.045 0.556 0.291 0.802l0.289 0.291h3.382c2.343 0 3.46-0.034 3.634-0.115 0.137-0.063 0.337-0.297 0.441-0.522 0.104-0.224 0.921-2.609 1.814-5.301s1.647-4.894 1.676-4.894c0.027 0 1.831 5.343 4.007 11.872 3.593 10.779 3.985 11.898 4.256 12.126 0.405 0.34 1.087 0.35 1.416 0.022 0.167-0.167 0.824-2.014 2.39-6.708l2.159-6.48h5.665l0.289-0.291c0.246-0.246 0.291-0.368 0.291-0.802s-0.045-0.556-0.291-0.802l-0.289-0.291h-3.382c-2.343 0-3.46 0.034-3.634 0.115-0.137 0.063-0.337 0.297-0.441 0.522-0.104 0.224-0.921 2.609-1.814 5.301s-1.647 4.894-1.676 4.894c-0.027 0-1.835-5.352-4.015-11.895-2.931-8.794-4.025-11.956-4.195-12.124-0.329-0.329-1.011-0.319-1.416 0.021z"></path>
</svg>
