<!-- Generated by IcoMoon.io -->
<svg version="1.1" xmlns="http://www.w3.org/2000/svg" width="32" height="32" viewBox="0 0 32 32">
<title>question</title>
<path d="M5.333 3.253c-0.37 0.020-0.715 0.065-1.051 0.134l0.045-0.008c-1.048 0.271-1.96 1.081-2.375 2.113-0.272 0.673-0.261 0.293-0.284 11.172-0.013 6.681-0.001 10.284 0.035 10.577 0.068 0.551 0.251 0.909 0.608 1.193 0.365 0.288 0.761 0.395 1.211 0.325 0.643-0.1 1.021-0.331 4.085-2.497 1.609-1.137 3.045-2.131 3.191-2.207l0.265-0.137 7.975-0.032c8.52-0.035 8.36-0.029 9.016-0.293 0.924-0.394 1.641-1.124 2.007-2.034l0.009-0.025c0.247-0.66 0.251-0.779 0.251-7.989s-0.004-7.329-0.251-7.989c-0.375-0.934-1.092-1.665-1.992-2.050l-0.024-0.009c-0.676-0.273-0.251-0.263-11.547-0.275-5.779-0.005-10.807 0.008-11.173 0.029zM27.017 5.284c0.639 0.115 1.128 0.604 1.245 1.245 0.080 0.439 0.080 13.591 0 14.035-0.115 0.636-0.609 1.131-1.236 1.244l-0.009 0.001c-0.217 0.039-2.685 0.057-7.813 0.059-4.124 0.001-7.725 0.023-8.005 0.048-0.648 0.049-1.237 0.268-1.733 0.613l0.011-0.008c-0.251 0.164-1.647 1.139-3.103 2.168-0.323 0.252-1.193 0.867-2.068 1.475l-0.602 0.396c-0.056 0-0.023-19.72 0.033-20.031 0.112-0.616 0.575-1.101 1.169-1.231 0.397-0.085 21.636-0.1 22.111-0.015z"></path>
</svg>
