<!-- Generated by IcoMoon.io -->
<svg version="1.1" xmlns="http://www.w3.org/2000/svg" width="32" height="32" viewBox="0 0 32 32">
<title>rating</title>
<path fill="none" stroke-linejoin="round" stroke-linecap="round" stroke-miterlimit="4" stroke-width="2" stroke="#000" d="M1.305 13.399c-0.476-0.436-0.218-1.225 0.427-1.3l9.128-1.072c0.263-0.031 0.491-0.195 0.601-0.432l3.85-8.267c0.272-0.583 1.109-0.583 1.381-0l3.85 8.267c0.111 0.238 0.337 0.402 0.6 0.432l9.129 1.072c0.644 0.076 0.903 0.864 0.426 1.301l-6.748 6.181c-0.194 0.178-0.281 0.443-0.229 0.7l1.791 8.93c0.126 0.63-0.551 1.118-1.117 0.804l-8.021-4.447c-0.231-0.128-0.512-0.128-0.743-0l-8.022 4.447c-0.566 0.314-1.244-0.174-1.117-0.804l1.791-8.93c0.052-0.257-0.035-0.522-0.229-0.7l-6.749-6.182z"></path>
</svg>
