<!-- Generated by IcoMoon.io -->
<svg version="1.1" xmlns="http://www.w3.org/2000/svg" width="32" height="32" viewBox="0 0 32 32">
<title>repeat</title>
<path d="M24.927 6.763v0zM27.53 1.866c0-0.616-0.5-1.116-1.116-1.116s-1.116 0.5-1.116 1.116h2.232zM18.976 8.189c-0.616 0-1.116 0.5-1.116 1.116s0.5 1.116 1.116 1.116v-2.232zM30.506 16.744c0-0.616-0.5-1.116-1.116-1.116s-1.116 0.5-1.116 1.116h2.232zM3.726 16.744c0-6.779 5.495-12.274 12.274-12.274v-2.232c-8.011 0-14.506 6.495-14.506 14.506h2.232zM16 4.47c3.144 0 6.010 1.181 8.183 3.125l1.488-1.663c-2.566-2.296-5.956-3.694-9.671-3.694v2.232zM25.299 1.866v5.951h2.232v-5.951h-2.232zM24.927 8.189h-5.951v2.232h5.951v-2.232zM28.274 16.744c0 6.779-5.495 12.274-12.274 12.274v2.232c8.011 0 14.506-6.495 14.506-14.506h-2.232zM27.213 7.541c-0.472-0.575-0.988-1.113-1.542-1.609l-1.488 1.663c0.469 0.42 0.906 0.876 1.306 1.363l1.724-1.417zM25.299 7.817c0 0.039-0.006 0.075-0.016 0.108l2.136 0.647c0.073-0.24 0.111-0.494 0.111-0.755h-2.232zM25.283 7.926c-0.046 0.154-0.19 0.264-0.356 0.264v2.232c1.177 0 2.169-0.78 2.492-1.848l-2.136-0.647zM16 29.018c-6.779 0-12.274-5.495-12.274-12.274h-2.232c0 8.011 6.495 14.506 14.506 14.506v-2.232z"></path>
</svg>
