<!-- Generated by IcoMoon.io -->
<svg version="1.1" xmlns="http://www.w3.org/2000/svg" width="32" height="32" viewBox="0 0 32 32">
<title>run-bicycle</title>
<path d="M1.297 6.535c-0.717 0-1.297 0.581-1.297 1.297s0.581 1.297 1.297 1.297v-2.595zM6.198 9.129c0.716 0 1.297-0.581 1.297-1.297s-0.581-1.297-1.297-1.297v2.595zM22.054 18.595l0.58 1.16c0.538-0.269 0.821-0.873 0.682-1.458s-0.661-0.999-1.262-0.999v1.297zM8.216 25.513v1.297c0.201 0 0.4-0.047 0.58-0.137l-0.58-1.16zM9.946 32c0.716 0 1.297-0.581 1.297-1.297s-0.581-1.297-1.297-1.297v2.595zM3.027 29.405c-0.716 0-1.297 0.581-1.297 1.297s0.581 1.297 1.297 1.297v-2.595zM15.329 21.957v0zM26.626 25.711c-0.369-0.614-1.166-0.814-1.78-0.445s-0.814 1.165-0.445 1.78l2.225-1.335zM25.513 29.405c-0.717 0-1.297 0.581-1.297 1.297s0.581 1.297 1.297 1.297v-2.595zM30.703 32c0.717 0 1.297-0.581 1.297-1.297s-0.581-1.297-1.297-1.297v2.595zM19.267 4.565l-0.41-1.231-1.211 0.404 0.384 1.217 1.237-0.39zM24.168 2.931l0.41 1.231 0.291-0.097 0.216-0.217-0.917-0.917zM26.719 2.215c0.507-0.507 0.507-1.328 0-1.835s-1.328-0.507-1.835 0l1.835 1.835zM27.676 20.324c0 3.105-2.517 5.622-5.622 5.622v2.595c4.538 0 8.216-3.679 8.216-8.216h-2.595zM22.054 14.703c3.105 0 5.622 2.517 5.622 5.622h2.595c0-4.538-3.679-8.216-8.216-8.216v2.595zM1.297 9.129h2.45v-2.595h-2.45v2.595zM3.748 9.129h2.451v-2.595h-2.451v2.595zM2.549 8.329l4.469 10.763 2.396-0.995-4.469-10.763-2.396 0.995zM8.216 24.216c-1.194 0-2.162-0.968-2.162-2.162h-2.595c0 2.627 2.13 4.757 4.757 4.757v-2.595zM6.054 22.054c0-1.194 0.968-2.162 2.162-2.162v-2.595c-2.627 0-4.757 2.13-4.757 4.757h2.595zM9.946 29.405h-6.919v2.595h6.919v-2.595zM15.909 23.118l6.725-3.363-1.16-2.321-6.725 3.363 1.16 2.321zM22.054 17.297h-6.701v2.595h6.701v-2.595zM8.216 19.892h7.137v-2.595h-7.137v2.595zM16.609 18.918c0.624-2.425 2.827-4.215 5.445-4.215v-2.595c-3.83 0-7.045 2.62-7.957 6.163l2.513 0.647zM8.796 26.674l7.113-3.556-1.16-2.321-7.113 3.556 1.16 2.321zM22.054 25.946c-2.646 0-4.868-1.829-5.464-4.294l-2.522 0.61c0.872 3.602 4.115 6.278 7.986 6.278v-2.595zM24.401 27.046l2.595 4.324 2.225-1.335-2.595-4.324-2.225 1.335zM28.108 29.405h-2.595v2.595h2.595v-2.595zM28.108 32h2.595v-2.595h-2.595v2.595zM23.291 13.015l-2.787-8.841-2.475 0.78 2.787 8.841 2.474-0.78zM19.677 5.795l4.901-1.634-0.82-2.461-4.901 1.634 0.82 2.461zM25.085 3.848l1.634-1.634-1.835-1.835-1.634 1.634 1.835 1.835z"></path>
</svg>
