<!-- Generated by IcoMoon.io -->
<svg version="1.1" xmlns="http://www.w3.org/2000/svg" width="32" height="32" viewBox="0 0 32 32">
<title>search</title>
<path d="M29.899 31.639c0.481 0.481 1.26 0.481 1.74 0s0.481-1.26 0-1.74l-1.74 1.74zM24.326 13.394c0 6.038-4.894 10.932-10.932 10.932v2.462c7.397 0 13.394-5.996 13.394-13.394h-2.462zM13.394 24.326c-6.038 0-10.932-4.894-10.932-10.932h-2.462c0 7.397 5.997 13.394 13.394 13.394v-2.462zM2.462 13.394c0-6.038 4.894-10.932 10.932-10.932v-2.462c-7.397 0-13.394 5.997-13.394 13.394h2.462zM13.394 2.462c6.038 0 10.932 4.894 10.932 10.932h2.462c0-7.397-5.996-13.394-13.394-13.394v2.462zM21.211 22.952l8.688 8.688 1.74-1.74-8.688-8.688-1.74 1.74z"></path>
</svg>
