<!-- Generated by IcoMoon.io -->
<svg version="1.1" xmlns="http://www.w3.org/2000/svg" width="32" height="32" viewBox="0 0 32 32">
<title>settings</title>
<path d="M13.614 0.044c-0.976 0.122-1.96 0.743-2.552 1.609-0.366 0.537-0.539 1.054-0.624 1.868-0.042 0.397-0.118 0.802-0.168 0.9-0.241 0.46-0.814 0.801-1.348 0.802-0.256 0.002-0.439-0.052-0.902-0.265-0.72-0.33-1.014-0.4-1.694-0.402-1.253-0.004-2.34 0.542-3.030 1.524-0.372 0.531-2.113 3.572-2.304 4.026-0.168 0.397-0.265 0.859-0.265 1.343 0 0.159 0.010 0.315 0.031 0.468l-0.002-0.018c0.18 1.179 0.646 1.96 1.552 2.599 0.825 0.58 1.009 0.854 1.009 1.502s-0.185 0.921-1.009 1.502c-0.906 0.638-1.372 1.42-1.552 2.599-0.085 0.557 0.006 1.247 0.237 1.793 0.191 0.454 1.932 3.494 2.304 4.026 0.691 0.982 1.777 1.528 3.030 1.524 0.68-0.002 0.973-0.071 1.694-0.402 0.461-0.211 0.647-0.266 0.902-0.266 0.57 0.002 1.179 0.394 1.383 0.893 0.048 0.115 0.104 0.449 0.127 0.744 0.049 0.667 0.161 1.075 0.438 1.603 0.4 0.763 1.112 1.398 1.936 1.725 0.607 0.243 1.238 0.287 3.612 0.26l2.113-0.024 0.47-0.162c0.542-0.169 1.007-0.454 1.383-0.828l-0 0c0.734-0.688 1.109-1.49 1.185-2.535 0.048-0.656 0.132-0.908 0.403-1.194 0.478-0.505 1.162-0.616 1.828-0.299 0.926 0.439 1.545 0.564 2.322 0.467 1.125-0.143 2.021-0.671 2.615-1.545 0.493-0.767 1.211-1.987 1.905-3.223l0.263-0.511c0.265-0.521 0.359-0.95 0.356-1.624-0.004-1.305-0.561-2.346-1.656-3.096-0.731-0.5-0.923-0.798-0.923-1.429s0.192-0.929 0.923-1.429c0.771-0.528 1.213-1.115 1.499-1.994 0.127-0.387 0.156-0.594 0.158-1.101 0.003-0.674-0.091-1.103-0.356-1.624-0.962-1.757-1.681-2.979-2.424-4.184l0.256 0.446c-0.658-0.976-1.807-1.561-3.061-1.557-0.68 0.002-0.973 0.071-1.694 0.402-0.461 0.211-0.647 0.266-0.902 0.266-0.57-0.002-1.179-0.394-1.383-0.893-0.048-0.115-0.104-0.467-0.128-0.784-0.076-1.045-0.451-1.847-1.185-2.535-0.376-0.374-0.84-0.659-1.359-0.821l-0.024-0.006-0.47-0.164-2.262-0.013c-1.244-0.006-2.438 0.009-2.654 0.036zM18.344 2.321c0.155 0.045 0.357 0.183 0.546 0.372 0.345 0.344 0.409 0.524 0.503 1.421 0.171 1.74 1.529 3.116 3.245 3.313l0.017 0.002c0.755 0.094 1.432-0.043 2.334-0.472 0.673-0.32 1.405-0.195 1.82 0.311 0.192 0.234 1.909 3.183 2.104 3.612 0.168 0.372 0.161 0.841-0.018 1.22-0.158 0.333-0.266 0.444-0.784 0.789-0.743 0.515-1.292 1.264-1.545 2.138l-0.007 0.028c-0.128 0.496-0.128 1.395 0 1.89 0.26 0.902 0.81 1.65 1.539 2.157l0.013 0.008c0.518 0.345 0.627 0.455 0.784 0.789 0.179 0.38 0.186 0.848 0.018 1.22-0.192 0.423-1.911 3.377-2.1 3.606-0.231 0.283-0.589 0.452-1.027 0.487-0.313 0.025-0.418 0.006-0.716-0.134-0.708-0.33-1.073-0.449-1.54-0.503-0.135-0.018-0.291-0.028-0.45-0.028-0.759 0-1.463 0.23-2.049 0.624l0.013-0.008c-0.981 0.644-1.53 1.548-1.652 2.725-0.094 0.894-0.158 1.076-0.503 1.418-0.189 0.189-0.391 0.327-0.546 0.372-0.173 0.052-0.874 0.073-2.381 0.071-2.020-0.002-2.151-0.007-2.404-0.122-0.612-0.277-0.817-0.637-0.933-1.627-0.127-1.088-0.454-1.779-1.164-2.45-0.471-0.427-1.047-0.748-1.684-0.918l-0.029-0.006c-0.242-0.044-0.521-0.069-0.806-0.069-0.030 0-0.061 0-0.091 0.001l0.005-0c-0.636 0.006-1.097 0.125-1.799 0.463-0.691 0.33-1.322 0.247-1.798-0.238-0.241-0.246-2.106-3.43-2.244-3.834-0.091-0.266-0.034-0.826 0.115-1.115 0.14-0.274 0.271-0.399 0.759-0.725 0.734-0.491 1.333-1.328 1.554-2.165 0.129-0.497 0.129-1.393 0-1.89-0.262-0.901-0.812-1.649-1.541-2.157l-0.013-0.008c-0.488-0.326-0.619-0.451-0.759-0.725-0.149-0.289-0.205-0.848-0.115-1.115 0.095-0.274 1.962-3.521 2.171-3.777 0.231-0.281 0.589-0.451 1.027-0.485 0.335-0.027 0.412-0.009 0.894 0.213 0.726 0.335 1.189 0.444 1.868 0.441 1.527-0.007 2.835-0.918 3.427-2.383 0.088-0.217 0.173-0.619 0.223-1.060 0.116-0.99 0.321-1.35 0.933-1.627 0.253-0.115 0.384-0.121 2.404-0.122 1.508-0.002 2.209 0.019 2.381 0.071zM15.321 8.98c-2.369 0.21-4.548 1.7-5.624 3.847-0.511 1.019-0.731 1.976-0.731 3.173 0 1.896 0.647 3.521 1.938 4.868 1.512 1.579 3.544 2.34 5.736 2.151 3.61-0.334 6.414-3.348 6.414-7.017 0-2.017-0.847-3.835-2.205-5.12l-0.003-0.003c-1.116-1.066-2.591-1.765-4.225-1.9l-0.025-0.002c-0.188-0.020-0.435-0.039-0.684-0.051l-0.030-0.001c-0.016 0.004-0.268 0.028-0.56 0.055zM17.016 11.269c0.951 0.199 1.601 0.566 2.381 1.338 0.972 0.963 1.359 1.838 1.408 3.185 0.055 1.534-0.332 2.521-1.412 3.602-1.008 1.008-2.008 1.429-3.393 1.429-0.020 0-0.043 0-0.067 0-0.893 0-1.728-0.247-2.441-0.676l0.021 0.012c-0.439-0.257-1.414-1.232-1.671-1.671-0.42-0.713-0.668-1.571-0.668-2.487s0.248-1.774 0.68-2.51l-0.013 0.023c0.257-0.439 1.232-1.414 1.671-1.671 0.422-0.254 0.912-0.452 1.433-0.568l0.033-0.006c0.545-0.107 1.521-0.107 2.037 0.002z"></path>
</svg>
