<!-- Generated by IcoMoon.io -->
<svg version="1.1" xmlns="http://www.w3.org/2000/svg" width="32" height="32" viewBox="0 0 32 32">
<title>share</title>
<path d="M24.748 0.78c-1.641 0.186-3.057 1.021-4.006 2.237l-0.010 0.013c-0.373 0.49-0.882 1.516-1.017 2.045-0.213 0.843-0.235 1.762-0.066 2.811l0.041 0.251-8.473 4.232-0.324-0.356c-0.493-0.524-1.079-0.953-1.733-1.263l-0.035-0.015c-0.57-0.304-1.239-0.504-1.949-0.557l-0.017-0.001c-0.179-0.020-0.387-0.031-0.598-0.031-0.87 0-1.695 0.195-2.433 0.543l0.035-0.015c-1.339 0.625-2.202 1.472-2.839 2.788-0.304 0.57-0.504 1.239-0.557 1.949l-0.001 0.017c-0.020 0.179-0.031 0.387-0.031 0.598 0 0.87 0.195 1.695 0.543 2.433l-0.015-0.035c0.625 1.339 1.472 2.202 2.788 2.839 0.57 0.304 1.239 0.504 1.949 0.557l0.017 0.001c0.183 0.021 0.395 0.033 0.609 0.033 0.911 0 1.771-0.218 2.531-0.606l-0.032 0.015c0.689-0.325 1.275-0.754 1.765-1.275l0.003-0.003 0.324-0.356 8.473 4.232-0.041 0.251c-0.236 1.469-0.113 2.597 0.407 3.709 0.625 1.339 1.472 2.202 2.788 2.839 0.728 0.373 1.588 0.591 2.5 0.591 0.215 0 0.426-0.012 0.635-0.036l-0.026 0.002c0.727-0.054 1.395-0.254 1.993-0.571l-0.027 0.013c1.316-0.637 2.163-1.5 2.788-2.839 0.333-0.703 0.528-1.528 0.528-2.399 0-0.211-0.011-0.418-0.034-0.623l0.002 0.025c-0.052-0.683-0.23-1.313-0.51-1.883l0.013 0.030c-0.625-1.339-1.472-2.202-2.788-2.839-0.57-0.304-1.239-0.504-1.949-0.557l-0.017-0.001c-0.183-0.021-0.395-0.033-0.609-0.033-0.911 0-1.771 0.218-2.531 0.606l0.032-0.015c-0.689 0.325-1.275 0.754-1.765 1.275l-0.003 0.003-0.324 0.356-8.473-4.232 0.041-0.251c0.072-0.386 0.114-0.83 0.114-1.284s-0.041-0.898-0.121-1.329l0.007 0.045-0.041-0.251 8.473-4.232 0.324 0.356c0.493 0.524 1.079 0.953 1.733 1.263l0.035 0.015c0.57 0.304 1.239 0.504 1.949 0.557l0.017 0.001c0.179 0.020 0.387 0.031 0.598 0.031 0.87 0 1.695-0.195 2.433-0.543l-0.035 0.015c1.339-0.625 2.202-1.472 2.839-2.788 0.304-0.57 0.504-1.239 0.557-1.949l0.001-0.017c0.020-0.179 0.031-0.387 0.031-0.598 0-0.87-0.195-1.695-0.543-2.433l0.015 0.035c-0.689-1.475-1.767-2.482-3.3-3.081-0.691-0.271-1.834-0.407-2.659-0.318zM26.282 3.193c0.589 0.152 1.092 0.449 1.576 0.935 0.714 0.714 1.034 1.478 1.034 2.475s-0.319 1.76-1.034 2.475c-0.714 0.714-1.478 1.034-2.475 1.034s-1.76-0.319-2.475-1.034c-0.714-0.714-1.034-1.478-1.034-2.475s0.319-1.76 1.034-2.475c0.719-0.717 1.435-1.021 2.434-1.029 0.318-0.003 0.72 0.038 0.94 0.094zM7.487 12.59c0.589 0.152 1.092 0.449 1.576 0.935 0.714 0.714 1.034 1.478 1.034 2.475s-0.319 1.76-1.034 2.475c-0.714 0.714-1.478 1.034-2.475 1.034s-1.76-0.319-2.475-1.034c-0.714-0.714-1.034-1.478-1.034-2.475s0.319-1.76 1.034-2.475c0.719-0.717 1.435-1.021 2.434-1.029 0.318-0.003 0.72 0.038 0.94 0.094zM26.282 21.988c0.589 0.152 1.092 0.449 1.576 0.935 0.714 0.714 1.034 1.478 1.034 2.475s-0.319 1.76-1.034 2.475c-0.714 0.714-1.478 1.034-2.475 1.034s-1.76-0.319-2.475-1.034c-0.714-0.714-1.034-1.478-1.034-2.475s0.319-1.76 1.034-2.475c0.719-0.717 1.435-1.021 2.434-1.029 0.318-0.003 0.72 0.038 0.94 0.094z"></path>
</svg>
