<!-- Generated by IcoMoon.io -->
<svg version="1.1" xmlns="http://www.w3.org/2000/svg" width="32" height="32" viewBox="0 0 32 32">
<title>sleep</title>
<path d="M12.718 0.414c-2.801 0.823-5.174 2.252-7.082 4.263-2.594 2.739-4.067 6.089-4.315 9.821-0.251 3.772 0.853 7.446 3.173 10.542 0.594 0.794 2.156 2.355 2.943 2.945 3.12 2.331 6.665 3.4 10.518 3.172 3.255-0.193 6.14-1.301 8.834-3.397 1.523-1.183 3.579-3.703 3.767-4.616 0.025-0.116 0.039-0.249 0.039-0.386 0-0.561-0.242-1.065-0.627-1.415l-0.002-0.001c-0.526-0.493-0.737-0.555-2.112-0.617-2.18-0.097-3.764-0.488-5.505-1.36-1.391-0.697-2.359-1.398-3.487-2.524-2.093-2.095-3.331-4.55-3.766-7.475-0.295-1.977-0.116-3.969 0.549-6.118 0.2-0.649 0.233-0.84 0.211-1.193-0.053-0.773-0.419-1.333-1.093-1.67-0.544-0.272-1.043-0.266-2.046 0.029zM13.076 3.415c-1.238 4.696-0.259 9.639 2.689 13.575 0.929 1.24 2.647 2.819 4.038 3.711 2.117 1.357 4.886 2.27 7.261 2.394 0.399 0.021 0.724 0.060 0.724 0.084 0 0.106-0.705 0.963-1.298 1.579-1.038 1.083-2.26 1.98-3.618 2.641l-0.075 0.033c-1.906 0.935-3.688 1.348-5.841 1.349-0.016 0-0.036 0-0.055 0-2.58 0-4.986-0.744-7.015-2.030l0.054 0.032c-1.714-1.108-3.131-2.525-4.206-4.184l-0.033-0.055c-2.032-3.278-2.555-7.309-1.417-10.93 1.114-3.545 3.487-6.334 6.788-7.982 0.729-0.364 2.090-0.898 2.146-0.842 0.010 0.011-0.053 0.291-0.142 0.625z"></path>
</svg>
