<!-- Generated by IcoMoon.io -->
<svg version="1.1" xmlns="http://www.w3.org/2000/svg" width="32" height="32" viewBox="0 0 32 32">
<title>squid</title>
<path fill="none" stroke-linejoin="miter" stroke-linecap="round" stroke-miterlimit="4" stroke-width="2" stroke="#000" d="M15.998 23.159c0 1.907-2.078 3.815-5.261 4.782-1.327 0.403-2.050-1.361-1.356-2.526 0.343-0.577 0.581-1.152 0.738-1.712 0.254-0.906-0.705-1.569-1.645-1.333-3.175 0.8-5.344 0.532-6.874-0.128-1.105-0.477-0.558-1.777 0.649-1.862 1.831-0.128 3.139-0.524 5.047-1.746 0.535-0.343 0.723-1.004 0.537-1.598-0.38-1.214-0.572-2.48-0.567-3.756 0-5.853 3.912-7.782 8.738-7.782M16.002 23.159c0 1.907 2.078 3.815 5.261 4.782 1.327 0.403 2.050-1.361 1.356-2.526-0.343-0.577-0.581-1.152-0.738-1.712-0.254-0.906 0.705-1.569 1.645-1.333 3.175 0.8 5.344 0.532 6.874-0.128 1.105-0.477 0.558-1.777-0.649-1.862-1.831-0.128-3.139-0.524-5.047-1.746-0.535-0.343-0.723-1.004-0.537-1.598 0.38-1.214 0.572-2.48 0.567-3.756 0-5.853-3.912-7.782-8.738-7.782M13.187 13.651v2.717M18.809 13.651v2.717"></path>
</svg>
