<!-- Generated by IcoMoon.io -->
<svg version="1.1" xmlns="http://www.w3.org/2000/svg" width="32" height="32" viewBox="0 0 32 32">
<title>star-outline</title>
<path d="M15.633 1.32c-0.383 0.076-0.882 0.364-1.092 0.629-0.099 0.124-0.996 1.998-1.996 4.162-1.117 2.531-1.743 3.842-2.383 5.144l0.513-1.155c-0.029 0.029-1.982 0.283-4.34 0.563s-4.388 0.54-4.51 0.582c-1.262 0.412-1.719 2.010-0.864 3.021 0.095 0.113 1.581 1.508 3.304 3.1l3.132 2.895-0.849 4.243c-0.941 4.699-0.944 4.734-0.626 5.384 0.367 0.753 1.336 1.201 2.133 0.987 0.157-0.041 1.993-1.031 4.079-2.199s3.828-2.123 3.868-2.123c0.041 0 1.788 0.96 3.881 2.131 4.148 2.323 4.181 2.338 4.867 2.201 0.416-0.084 0.912-0.38 1.143-0.682 0.229-0.299 0.405-0.804 0.405-1.157 0-0.167-0.381-2.21-0.849-4.542l-0.847-4.238 2.291-2.117c4.143-3.825 4.237-3.917 4.416-4.306 0.107-0.232 0.17-0.504 0.17-0.791 0-0.3-0.068-0.584-0.191-0.837l0.005 0.012c-0.208-0.427-0.642-0.825-1.044-0.957-0.164-0.054-2.226-0.327-4.585-0.609-2.358-0.28-4.31-0.531-4.337-0.558s-0.864-1.818-1.864-3.981c-0.998-2.163-1.902-4.043-2.007-4.176-0.362-0.458-1.209-0.748-1.824-0.626zM17.301 7.117c2.303 5.001 2.222 4.855 2.851 5.161 0.296 0.143 0.713 0.205 4.143 0.607 2.222 0.239 3.592 0.414 4.957 0.603l-0.957-0.109c0.181 0.046 0.103 0.126-2.763 2.781-3.334 3.089-3.323 3.076-3.318 3.89 0.002 0.289 0.253 1.684 0.761 4.232 0.563 2.822 0.736 3.792 0.667 3.765-0.049-0.019-1.54-0.845-3.31-1.837 0.537 0.231-0.609-0.416-1.76-1.056l-1.746-0.892c-0.369-0.186-1.012-0.237-1.381-0.108-0.146 0.051-1.781 0.941-3.631 1.975 0.27-0.092-0.861 0.546-1.997 1.176l-1.461 0.744c-0.072 0.027 0.083-0.844 0.666-3.734 0.829-4.119 0.871-4.442 0.631-4.975-0.073-0.168-0.157-0.312-0.255-0.445l0.004 0.006c-0.059-0.067-1.408-1.327-2.995-2.797-2.808-2.601-2.883-2.676-2.701-2.724 0.408-0.081 1.777-0.255 3.152-0.414l0.848-0.080c3.429-0.402 3.847-0.464 4.143-0.607 0.629-0.307 0.599-0.249 2.883-5.225 0.679-1.478 1.249-2.686 1.268-2.686 0.021 0 0.607 1.236 1.303 2.749z"></path>
</svg>
