<!-- Generated by IcoMoon.io -->
<svg version="1.1" xmlns="http://www.w3.org/2000/svg" width="32" height="32" viewBox="0 0 32 32">
<title>star</title>
<path stroke-linejoin="round" stroke-linecap="round" stroke-miterlimit="4" stroke-width="2" stroke="#000" fill="#000" d="M1.334 13.404c-0.475-0.435-0.217-1.222 0.426-1.298l9.11-1.070c0.262-0.031 0.49-0.194 0.6-0.432l3.843-8.251c0.271-0.582 1.107-0.582 1.378-0l3.843 8.251c0.111 0.237 0.337 0.401 0.599 0.431l9.111 1.070c0.643 0.076 0.901 0.863 0.426 1.298l-6.735 6.169c-0.194 0.178-0.28 0.442-0.229 0.698l1.787 8.912c0.126 0.629-0.55 1.116-1.115 0.802l-8.005-4.438c-0.23-0.127-0.511-0.128-0.741-0l-8.006 4.438c-0.565 0.313-1.241-0.173-1.115-0.802l1.788-8.912c0.051-0.256-0.035-0.521-0.229-0.698l-6.736-6.169z"></path>
</svg>
