<!-- Generated by IcoMoon.io -->
<svg version="1.1" xmlns="http://www.w3.org/2000/svg" width="32" height="32" viewBox="0 0 32 32">
<title>target</title>
<path d="M24.164 0.027c-0.448 0.108-0.688 0.309-2.626 2.206-2.492 2.437-2.456 2.401-2.605 2.725l-0.125 0.273-0.025 6.538-1.988 1.993c-1.694 1.7-1.994 2.026-2.045 2.214-0.195 0.735 0.762 1.56 1.42 1.223 0.071-0.035 1.013-0.947 2.094-2.023l1.964-1.959 3.27-0.012c3.231-0.012 3.272-0.014 3.527-0.131 0.331-0.154 0.455-0.271 2.751-2.62 2.183-2.233 2.217-2.279 2.217-2.984 0-0.466-0.128-0.788-0.454-1.141-0.138-0.145-0.296-0.269-0.471-0.367l-0.010-0.005c-0.251-0.123-0.293-0.125-2.545-0.153l-2.29-0.027-0.027-2.29c-0.027-2.252-0.030-2.294-0.153-2.545-0.197-0.349-0.487-0.625-0.835-0.802l-0.011-0.005c-0.284-0.123-0.762-0.172-1.033-0.106zM14.691 0.439c-2.232 0.191-3.955 0.665-5.923 1.632-1.649 0.81-3.010 1.808-4.358 3.198-1.695 1.747-2.989 3.892-3.727 6.281l-0.030 0.111c-0.725 2.395-0.849 5.295-0.331 7.788 1.171 5.641 5.423 10.27 10.934 11.904 1.361 0.41 2.924 0.646 4.543 0.646 1.149 0 2.271-0.119 3.353-0.345l-0.106 0.019c3.016-0.646 5.627-2.084 7.69-4.085l-0.004 0.004c0.804-0.759 1.517-1.6 2.13-2.513l0.033-0.053c1.699-2.526 2.638-5.468 2.665-8.343 0.010-0.977-0.034-1.138-0.361-1.337-0.416-0.252-1.114-0.183-1.397 0.14-0.195 0.222-0.207 0.286-0.277 1.442-0.179 2.995-1.193 5.645-3.037 7.934-0.556 0.69-1.693 1.794-2.377 2.308-1.751 1.327-3.868 2.265-6.174 2.644l-0.082 0.011c-0.78 0.121-2.594 0.166-3.412 0.084-2.597-0.26-5.040-1.243-7.166-2.885-0.596-0.459-1.84-1.704-2.3-2.3-1.641-2.127-2.624-4.57-2.885-7.166-0.082-0.818-0.037-2.632 0.084-3.412 0.348-2.226 1.281-4.435 2.639-6.237 0.529-0.701 1.63-1.836 2.324-2.397 1.765-1.435 3.928-2.451 6.297-2.863l0.082-0.012c0.36-0.060 1.072-0.134 1.581-0.162 1.085-0.064 1.28-0.108 1.467-0.33 0.273-0.323 0.32-0.946 0.101-1.321-0.183-0.314-0.399-0.391-1.104-0.399-0.067-0.001-0.147-0.002-0.226-0.002-0.227 0-0.453 0.006-0.678 0.017l0.032-0.001zM24.352 6.866c0.187 0.35 0.492 0.643 0.836 0.802 0.264 0.121 0.33 0.127 2.274 0.153l2.001 0.027-3.221 3.299h-5.389v-5.389l3.299-3.221 0.055 4.057 0.146 0.273zM14.173 5.912c-1.789 0.296-3.376 0.999-4.717 2.010l0.027-0.020c-0.38 0.303-0.72 0.606-1.042 0.927l0-0c-2.8 2.777-3.78 6.861-2.556 10.647 0.244 0.757 0.912 2.087 1.36 2.713 1.069 1.489 2.275 2.525 3.873 3.326 1.346 0.705 2.94 1.119 4.631 1.119 0.453 0 0.899-0.030 1.336-0.087l-0.051 0.006c3.366-0.416 6.198-2.382 7.795-5.15l0.027-0.050c0.866-1.527 1.375-3.448 1.329-5.004-0.020-0.683-0.078-0.821-0.432-1.029-0.26-0.153-0.874-0.153-1.14 0.001-0.284 0.164-0.436 0.504-0.438 0.977-0.003 1.097-0.363 2.617-0.851 3.591-0.93 1.858-2.492 3.314-4.366 4.069-0.943 0.399-2.040 0.632-3.191 0.632-0.591 0-1.168-0.061-1.725-0.178l0.054 0.010c-1.248-0.282-2.346-0.791-3.3-1.485l0.026 0.018c-2.987-2.226-4.171-6.1-2.924-9.571 0.821-2.287 2.692-4.192 4.924-5.013 0.893-0.329 2.034-0.547 2.878-0.548 0.473-0.001 0.814-0.154 0.977-0.438 0.154-0.266 0.154-0.879 0.001-1.14-0.218-0.369-0.334-0.413-1.136-0.425-0.045-0.001-0.097-0.001-0.15-0.001-0.432 0-0.855 0.034-1.268 0.1l0.046-0.006z"></path>
</svg>
