<!-- Generated by IcoMoon.io -->
<svg version="1.1" xmlns="http://www.w3.org/2000/svg" width="32" height="32" viewBox="0 0 32 32">
<title>tired</title>
<path fill="none" stroke-linejoin="round" stroke-linecap="round" stroke-miterlimit="4" stroke-width="2" stroke="#000" d="M11.083 12.721h0.016"></path>
<path fill="none" stroke-linejoin="round" stroke-linecap="round" stroke-miterlimit="4" stroke-width="2" stroke="#000" d="M20.916 12.721h0.016"></path>
<path fill="none" stroke-linejoin="round" stroke-linecap="round" stroke-miterlimit="4" stroke-width="2" stroke="#000" d="M11.903 21.326c0.534-0.545 1.172-0.978 1.875-1.274s1.459-0.448 2.222-0.448c0.763 0 1.519 0.152 2.222 0.448s1.341 0.729 1.875 1.274"></path>
<path fill="none" stroke-linejoin="round" stroke-linecap="round" stroke-miterlimit="4" stroke-width="2" stroke="#000" d="M2.177 3.882c-0.447 0.46-0.749 1.041-0.869 1.671s-0.053 1.282 0.194 1.874c0.247 0.592 0.662 1.099 1.193 1.458s1.157 0.553 1.799 0.56c0.641 0.007 1.271-0.175 1.81-0.523s0.964-0.845 1.223-1.432c0.259-0.587 0.34-1.237 0.233-1.869s-0.397-1.22-0.835-1.689l-2.398-2.681-2.35 2.632z"></path>
<path fill="none" stroke-linejoin="round" stroke-linecap="round" stroke-miterlimit="4" stroke-width="2" stroke="#000" d="M1.471 13.514c-0.144 0.821-0.218 1.653-0.221 2.486 0 2.917 0.865 5.769 2.486 8.195s3.924 4.316 6.62 5.433 5.661 1.408 8.522 0.84c2.861-0.569 5.489-1.974 7.552-4.037s3.468-4.691 4.037-7.552c0.569-2.861 0.277-5.827-0.84-8.522s-3.007-4.999-5.433-6.62c-2.425-1.621-5.277-2.486-8.195-2.486-1.131 0-2.229 0.125-3.278 0.364"></path>
</svg>
