<!-- Generated by IcoMoon.io -->
<svg version="1.1" xmlns="http://www.w3.org/2000/svg" width="33" height="32" viewBox="0 0 33 32">
<title>today</title>
<path d="M9.588-1.517c-0.614 0.282-0.719 0.576-0.719 2.014v1.119l-1.316 0.039c-0.865 0.026-1.492 0.079-1.83 0.156-1.502 0.341-2.754 1.505-3.179 2.956-0.225 0.758-0.24 1.49-0.24 11.232s0.015 10.474 0.24 11.232c0.394 1.344 1.549 2.497 2.897 2.894 0.752 0.22 1.505 0.236 11.225 0.236 9.742 0 10.474-0.015 11.232-0.24 1.339-0.392 2.498-1.554 2.894-2.897 0.22-0.752 0.236-1.505 0.236-11.225 0-9.742-0.015-10.474-0.24-11.232-0.322-1.1-1.156-2.081-2.219-2.615-0.688-0.345-1.293-0.453-2.79-0.497l-1.316-0.039v-1.137c0-1.044-0.013-1.162-0.154-1.443-0.199-0.401-0.606-0.673-1.077-0.673s-0.878 0.271-1.074 0.666l-0.003 0.007c-0.141 0.281-0.154 0.399-0.154 1.453v1.149h-10.669l-0.002-1.146c-0.002-1.469-0.112-1.758-0.768-2.032-0.136-0.062-0.295-0.098-0.462-0.098-0.186 0-0.362 0.045-0.517 0.124l0.006-0.003zM26.716 4.167c0.676 0.079 1.069 0.282 1.416 0.74 0.32 0.417 0.368 0.653 0.412 2.048l0.041 1.247h-23.839l0.041-1.247c0.044-1.395 0.092-1.632 0.412-2.048 0.308-0.412 0.778-0.688 1.313-0.735l0.007-0c0.693-0.080 19.5-0.085 20.197-0.005zM28.549 18.479c-0.018 6.024-0.043 7.872-0.108 8.069-0.222 0.66-0.845 1.164-1.586 1.28-0.612 0.098-19.767 0.098-20.379 0-0.74-0.117-1.364-0.62-1.586-1.28-0.066-0.197-0.090-2.045-0.108-8.069l-0.021-7.813h23.81l-0.021 7.813zM21.11 14.877c-0.149 0.064-1.328 1.19-3.163 3.023l-2.923 2.92-1.282-1.279c-1.303-1.302-1.563-1.492-2.016-1.489-0.268 0.002-0.726 0.2-0.888 0.384-0.186 0.236-0.306 0.532-0.326 0.855l-0 0.005c0 0.123 0.059 0.348 0.13 0.499 0.176 0.376 3.573 3.752 3.918 3.895 0.137 0.063 0.296 0.1 0.465 0.1s0.328-0.037 0.472-0.103l-0.007 0.003c0.35-0.144 7.020-6.794 7.201-7.178 0.077-0.15 0.122-0.328 0.122-0.516 0-0.186-0.044-0.361-0.122-0.516l0.003 0.007c-0.113-0.29-0.345-0.513-0.634-0.612l-0.007-0.002c-0.137-0.062-0.298-0.097-0.467-0.097-0.172 0-0.335 0.037-0.481 0.104l0.007-0.003z"></path>
</svg>
