<!-- Generated by IcoMoon.io -->
<svg version="1.1" xmlns="http://www.w3.org/2000/svg" width="32" height="32" viewBox="0 0 32 32">
<title>training</title>
<path d="M5.252 8.54l-0.321 0.319v14.282l0.321 0.319c0.271 0.271 0.406 0.321 0.884 0.321s0.613-0.049 0.884-0.321l0.321-0.319v-5.936h17.317v5.936l0.321 0.319c0.271 0.271 0.406 0.321 0.884 0.321s0.613-0.049 0.884-0.321l0.321-0.319v-14.282l-0.321-0.319c-0.271-0.271-0.406-0.321-0.884-0.321s-0.613 0.049-0.884 0.321l-0.321 0.319v5.936h-17.317v-5.936l-0.321-0.319c-0.271-0.271-0.406-0.321-0.884-0.321s-0.613 0.049-0.884 0.321zM0.321 11.828l-0.321 0.319v7.707l0.321 0.319c0.271 0.271 0.406 0.321 0.884 0.321s0.613-0.049 0.884-0.321l0.321-0.319v-7.707l-0.321-0.319c-0.271-0.271-0.406-0.321-0.884-0.321s-0.613 0.049-0.884 0.321zM29.911 11.828l-0.321 0.319v7.707l0.321 0.319c0.271 0.271 0.406 0.321 0.884 0.321s0.613-0.049 0.884-0.321l0.321-0.319v-7.707l-0.321-0.319c-0.271-0.271-0.406-0.321-0.884-0.321s-0.613 0.049-0.884 0.321z"></path>
</svg>
