<!-- Generated by IcoMoon.io -->
<svg version="1.1" xmlns="http://www.w3.org/2000/svg" width="32" height="32" viewBox="0 0 32 32">
<title>trash</title>
<path d="M13.949 12.718c0-0.68-0.551-1.231-1.231-1.231s-1.231 0.551-1.231 1.231h2.462zM11.487 25.846c0 0.68 0.551 1.231 1.231 1.231s1.231-0.551 1.231-1.231h-2.462zM20.513 12.718c0-0.68-0.551-1.231-1.231-1.231s-1.231 0.551-1.231 1.231h2.462zM18.051 25.846c0 0.68 0.551 1.231 1.231 1.231s1.231-0.551 1.231-1.231h-2.462zM7.946 30.411v0zM6.512 28.977v0zM25.488 28.977v0zM24.054 30.411v0zM4.513 6.564c-0.68 0-1.231 0.551-1.231 1.231s0.551 1.231 1.231 1.231v-2.462zM27.487 9.026c0.68 0 1.231-0.551 1.231-1.231s-0.551-1.231-1.231-1.231v2.462zM9.026 7.795c0 0.68 0.551 1.231 1.231 1.231s1.231-0.551 1.231-1.231h-2.462zM20.513 7.795c0 0.68 0.551 1.231 1.231 1.231s1.231-0.551 1.231-1.231h-2.462zM11.487 12.718v13.128h2.462v-13.128h-2.462zM18.051 12.718v13.128h2.462v-13.128h-2.462zM24.615 7.795v17.723h2.462v-17.723h-2.462zM20.595 29.538h-9.19v2.462h9.19v-2.462zM4.923 7.795v17.723h2.462v-17.723h-2.462zM11.405 29.538c-0.939 0-1.57-0.001-2.055-0.041-0.471-0.038-0.696-0.107-0.845-0.183l-1.117 2.193c0.553 0.282 1.139 0.392 1.762 0.443 0.609 0.050 1.357 0.049 2.256 0.049v-2.462zM4.923 25.518c0 0.899-0.001 1.647 0.049 2.256 0.051 0.623 0.161 1.209 0.443 1.762l2.193-1.118c-0.076-0.149-0.144-0.374-0.183-0.845-0.040-0.486-0.041-1.116-0.041-2.055h-2.462zM8.505 29.315c-0.386-0.197-0.7-0.511-0.896-0.896l-2.193 1.118c0.433 0.849 1.123 1.539 1.972 1.972l1.117-2.193zM24.615 25.518c0 0.939-0.001 1.57-0.041 2.055-0.038 0.471-0.107 0.696-0.183 0.845l2.193 1.118c0.282-0.553 0.392-1.139 0.443-1.762 0.050-0.609 0.049-1.357 0.049-2.256h-2.462zM20.595 32c0.899 0 1.647 0.001 2.256-0.049 0.623-0.051 1.209-0.161 1.762-0.443l-1.118-2.193c-0.149 0.076-0.374 0.144-0.845 0.183-0.486 0.040-1.116 0.041-2.055 0.041v2.462zM24.392 28.418c-0.197 0.386-0.511 0.7-0.896 0.896l1.118 2.193c0.849-0.433 1.539-1.123 1.972-1.972l-2.193-1.118zM4.513 9.026h1.641v-2.462h-1.641v2.462zM6.154 9.026h19.692v-2.462h-19.692v2.462zM25.846 9.026h1.641v-2.462h-1.641v2.462zM11.487 6.482c0-2.119 1.914-4.021 4.513-4.021v-2.462c-3.746 0-6.974 2.801-6.974 6.482h2.462zM16 2.462c2.599 0 4.513 1.902 4.513 4.021h2.462c0-3.681-3.229-6.482-6.974-6.482v2.462zM9.026 6.482v1.313h2.462v-1.313h-2.462zM20.513 6.482v1.313h2.462v-1.313h-2.462z"></path>
</svg>
