<!-- Generated by IcoMoon.io -->
<svg version="1.1" xmlns="http://www.w3.org/2000/svg" width="32" height="32" viewBox="0 0 32 32">
<title>trx</title>
<path d="M8.558 17.488l-0.789-0.789c-0.209 0.209-0.327 0.493-0.327 0.789h1.116zM23.442 17.488h1.116c0-0.296-0.118-0.58-0.327-0.789l-0.789 0.789zM17.116 1.116c0-0.617-0.5-1.116-1.116-1.116s-1.116 0.5-1.116 1.116h2.233zM8.558 18.605h14.884v-2.233h-14.884v2.233zM24.231 16.699l-7.442-7.442-1.579 1.579 7.442 7.442 1.579-1.579zM15.211 9.257l-7.442 7.442 1.579 1.579 7.442-7.442-1.579-1.579zM17.116 10.046v-8.93h-2.233v8.93h2.233zM22.326 17.488c0 2.713-0.708 5.891-1.931 8.36-1.265 2.554-2.844 3.919-4.395 3.919v2.233c2.914 0 5.056-2.455 6.396-5.161 1.382-2.791 2.162-6.31 2.162-9.351h-2.233zM16 29.767c-1.551 0-3.13-1.365-4.395-3.919-1.223-2.469-1.931-5.647-1.931-8.36h-2.233c0 3.041 0.781 6.56 2.163 9.351 1.34 2.705 3.482 5.161 6.396 5.161v-2.233z"></path>
</svg>
