<!-- Generated by IcoMoon.io -->
<svg version="1.1" xmlns="http://www.w3.org/2000/svg" width="32" height="32" viewBox="0 0 32 32">
<title>usefulFacts</title>
<path d="M14.189 0.127c-1.11 0.185-2.106 0.509-3.029 0.959l0.065-0.029c-2.908 1.365-5.161 4.098-5.955 7.223-0.282 1.103-0.352 1.816-0.313 3.143 0.064 2.173 0.329 3.044 1.818 5.96 1.539 3.016 1.971 3.909 2.288 4.742 0.494 1.294 0.612 1.829 0.805 3.607 0.064 0.594 0.203 0.851 0.616 1.146l0.214 0.153 5.137 0.020c2.825 0.010 5.229 0.002 5.339-0.018 0.257-0.046 0.703-0.423 0.836-0.708 0.058-0.119 0.133-0.571 0.17-1.006 0.166-1.951 0.696-3.423 2.397-6.651 2.086-3.958 2.486-5.18 2.486-7.59 0-5.552-3.904-10.096-9.434-10.978-0.874-0.14-2.573-0.125-3.441 0.028zM17.482 2.541c1.776 0.309 3.321 1.133 4.517 2.311l-0.001-0.001c1.742 1.686 2.637 3.797 2.636 6.21-0.002 1.874-0.224 2.547-1.989 6.034-2.088 4.121-2.435 4.992-2.758 6.907l-0.112 0.659h-7.55l-0.114-0.659c-0.333-1.939-0.687-2.83-2.73-6.849-1.773-3.49-2.022-4.246-2.017-6.125 0.007-2.392 0.907-4.503 2.637-6.177 2.020-1.956 4.658-2.769 7.48-2.31zM10.407 29.747c-0.405 0.206-0.499 0.41-0.499 1.070s0.094 0.864 0.499 1.070c0.209 0.107 0.612 0.115 5.593 0.115s5.384-0.008 5.593-0.115c0.405-0.206 0.499-0.41 0.499-1.070s-0.094-0.864-0.499-1.070c-0.209-0.107-0.612-0.115-5.593-0.115s-5.384 0.008-5.593 0.115z"></path>
</svg>
