<!-- Generated by IcoMoon.io -->
<svg version="1.1" xmlns="http://www.w3.org/2000/svg" width="32" height="32" viewBox="0 0 32 32">
<title>user</title>
<path d="M15.322 0.245c-2.931 0.259-5.423 2.401-6.167 5.299-0.33 1.291-0.235 2.971 0.24 4.207 0.84 2.148 2.629 3.762 4.837 4.345l0.050 0.011c1 0.256 2.437 0.256 3.437 0 2.258-0.594 4.047-2.208 4.87-4.308l0.017-0.048c0.579-1.509 0.579-3.469 0-4.978-0.84-2.147-2.628-3.762-4.836-4.345l-0.050-0.011c-0.363-0.092-1.714-0.26-1.839-0.228-0.016 0.005-0.268 0.028-0.559 0.055zM16.974 2.529c0.957 0.183 1.634 0.559 2.418 1.342 1.007 1.007 1.428 2.007 1.428 3.392s-0.421 2.385-1.428 3.392c-1.007 1.007-2.007 1.428-3.392 1.428s-2.385-0.421-3.392-1.428c-1.015-1.015-1.428-2.005-1.428-3.423 0-1.357 0.425-2.358 1.428-3.361 0.766-0.766 1.458-1.156 2.371-1.339 0.536-0.106 1.449-0.107 1.995-0.003zM15.061 16.61c-3.469 0.266-6.689 2.166-8.669 5.113-0.514 0.796-0.966 1.711-1.309 2.677l-0.029 0.093c-0.277 0.818-0.469 1.766-0.537 2.748l-0.002 0.035c-0.083 1.095 0.005 1.492 0.388 1.744 0.35 0.229 1.065 0.219 1.388-0.022 0.304-0.226 0.367-0.423 0.423-1.305 0.159-2.507 1.085-4.564 2.807-6.244 0.855-0.833 1.497-1.276 2.56-1.773 0.598-0.292 1.293-0.534 2.021-0.69l0.061-0.011c0.528-0.116 0.79-0.135 1.836-0.135s1.308 0.019 1.836 0.135c1.922 0.42 3.506 1.293 4.832 2.667 0.818 0.846 1.259 1.483 1.747 2.531 0.53 1.134 0.784 2.165 0.87 3.52 0.055 0.882 0.119 1.079 0.423 1.305 0.323 0.241 1.038 0.251 1.388 0.022 0.384-0.251 0.472-0.649 0.388-1.744-0.105-1.575-0.521-3.030-1.185-4.338l0.029 0.064c-0.638-1.293-1.288-2.178-2.361-3.215-1.967-1.898-4.374-2.97-7.147-3.181-0.858-0.065-0.861-0.065-1.758 0.003z"></path>
</svg>
