<!-- Generated by IcoMoon.io -->
<svg version="1.1" xmlns="http://www.w3.org/2000/svg" width="32" height="32" viewBox="0 0 32 32">
<title>users</title>
<path d="M12.094 0.547c-3.133 0.277-5.797 2.567-6.592 5.665-0.353 1.38-0.251 3.176 0.256 4.497 0.898 2.296 2.81 4.022 5.171 4.645l0.053 0.012c1.069 0.274 2.605 0.274 3.674 0 2.414-0.635 4.326-2.36 5.206-4.605l0.018-0.052c0.619-1.613 0.619-3.709 0-5.321-0.898-2.296-2.81-4.021-5.169-4.645l-0.053-0.012c-0.388-0.099-1.832-0.278-1.966-0.243-0.017 0.005-0.286 0.030-0.598 0.059zM21.814 1.426c-0.351 0.213-0.671 0.77-0.677 1.175-0.006 0.407 0.154 0.638 0.701 1.005 1.716 1.155 2.572 2.77 2.478 4.68-0.040 0.808-0.153 1.261-0.488 1.969-0.437 0.916-1.043 1.598-1.989 2.234-0.297 0.2-0.534 0.413-0.6 0.538-0.202 0.391-0.108 0.854 0.275 1.366 0.445 0.596 1.101 0.514 2.155-0.275 1.493-1.115 2.586-2.851 2.928-4.652 0.153-0.802 0.142-2.161-0.025-2.945-0.411-1.867-1.451-3.443-2.883-4.53l-0.019-0.014c-0.851-0.636-1.433-0.809-1.854-0.552zM13.861 2.988c1.023 0.196 1.746 0.598 2.584 1.434 1.077 1.077 1.527 2.145 1.527 3.626s-0.45 2.549-1.527 3.626c-1.077 1.077-2.145 1.527-3.626 1.527s-2.549-0.45-3.626-1.527c-1.081-1.081-1.527-2.141-1.527-3.626s0.445-2.545 1.527-3.626c0.819-0.819 1.559-1.236 2.535-1.431 0.573-0.113 1.549-0.115 2.133-0.003zM11.816 18.040c-3.709 0.285-7.15 2.316-9.267 5.466-0.549 0.851-1.032 1.829-1.399 2.862l-0.031 0.099c-0.296 0.874-0.502 1.888-0.574 2.938l-0.002 0.038c-0.089 1.171 0.005 1.595 0.415 1.864 0.374 0.245 1.139 0.234 1.484-0.024 0.324-0.242 0.393-0.452 0.452-1.395 0.17-2.68 1.159-4.879 3.001-6.675 0.914-0.891 1.6-1.364 2.737-1.896 0.639-0.312 1.382-0.571 2.16-0.737l0.065-0.012c0.565-0.124 0.844-0.145 1.962-0.145s1.398 0.021 1.962 0.145c2.055 0.448 3.748 1.382 5.165 2.851 0.875 0.905 1.345 1.586 1.867 2.705 0.566 1.212 0.838 2.314 0.93 3.763 0.059 0.943 0.127 1.153 0.452 1.395 0.345 0.258 1.11 0.269 1.484 0.024 0.407-0.267 0.495-0.654 0.413-1.832-0.105-1.694-0.549-3.262-1.265-4.668l0.031 0.067c-0.682-1.382-1.377-2.328-2.524-3.437-2.102-2.029-4.676-3.174-7.64-3.4-0.918-0.070-0.921-0.070-1.88 0.003zM21.816 18.508c-0.407 0.177-0.703 0.814-0.647 1.393 0.046 0.477 0.332 0.709 1.261 1.027 2.080 0.712 3.764 2.018 5.025 3.901 0.526 0.784 0.884 1.514 1.172 2.395 0.286 0.87 0.406 1.536 0.476 2.632 0.062 0.976 0.129 1.183 0.455 1.427 0.345 0.258 1.11 0.269 1.484 0.024 0.407-0.267 0.491-0.646 0.412-1.843-0.092-1.622-0.504-3.128-1.172-4.484l0.030 0.068c-1.012-2.089-2.518-3.801-4.373-5.028l-0.046-0.029c-0.797-0.514-1.713-0.968-2.68-1.317l-0.095-0.030c-0.725-0.242-0.992-0.27-1.301-0.135z"></path>
</svg>
