<!-- Generated by IcoMoon.io -->
<svg version="1.1" xmlns="http://www.w3.org/2000/svg" width="32" height="32" viewBox="0 0 32 32">
<title>viber</title>
<path d="M15.2-0c-2.569 0.037-8.089 0.459-11.174 3.289-2.291 2.293-3.099 5.644-3.183 9.8-0.084 4.155-0.193 11.946 7.316 14.058h0.004l-0.005 3.221c0 0-0.049 1.303 0.813 1.569 1.036 0.323 1.645-0.667 2.64-1.736 0.543-0.587 1.296-1.445 1.863-2.107 5.133 0.435 9.083-0.555 9.534-0.7 1.035-0.336 6.901-1.088 7.856-8.876 0.987-8.027-0.48-13.107-3.12-15.395-0.795-0.733-4.008-3.067-11.167-3.097 0 0-0.527-0.033-1.383-0.023l0.005-0.004zM15.277 2.257c0.727-0.005 1.173 0.023 1.173 0.023 6.056 0.027 8.956 1.851 9.63 2.461 2.233 1.913 3.373 6.491 2.541 13.196v0.003c-0.805 6.504-5.565 6.912-6.443 7.193-0.373 0.12-3.843 0.983-8.204 0.699 0 0-3.248 3.92-4.263 4.939-0.16 0.16-0.347 0.223-0.469 0.192-0.173-0.044-0.221-0.251-0.22-0.552l0.027-5.357c-6.349-1.76-5.98-8.389-5.907-11.86 0.072-3.472 0.724-6.317 2.661-8.231 2.613-2.364 7.299-2.691 9.48-2.707l-0.007 0.001zM15.784 5.726c-0.223 0-0.404 0.18-0.405 0.403 0 0.223 0.177 0.404 0.4 0.407 2.165 0.013 3.928 0.716 5.371 2.123 1.431 1.395 2.16 3.291 2.177 5.779 0.003 0.223 0.187 0.4 0.409 0.4 0.221-0.003 0.4-0.184 0.4-0.405-0.019-2.645-0.824-4.795-2.421-6.352-1.587-1.547-3.591-2.337-5.931-2.353zM10.504 6.653c-0.253-0.043-0.533 0.007-0.821 0.156l-0.013 0.003c-0.573 0.329-1.088 0.749-1.528 1.243-0.003 0.005-0.008 0.005-0.011 0.011-0.356 0.431-0.56 0.851-0.613 1.264-0.011 0.061-0.013 0.124-0.009 0.187 0 0.181 0.029 0.36 0.087 0.533l0.017 0.013c0.18 0.64 0.631 1.701 1.607 3.472 0.56 1.024 1.204 2 1.928 2.915 0.36 0.459 0.747 0.897 1.16 1.312l0.176 0.176c0.413 0.411 0.853 0.8 1.312 1.16 0.915 0.724 1.891 1.369 2.915 1.929 1.771 0.977 2.835 1.427 3.472 1.608l0.013 0.019c0.173 0.056 0.353 0.085 0.536 0.084 0.061 0.003 0.123 0 0.184-0.011 0.413-0.048 0.836-0.253 1.264-0.613 0.005 0 0.004-0.003 0.011-0.007 0.493-0.44 0.911-0.96 1.24-1.531l0.004-0.013c0.3-0.576 0.2-1.123-0.24-1.493-0.005 0-0.931-0.773-1.383-1.107-0.48-0.34-0.973-0.656-1.484-0.947-0.68-0.38-1.376-0.141-1.664 0.232l-0.596 0.752c-0.307 0.377-0.876 0.328-0.876 0.328-4.16-1.061-5.273-5.273-5.273-5.273s-0.049-0.568 0.331-0.875l0.751-0.597c0.369-0.287 0.608-0.983 0.227-1.664-0.289-0.511-0.605-1.008-0.947-1.487-0.333-0.453-1.101-1.377-1.107-1.38-0.183-0.22-0.413-0.353-0.669-0.396l0.001-0.003zM16.491 7.827c-0.211 0.003-0.387 0.165-0.4 0.376-0.013 0.223 0.153 0.416 0.376 0.432 1.547 0.113 2.689 0.621 3.527 1.533 0.84 0.917 1.24 2.032 1.208 3.427-0.003 0.224 0.173 0.408 0.4 0.413 0.221 0.004 0.407-0.173 0.413-0.396 0.033-1.567-0.445-2.924-1.423-3.992-0.987-1.080-2.369-1.671-4.067-1.795h-0.032l-0.003 0.001zM17.108 10c-0.213 0.003-0.387 0.169-0.4 0.383-0.011 0.223 0.16 0.413 0.384 0.427 0.697 0.037 1.167 0.233 1.484 0.563 0.32 0.327 0.517 0.827 0.555 1.552 0.013 0.223 0.2 0.393 0.424 0.383 0.223-0.011 0.393-0.2 0.383-0.423-0.040-0.859-0.287-1.571-0.773-2.076-0.489-0.504-1.191-0.765-2.027-0.809h-0.024l-0.005 0.001z"></path>
</svg>
