<!-- Generated by IcoMoon.io -->
<svg version="1.1" xmlns="http://www.w3.org/2000/svg" width="32" height="32" viewBox="0 0 32 32">
<title>warning</title>
<path d="M16.082 21.662h1.231c0-0.68-0.551-1.231-1.231-1.231v1.231zM16.082 21.826l-0 1.231c0.327 0 0.64-0.13 0.871-0.361s0.361-0.544 0.361-0.87h-1.231zM15.918 21.825h-1.231c0 0.68 0.551 1.231 1.23 1.231l0-1.231zM15.918 21.662v-1.231c-0.68 0-1.231 0.551-1.231 1.231h1.231zM17.231 10.174c0-0.68-0.551-1.231-1.231-1.231s-1.231 0.551-1.231 1.231h2.462zM14.769 16.738c0 0.68 0.551 1.231 1.231 1.231s1.231-0.551 1.231-1.231h-2.462zM16 29.538c-7.477 0-13.538-6.061-13.538-13.538h-2.462c0 8.837 7.163 16 16 16v-2.462zM2.462 16c0-7.477 6.061-13.538 13.538-13.538v-2.462c-8.837 0-16 7.163-16 16h2.462zM16 2.462c7.477 0 13.538 6.061 13.538 13.538h2.462c0-8.837-7.163-16-16-16v2.462zM29.538 16c0 7.477-6.061 13.538-13.538 13.538v2.462c8.837 0 16-7.163 16-16h-2.462zM14.851 21.662v0.164h2.462v-0.164h-2.462zM16.082 20.595l-0.163-0-0.001 2.462 0.163 0 0.001-2.462zM17.149 21.825v-0.164h-2.462v0.164h2.462zM15.918 22.892h0.163v-2.462h-0.163v2.462zM14.769 10.174v6.564h2.462v-6.564h-2.462z"></path>
</svg>
