<!-- Generated by IcoMoon.io -->
<svg version="1.1" xmlns="http://www.w3.org/2000/svg" width="32" height="32" viewBox="0 0 32 32">
<title>weight</title>
<path d="M4.99 0.165c-1.728 0.344-3.502 1.763-4.33 3.463-0.264 0.544-0.483 1.182-0.549 1.6-0.154 0.989-0.146 20.607 0.008 21.533 0.31 1.865 1.74 3.727 3.51 4.569 0.502 0.24 1.219 0.483 1.608 0.549 0.976 0.162 20.549 0.162 21.525 0 1.865-0.31 3.727-1.74 4.569-3.51 0.24-0.502 0.483-1.219 0.549-1.608 0.162-0.976 0.162-20.549 0-21.525-0.31-1.865-1.74-3.727-3.51-4.569-0.502-0.24-1.219-0.483-1.608-0.549-1.101-0.184-20.827-0.142-21.771 0.046zM27.059 2.682c1.031 0.424 1.833 1.226 2.247 2.23l0.010 0.027 0.28 0.662v20.795l-0.28 0.662c-0.285 0.677-0.619 1.128-1.243 1.672-0.194 0.17-0.649 0.432-1.014 0.585l-0.662 0.28h-20.795l-0.662-0.28c-1.031-0.424-1.833-1.226-2.247-2.23l-0.010-0.027-0.28-0.662-0.030-9.848c-0.019-5.848 0.010-10.147 0.070-10.582 0.056-0.403 0.219-0.987 0.363-1.297 0.52-1.117 1.753-2.030 2.995-2.217 0.301-0.045 5.060-0.075 10.572-0.067l10.025 0.016 0.662 0.28zM14.452 5.718l-0.96 0.224c-1.788 0.413-3.633 1.481-4.967 2.878-1.74 1.822-2.7 3.988-2.835 6.403-0.080 1.427 0.064 1.939 0.71 2.523 0.635 0.574 0.921 0.617 3.849 0.579l2.622-0.034 0.451-0.312c0.597-0.414 0.942-1.030 1.065-1.904 0.117-0.819 0.378-1.253 0.905-1.504 0.206-0.104 0.449-0.164 0.705-0.164s0.5 0.061 0.715 0.169l-0.009-0.004c0.533 0.253 0.797 0.691 0.894 1.485 0.106 0.849 0.472 1.504 1.077 1.923l0.451 0.312 2.622 0.034c2.927 0.038 3.214-0.005 3.849-0.579 0.638-0.578 0.789-1.097 0.713-2.468-0.242-4.399-3.306-8.113-7.699-9.329-0.541-0.15-1.185-0.218-2.345-0.245-0.88-0.019-1.696-0.014-1.814 0.014zM17.541 8.164c0.973 0.2 2.113 0.662 2.862 1.16 0.728 0.483 1.788 1.544 2.271 2.271 0.702 1.059 1.323 2.947 1.323 4.026v0.378h-4.052l-0.002-0.347c-0.006-1.206-0.95-2.574-2.238-3.241-0.536-0.278-0.685-0.304-1.707-0.304-1.030 0-1.168 0.024-1.731 0.314-1.168 0.601-2.064 1.825-2.184 2.983l-0.061 0.595h-4.023v-0.378c0-1.080 0.621-2.967 1.323-4.026 0.483-0.728 1.544-1.788 2.271-2.271 1.691-1.123 3.973-1.568 5.946-1.16z"></path>
</svg>
