<!-- Generated by IcoMoon.io -->
<svg version="1.1" xmlns="http://www.w3.org/2000/svg" width="32" height="32" viewBox="0 0 32 32">
<title>whatsApp</title>
<path d="M23.295 19.176c-0.396-0.199-2.344-1.156-2.707-1.289-0.364-0.132-0.628-0.197-0.893 0.2-0.263 0.396-1.023 1.288-1.253 1.552-0.231 0.265-0.463 0.297-0.859 0.1-0.396-0.2-1.673-0.617-3.187-1.967-1.177-1.051-1.973-2.348-2.204-2.745-0.231-0.396-0.024-0.611 0.173-0.808 0.179-0.177 0.397-0.463 0.595-0.693 0.199-0.232 0.264-0.397 0.397-0.663 0.132-0.264 0.067-0.495-0.033-0.693s-0.892-2.149-1.221-2.943c-0.323-0.772-0.649-0.667-0.892-0.68-0.231-0.011-0.495-0.013-0.76-0.013-0.264 0-0.693 0.099-1.056 0.496-0.363 0.396-1.387 1.355-1.387 3.305 0 1.949 1.42 3.833 1.617 4.099 0.199 0.264 2.795 4.267 6.769 5.983 0.945 0.408 1.683 0.652 2.259 0.833 0.949 0.303 1.813 0.26 2.495 0.157 0.761-0.113 2.344-0.959 2.675-1.884s0.331-1.719 0.231-1.884c-0.099-0.165-0.361-0.264-0.759-0.463zM16.066 29.047h-0.005c-2.36 0-4.677-0.634-6.708-1.837l-0.481-0.285-4.988 1.309 1.331-4.864-0.313-0.499c-1.319-2.101-2.017-4.532-2.013-7.013 0.001-7.267 5.915-13.179 13.184-13.179 3.52 0 6.829 1.373 9.317 3.864 1.228 1.222 2.201 2.676 2.863 4.276s1 3.317 0.995 5.049c-0.004 7.267-5.916 13.179-13.18 13.179zM27.283 4.651c-1.469-1.479-3.217-2.651-5.143-3.45s-3.99-1.207-6.075-1.201c-8.74 0-15.853 7.113-15.857 15.856 0 2.795 0.729 5.523 2.117 7.927l-2.251 8.217 8.407-2.205c2.325 1.267 4.93 1.93 7.577 1.931h0.007c8.739 0 15.853-7.113 15.857-15.857 0.007-2.084-0.4-4.148-1.197-6.073s-1.967-3.674-3.443-5.144z"></path>
</svg>
