<!-- Generated by IcoMoon.io -->
<svg version="1.1" xmlns="http://www.w3.org/2000/svg" width="23" height="32" viewBox="0 0 23 32">
<title>woman</title>
<path fill="#5d5f65" d="M13.076 19.869c-0.978-0.355-1.594-1.173-2.756-1.071-2.066 0.183-3.53 2.503-5.519 0.929-2.406-1.908-1.775-13.382-0.731-15.982 0.884-2.204 2.516-0.049 4.841-0.791 2.703-0.861 5.035 1.273 6.433 3.487 1.454 2.306 2.204 5.243 1.989 7.95-0.198 2.499-0.65 6.786-4.259 5.475l0.002 0.002z"></path>
<path fill="#5d5f65" d="M22.304 31.998h-5.069l-0.905-3.66c0 0-0.737-5.555 3.073-5.634 0 0 1.976 1.386 2.516 4.648 0 0 0.427 2.605 0.387 4.646h-0.002z"></path>
<path fill="#5d5f65" d="M4.696 31.998l0.684-2.761c0 0 0.737-5.555-3.073-5.634 0 0-2.285 1.664-2.085 8.395h4.474z"></path>
<path fill="#f3f4f4" d="M13.15 14.671h-4.624v6.771h4.624v-6.771z"></path>
<path fill="#babbbd" d="M13.152 17.436v-2.763h-4.624v3.98c1.526-0.047 3.337-0.323 4.624-1.218z"></path>
<path fill="#f3f4f4" d="M2.395 23.603c1.037-1.607 2.669-2.040 2.669-2.040l3.908-1.447h3.73l4.78 1.447c0 0 1.632 0.436 2.669 2.040h-17.756z"></path>
<path fill="#5d5f65" d="M3.353 31.998h15.401l-0.098-2.892 2.265-3.426c-0.504-3.337-3.436-4.117-3.436-4.117l-3.764-1.071c0 0 0.225 1.226-2.882 1.226 0 0-2.495 0-2.793-1.258l-2.982 1.105c0 0-2.185 0.667-3.377 2.875l1.666 4.667v2.892l-0.002-0.002z"></path>
<path fill="#f3f4f4" d="M13.656 15.211c-0.157 0.366-0.378 0.703-0.686 1.001-0.767 0.74-1.666 1.339-2.652 1.743-1.209 0.497-3.035 0.559-3.997-0.436-0.78-0.808-1.207-2.030-1.545-3.079-0.657-2.040-0.648-4.267-0.482-6.384 0.038-0.482 0.087-0.967 0.168-1.445 0.752-4.618 4.705-4.61 4.705-4.61 2.984-0.13 5.708 1.279 6.167 4.425 0.176 1.205-0.055 2.497-0.117 3.702-0.045 0.884-0.153 1.768-0.436 2.612-0.289 0.861-0.765 1.639-1.124 2.469v0.002z"></path>
<path fill="#5d5f65" d="M3.976 10.778c-1.116-3.453-0.215-7.515 1.118-8.786 3.776-3.602 10.751-2.231 12.881 3.4 0.659 1.738 0.349 8.227 0.051 10.22-0.4 2.671-1.381 4.501-3.409 4.501 0.053-2.202-0.115-4.644 0.081-7.336 0.193-2.671-0.162-2.737-2.384-3.98-1.105-0.618-1.749-1.264-2.435-2.268-0.85-1.243-0.21-1.677-1.894-1.622 0 0-3.91-0.134-4.006 5.868l-0.002 0.002z"></path>
<path fill="#f3f4f4" d="M14.041 11.689c0 0 0.395-1.643 1.658-0.965 0 0 0.57 0.289 0.159 1.418 0 0-0.599 1.624-1.819 1.031v-1.483h0.002z"></path>
</svg>
